<?xml version="1.0" standalone="no"?><!DOCTYPE svg PUBLIC "-//W3C//DTD SVG 1.1//EN" "http://www.w3.org/Graphics/SVG/1.1/DTD/svg11.dtd"><svg class="icon" width="200px" height="200.00px" viewBox="0 0 1024 1024" version="1.1" xmlns="http://www.w3.org/2000/svg"><path d="M183.7 910c-10.7 0-21.2-3.8-29.4-10.7l-42.8-35.8c-9.7-8.1-15.7-20.1-16.4-32.8-0.7-12.7 4-25.2 12.8-34.3l211-218.2c-35.3-46.7-52.8-106.8-49.2-170.2 3.8-66.7 30.7-133.2 75.9-187.3 30.4-36.4 68.4-66.1 109.8-86.1 40.2-19.3 83.7-29.5 125.9-29.5 58.5 0 112 18.9 154.9 54.7 53.6 44.8 84 110.7 85.6 185.6 1.6 74.4-25.5 148.8-76.3 209.6-30.4 36.4-68.4 66.1-109.8 86.1-40.1 19.3-83.7 29.5-125.9 29.5-39.5 0-77.8-9-111.4-26L221 890.9c-8.6 12-22.6 19.1-37.3 19.1z" fill="#FC6B79" /><path d="M581.2 114.2c54.2 0 106.6 17.1 149.1 52.6 106.6 89.1 110.2 260.4 8.1 382.5-61.4 73.4-147 112.4-228.7 112.4-40.1 0-79.3-9.4-114.1-28.7L213.7 885.7c-7.2 10.1-18.5 15.3-30 15.3-8.3 0-16.7-2.8-23.6-8.6l-42.8-35.8c-16.4-13.7-17.7-38.5-2.9-53.9l216.4-223.8c-76.4-93.9-69.9-242.8 21.6-352.3 61.5-73.5 147.1-112.4 228.8-112.4m0-18c-43.6 0-88.4 10.5-129.8 30.4-21 10.1-41.2 22.6-59.9 37.2-19.2 15-37 32.2-52.9 51.2-23.6 28.2-42.3 59.5-55.7 92.9-12.9 32.4-20.4 65.9-22.3 99.6-3.5 62.8 12.9 122.5 46.5 169.9L101.4 790.2c-10.6 10.9-16.2 25.9-15.3 41s7.9 29.5 19.6 39.2l42.8 35.8c9.9 8.2 22.3 12.8 35.2 12.8 17.6 0 34.3-8.5 44.6-22.8L401.2 656c33.1 15.5 70.3 23.6 108.5 23.6 43.6 0 88.4-10.5 129.8-30.4 21-10.1 41.2-22.6 59.9-37.2 19.2-15 37-32.2 52.9-51.2 26.3-31.5 46.5-66.6 59.9-104.2 13-36.5 19.2-74 18.4-111.3-0.8-37.6-8.6-73.1-23.3-105.7-15.3-33.9-37.3-63.1-65.5-86.6-22.5-18.8-48-33.2-75.8-42.8-26.8-9.3-55.3-14-84.8-14z" fill="#330867" /><path d="M278.4 435c2.1 53.1 19.6 103.6 52.4 143.9L114.4 802.7c-14.9 15.4-13.6 40.2 2.9 53.9l42.8 35.8c16.4 13.7 41.1 10.6 53.6-6.7L395.6 633c47.2 26.1 102.3 34.1 157 25.2 67.9-11.1-276.9-293.8-274.2-223.2z" fill="#FFFFFF" /><path d="M173.3 923.2c-14.8 0-28.8-7.2-37.4-19.2l-32.4-45.5c-7.4-10.3-10.1-23.4-7.6-35.8 2.6-12.4 10.2-23.4 21.1-30l259.2-157.8c-22.4-54.1-24.1-116.6-4.7-177.1 20.5-63.6 63.3-121.2 120.7-162 55.5-39.5 121.7-61.3 186.4-61.3 85.7 0 161.1 36.8 206.8 101 40.5 56.9 53.3 128.3 35.9 201.2C904 609.1 859 674.3 794.6 720.2c-28.3 20.2-59 35.7-91.3 46.1-31.2 10.1-63.2 15.2-95.1 15.2-66 0-126.7-22.1-172.1-62.3L202.6 912.7c-8.3 6.8-18.6 10.5-29.3 10.5z" fill="#FC6B79" /><path d="M678.7 243.5c79.5 0 153.9 33.2 199.5 97.2 80.6 113.1 40.9 279.8-88.7 372.1-56.3 40.1-120.2 59.6-181.2 59.6-64.9 0-126.5-22.2-171.7-65.2L196.8 905.8c-6.9 5.7-15.2 8.5-23.5 8.5-11.5 0-22.8-5.3-30.1-15.5l-32.4-45.5c-12.4-17.4-7.4-41.8 10.9-52.9l265.9-161.9c-50.2-110.1-6.3-252.6 109.9-335.4 56.3-40.1 120.2-59.6 181.2-59.6m0-18c-32.8 0-65.7 5.3-97.9 15.6-33.2 10.7-64.7 26.6-93.7 47.3-30 21.4-56 46.9-77.3 75.8-20.7 28.1-36.4 58.6-46.7 90.8-19.3 59.9-18.4 121.8 2.1 176.1L112.4 785c-13 7.9-22.2 21-25.2 35.8-3.1 14.9 0.3 30.5 9.1 42.9l32.4 45.5c10.3 14.4 27 23 44.7 23 12.7 0 25.1-4.5 35-12.6l227.9-188.7c46.3 38.5 106.8 59.5 172.2 59.5 32.8 0 65.7-5.3 97.9-15.6 33.2-10.7 64.7-26.6 93.7-47.3 33.4-23.8 61.8-52.7 84.3-85.7 21.8-32.1 37.3-66.7 45.9-103 8.7-36.5 10.1-72.9 4.1-108.1-6.2-36.7-20.2-70.4-41.5-100.3-24.1-33.8-55.7-60.2-94-78.4-36.2-17.4-77.8-26.5-120.2-26.5z" fill="#330867" /><path d="M373.3 486.1c-11.4 51.9-7.2 105.1 14.4 152.4l-266 161.9c-18.3 11.1-23.3 35.5-10.9 52.9l32.4 45.5c12.4 17.4 37 20.7 53.5 7l239.8-198.5c39.1 37.2 90.4 58.8 145.6 64 68.6 6.3-193.7-354.3-208.8-285.2z" fill="#FFFFFF" /><path d="M167.2 772.7l-45.5 27.7c-18.3 11.1-23.3 35.5-10.9 52.9l32.4 45.5c12.4 17.4 37 20.7 53.5 7l41.5-34.4-71-98.7z" fill="#66C1FF" /><path d="M669.7 470.4m-103.2 0a103.2 103.2 0 1 0 206.4 0 103.2 103.2 0 1 0-206.4 0Z" fill="#FFE08A" /><path d="M669.7 370.2c55.3 0 100.2 44.9 100.2 100.2S725 570.6 669.7 570.6c-55.3 0-100.2-44.9-100.2-100.2s44.9-100.2 100.2-100.2m0-6c-58.6 0-106.2 47.6-106.2 106.2s47.6 106.2 106.2 106.2S775.9 529 775.9 470.4s-47.6-106.2-106.2-106.2z" fill="#330867" /><path d="M737.2 544.4c-17.8 16.3-41.5 26.2-67.5 26.2-55.3 0-100.2-44.9-100.2-100.2 0-12.8 2.4-25 6.7-36.2-6.7 100.3 98.2 136.4 161 110.2z" fill="#EAB236" /></svg>