<?xml version="1.0" standalone="no"?><!DOCTYPE svg PUBLIC "-//W3C//DTD SVG 1.1//EN" "http://www.w3.org/Graphics/SVG/1.1/DTD/svg11.dtd"><svg class="icon" width="200px" height="200.00px" viewBox="0 0 1024 1024" version="1.1" xmlns="http://www.w3.org/2000/svg"><path d="M102.3 741.5c-5 0-9-4-9-9V121c0-5 4-9 9-9h820c5 0 9 4 9 9v611.4c0 5-4 9-9 9h-820z" fill="#66C1FF" /><path d="M922.3 121v611.4h-820V121h820m0-18h-820c-9.9 0-18 8.1-18 18v611.4c0 9.9 8.1 18 18 18h820c9.9 0 18-8.1 18-18V121c0-9.9-8-18-18-18z" fill="#330867" /><path d="M102.3 741.5c-5 0-9-4-9-9v-93.2c0-5 4-9 9-9h820c5 0 9 4 9 9v93.2c0 5-4 9-9 9h-820z" fill="#FFFFFF" /><path d="M922.3 639.2v93.2h-820v-93.2h820m0-18h-820c-9.9 0-18 8.1-18 18v93.2c0 9.9 8.1 18 18 18h820c9.9 0 18-8.1 18-18v-93.2c0-9.9-8-18-18-18z" fill="#330867" /><path d="M922.3 732.5h-820v-51.1c226 35 499.3 44 820 27v24.1z" fill="#F7D7FF" /><path d="M445.8 858.5c-5 0-9-4-9-9v-99.2c0-5 4-9 9-9h133c5 0 9 4 9 9v99.2c0 5-4 9-9 9h-133z" fill="#F0BEFC" /><path d="M578.8 750.4v99.2h-133v-99.2h133m0-18h-133c-9.9 0-18 8.1-18 18v99.2c0 9.9 8.1 18 18 18h133c9.9 0 18-8.1 18-18v-99.2c0-10-8-18-18-18z" fill="#330867" /><path d="M186.8 911.9c-5 0-9-4-9-9v-53.4c0-5 4-9 9-9H838c5 0 9 4 9 9v53.4c0 5-4 9-9 9H186.8z" fill="#FFE08A" /><path d="M837.9 849.5v53.4H186.8v-53.4h651.1m0-18H186.8c-9.9 0-18 8.1-18 18v53.4c0 9.9 8.1 18 18 18H838c9.9 0 18-8.1 18-18v-53.4c-0.1-9.9-8.2-18-18.1-18z" fill="#330867" /><path d="M661.5 527.1c-9.4 0-17.3-7.1-17.3-15.5v-67.7c0-3.7 3.3-6.8 7.2-6.8h76.3c3.9 0 7.2 3.1 7.2 6.8v76.5c0 3.7-3.3 6.8-7.2 6.8h-66.2z" fill="#DD365E" /><path d="M727.6 440c2.3 0 4.2 1.7 4.2 3.8v76.5c0 2-1.9 3.8-4.2 3.8h-66.1c-7.8 0-14.3-5.7-14.3-12.5v-67.7c0-2 1.9-3.8 4.2-3.8h76.2m0-6.1h-76.3c-5.6 0-10.2 4.4-10.2 9.8v67.7c0 10 9.3 18.5 20.3 18.5h66.1c5.6 0 10.2-4.4 10.2-9.8v-76.5c0.1-5.3-4.5-9.7-10.1-9.7z" fill="#330867" /><path d="M760.7 527.1c-3.9 0-7.1-3.1-7.1-6.8v-76.5c0-3.7 3.3-6.8 7.1-6.8H837c3.9 0 7.1 3.1 7.1 6.8v67.3c0 8.8-7.8 16-17.3 16h-66.1z" fill="#DD365E" /><path d="M837 440c2.2 0 4.1 1.7 4.1 3.8v67.3c0 7.1-6.4 13-14.3 13h-66.1c-2.2 0-4.1-1.7-4.1-3.8v-76.5c0-2 1.9-3.8 4.1-3.8H837m0-6h-76.3c-5.6 0-10.1 4.4-10.1 9.8v76.5c0 5.4 4.5 9.8 10.1 9.8h66.1c11.2 0 20.3-8.5 20.3-19v-67.3c0-5.4-4.5-9.8-10.1-9.8z" fill="#330867" /><path d="M702.7 357.3c-5.8 0-10.3-0.6-14.2-1.9-12.9-3.8-18.5-10.1-20.8-14.6-2.4-4.6-2.8-9.9-1.1-14.7 3.2-8.6 11.8-13.8 23-13.8 4.3 0 8.8 0.7 13.4 2.1 16.5 5 32.5 24.9 34.5 27.9 1.5 2.1 1.2 4.3 0.7 6 0 0.1 0 0.1-0.1 0.2-0.7 1.8-2.5 3.5-4.4 4.2-0.1 0.1-0.2 0.1-0.4 0.2-2.3 0.8-16.8 4.4-30.6 4.4z" fill="#FC6B79" /><path d="M689.7 315.2c3.9 0 8.1 0.7 12.5 2 15.7 4.7 31.5 24.5 32.8 26.7 0.7 0.9 0.8 1.9 0.3 3.5-0.4 1-1.5 2-2.6 2.4l-0.3 0.1-0.1 0.1c-1.8 0.7-16 4.4-29.6 4.4-5.5 0-9.7-0.6-13.3-1.8-19.3-5.7-22.8-17.3-19.9-25.5 2.8-7.7 10.3-11.9 20.2-11.9m0-6c-12.6 0-22.2 5.9-25.8 15.7v0.1c-2 5.7-1.5 11.7 1.2 17.1 2.6 5.1 8.6 12 22.6 16.1 4.2 1.4 9 2.1 15.1 2.1 14.3 0 29.2-3.8 31.8-4.8 0.2-0.1 0.3-0.1 0.5-0.2 2.7-1 5.2-3.3 6.1-5.9 0.1-0.1 0.1-0.3 0.1-0.4 0.3-1.2 1.4-4.9-1.2-8.5-2.4-3.6-18.7-23.8-36-29-5.1-1.5-9.9-2.3-14.4-2.3z" fill="#330867" /><path d="M783.6 357.3c-11.9 0-23.9-2.9-29-4.2-1-0.2-1.8-0.4-2-0.5-0.2 0-0.5-0.1-0.7-0.2-1.9-0.7-3.7-2.4-4.3-4.2-0.6-1.7-0.7-4.2 0.7-6.3 1.9-2.9 17.9-22.8 34.4-27.8 4.6-1.4 9.2-2.1 13.4-2.1 11.3 0 19.9 5.1 23 13.7 2.2 5.9 1.2 12.1-2.8 17.8-3.8 5.3-10.2 9.3-19.2 11.7-3.3 1.5-7.7 2.1-13.5 2.1z" fill="#FC6B79" /><path d="M796.1 315.2c9.9 0 17.4 4.2 20.2 11.8 1.8 5 1 10.2-2.4 15-3.4 4.8-9.2 8.3-17.7 10.6-3 1.2-7.1 1.7-12.6 1.7-11.5 0-23.3-2.8-28.3-4.1-1.4-0.3-2-0.5-2.4-0.5-1.1-0.4-2.2-1.4-2.5-2.3-0.3-0.9-0.5-2.4 0.4-3.6 1.3-2.1 17.1-21.9 32.7-26.6 4.5-1.4 8.7-2 12.6-2m0-6v6-6c-4.6 0-9.4 0.8-14.3 2.2-17.4 5.3-33.6 25.4-36 28.9-1.8 2.6-2.2 5.9-1.1 9 0.9 2.6 3.3 4.9 6.1 5.9 0.4 0.1 0.8 0.3 1.3 0.3 0.2 0 1 0.2 1.7 0.4 5.2 1.3 17.5 4.2 29.7 4.2 6.2 0 10.8-0.6 14.5-2 9.6-2.6 16.6-6.9 20.7-12.8 4.5-6.5 5.6-13.7 3.1-20.5-3.5-9.7-13.2-15.6-25.7-15.6z" fill="#330867" /><path d="M728.8 368.6h-73.5c-7.3 0-13.3 5.8-13.3 13v26.8c0 7.2 5.9 13 13.3 13h73.5c2.1 0 3.8-1.7 3.8-3.8v-45.2c0.1-2.1-1.7-3.8-3.8-3.8m-3.3 45.7h-71.1c-3.1 0-5.6-2.5-5.6-5.5v-27.7c0-3 2.5-5.5 5.6-5.5h71.1v38.7z" fill="#DD365E" /><path d="M832.9 368.6h-73.5c-2.1 0-3.8 1.7-3.8 3.8v45.2c0 2 1.8 3.8 3.8 3.8h74c3.6 0 7-1.4 9.4-4 2.4-2.4 3.5-5.6 3.3-8.9v-26.8c0.1-7.3-5.8-13.1-13.2-13.1m6.6 40.7c0 3-2.5 5.5-5.6 5.5h-71.1v-38.6h71.1c3.1 0 5.6 2.5 5.6 5.5v27.6z" fill="#DD365E" /><path d="M334 477.7c-9.5 0-17.6-6.5-19.8-15.7l-57-245.4h-47.4c-5.6 0-11-2.3-14.8-6.4-3.8-4.1-5.8-9.6-5.4-15.2 0.7-10.6 9.8-19 20.6-19h63.1c9.5 0 17.6 6.5 19.8 15.7l11.1 47.8h260.4c6.9 0 13.4 3.1 17.7 8.5 4.3 5.4 5.9 12.4 4.4 19.1 0 0.2-0.1 0.3-0.1 0.5l-37.4 133c-2.4 10.3-11.5 17.4-22 17.4H345.4l5.9 24.8h156.2c4.8 0 9.2 1.9 12.5 5.3 3.3 3.4 5.1 7.9 4.9 12.7-0.3 9.3-8.3 16.9-17.8 16.9H334z" fill="#FFE08A" /><path d="M273.3 185c5.3 0 9.8 3.6 11 8.7l12.7 54.8h267.6c8.8 0 15.2 8.1 13.3 16.7l-37.4 133.2c-1.4 6.2-6.9 10.6-13.3 10.6H334l10.3 42.8h163.3c4.8 0 8.6 3.9 8.5 8.7-0.1 4.6-4.2 8.2-8.8 8.2H334.1c-5.1 0-9.8-3.5-11-8.7l-58.7-252.4h-54.5c-6.5 0-11.7-5.5-11.3-12 0.4-6 5.6-10.5 11.7-10.5h63m0-18.1h-63.1c-15.6 0-28.6 12-29.6 27.4-0.5 8.1 2.3 16.1 7.9 21.9 5.5 5.9 13.3 9.3 21.4 9.3h40.2L305.5 464c3.1 13.3 14.8 22.7 28.5 22.7H507.2c6.8 0 13.3-2.5 18.3-7.1 5.3-4.9 8.3-11.5 8.6-18.6 0.2-7.1-2.5-14.1-7.5-19.2s-11.9-8-19-8H358.5l-1.6-6.8h170.3c14.7 0 27.3-9.9 30.7-24.1l37.3-132.8c0.1-0.3 0.2-0.6 0.2-0.9 2.1-9.4-0.1-19.2-6.1-26.7-6-7.6-15-11.9-24.7-11.9H311.4l-9.5-40.9a29.32 29.32 0 0 0-28.6-22.7z" fill="#330867" /><path d="M499.7 570.2c-18.3 0-33.1-14.9-33.1-33.1s14.9-33.1 33.1-33.1 33.1 14.9 33.1 33.1-14.8 33.1-33.1 33.1z" fill="#FFE08A" /><path d="M499.7 512.9c13.3 0 24.1 10.8 24.1 24.1s-10.8 24.1-24.1 24.1-24.1-10.8-24.1-24.1 10.8-24.1 24.1-24.1m0-18c-23.2 0-42.1 18.9-42.1 42.1 0 23.2 18.9 42.1 42.1 42.1 23.2 0 42.1-18.9 42.1-42.1 0-23.2-18.9-42.1-42.1-42.1z" fill="#330867" /><path d="M499.7 537m-12.4 0a12.4 12.4 0 1 0 24.8 0 12.4 12.4 0 1 0-24.8 0Z" fill="#EAB236" /><path d="M338.4 537m-33.1 0a33.1 33.1 0 1 0 66.2 0 33.1 33.1 0 1 0-66.2 0Z" fill="#FFE08A" /><path d="M338.4 512.9c13.3 0 24.1 10.8 24.1 24.1s-10.8 24.1-24.1 24.1-24.1-10.8-24.1-24.1 10.7-24.1 24.1-24.1m0-18c-23.2 0-42.1 18.9-42.1 42.1 0 23.2 18.9 42.1 42.1 42.1s42.1-18.9 42.1-42.1c0-23.2-18.9-42.1-42.1-42.1z" fill="#330867" /><path d="M338.4 537m-12.4 0a12.4 12.4 0 1 0 24.8 0 12.4 12.4 0 1 0-24.8 0Z" fill="#EAB236" /></svg>