<?xml version="1.0" standalone="no"?><!DOCTYPE svg PUBLIC "-//W3C//DTD SVG 1.1//EN" "http://www.w3.org/Graphics/SVG/1.1/DTD/svg11.dtd"><svg class="icon" width="200px" height="200.00px" viewBox="0 0 1024 1024" version="1.1" xmlns="http://www.w3.org/2000/svg"><path d="M601.3 592.3c-78 0-141.5-63.5-141.5-141.5 0-28.7 8.5-56.3 24.7-79.9 14.6-21.3 34.5-38.1 57.8-48.8V210.5h-0.1c-13.4 0-24.4-10.9-24.4-24.4s10.9-24.4 24.4-24.4h118.1c13.4 0 24.4 10.9 24.4 24.4s-10.9 24.4-24.4 24.4h-0.1v111.7c23.3 10.7 43.2 27.5 57.8 48.8 16.1 23.6 24.7 51.2 24.7 79.9 0 77.9-63.4 141.4-141.4 141.4z" fill="#FFFFFF" /><path d="M660.3 170.8c8.5 0 15.4 6.9 15.4 15.4s-6.9 15.4-15.4 15.4h-9.1v126.6c48.4 19.7 82.5 67.2 82.5 122.7 0 73.2-59.3 132.5-132.5 132.5s-132.5-59.3-132.5-132.5c0-55.5 34.1-103 82.5-122.7V201.5h-9.1c-8.5 0-15.4-6.9-15.4-15.4s6.9-15.4 15.4-15.4h118.2m0-17.9H542.2c-18.4 0-33.4 15-33.4 33.4 0 15.3 10.4 28.2 24.4 32.1v98.3c-22.5 11.4-41.8 28.3-56.3 49.3-17.2 25.1-26.3 54.4-26.3 84.9 0 40.2 15.7 78 44.1 106.4 28.4 28.4 66.2 44.1 106.4 44.1s78-15.7 106.4-44.1c28.4-28.4 44.1-66.2 44.1-106.4 0-30.5-9.1-59.9-26.3-84.9-14.4-21-33.7-37.9-56.3-49.3v-98.3c14.1-3.9 24.4-16.8 24.4-32.1 0.3-18.5-14.7-33.4-33.1-33.4z" fill="#330867" /><path d="M495.9 370.6c-17 22.3-27.1 50.1-27.1 80.2 0 73.2 59.3 132.5 132.5 132.5S733.8 524 733.8 450.8c0-30.1-10.1-57.9-27-80.2H495.9z" fill="#FFE08A" /><path d="M563 514.3m-10.9 0a10.9 10.9 0 1 0 21.8 0 10.9 10.9 0 1 0-21.8 0Z" fill="#FFFFFF" /><path d="M652.7 439.5m-15.1 0a15.1 15.1 0 1 0 30.2 0 15.1 15.1 0 1 0-30.2 0Z" fill="#FFFFFF" /><path d="M573.8 408.5m-4.8 0a4.8 4.8 0 1 0 9.6 0 4.8 4.8 0 1 0-9.6 0Z" fill="#FFFFFF" /><path d="M582.8 458.4m-9 0a9 9 0 1 0 18 0 9 9 0 1 0-18 0Z" fill="#FFFFFF" /><path d="M525.2 450.9m-7.5 0a7.5 7.5 0 1 0 15 0 7.5 7.5 0 1 0-15 0Z" fill="#FFFFFF" /><path d="M624.6 533m-4 0a4 4 0 1 0 8 0 4 4 0 1 0-8 0Z" fill="#FFFFFF" /><path d="M235.5 794.5c-5 0-9-4-9-9V135.1c0-5 4-9 9-9H277c5 0 9 4 9 9v650.3c0 5-4 9-9 9h-41.5z" fill="#66C1FF" /><path d="M277 135.1v650.3h-41.5V135.1H277m0-18h-41.5c-9.9 0-18 8.1-18 18v650.3c0 9.9 8.1 18 18 18H277c9.9 0 18-8.1 18-18V135.1c0-9.9-8-18-18-18z" fill="#330867" /><path d="M141.3 281.7c-1.7 0-3-1.3-3-3v-29.4c0-1.7 1.3-3 3-3h655c1.7 0 3 1.3 3 3v29.4c0 1.7-1.3 3-3 3h-655z" fill="#FFE08A" /><path d="M796.3 249.3v29.4h-655v-29.4h655m0-6h-655c-3.3 0-6 2.7-6 6v29.4c0 3.3 2.7 6 6 6h655c3.3 0 6-2.7 6-6v-29.4c0-3.3-2.7-6-6-6z" fill="#330867" /><path d="M225.8 903c-5 0-9-4-9-9v-95.1c0-5 4-9 9-9h61c5 0 9 4 9 9V894c0 5-4 9-9 9h-61z" fill="#18A3D3" /><path d="M286.8 798.9V894h-61v-95.1h61m0-18h-61c-9.9 0-18 8.1-18 18V894c0 9.9 8.1 18 18 18h61c9.9 0 18-8.1 18-18v-95.1c0-9.9-8.1-18-18-18z" fill="#330867" /><path d="M751.4 903c-5 0-9-4-9-9v-95.1c0-5 4-9 9-9h61c5 0 9 4 9 9V894c0 5-4 9-9 9h-61z" fill="#18A3D3" /><path d="M812.4 798.9V894h-61v-95.1h61m0-18h-61c-9.9 0-18 8.1-18 18V894c0 9.9 8.1 18 18 18h61c9.9 0 18-8.1 18-18v-95.1c0-9.9-8.1-18-18-18z" fill="#330867" /><path d="M586 599s54.3 46.5 50.5 84.3c15.8-28.3 14-48.7 14-48.7s45.4 57.4 42.5 99.8c-19.9 12.1-177.5 11.5-205.7 3.8-3.8-23.4 5.6-61.4 30.9-85.5C522.7 705.5 532 701 532 701s17.8-35.1 12.6-58.7c18.4 7.1 24.6 36.6 23.7 48.4 14.4-23.3 20.7-67 17.7-91.7z" fill="#FC6B79" /><path d="M582.3 746.9c-38 0-81.2-1.7-95.8-5.7l-1.9-0.5-0.3-1.9c-3.9-24.3 5.9-63.4 31.8-88.2l4.5-4.3 0.5 6.3c2.7 32.2 7.2 41.8 9.3 44.5 3.9-8.4 15.2-35.4 11.1-54.1l-1.2-5.4 5.2 2c15.6 6 22.8 25.8 25 40.1 10.4-23.7 14.9-59 12.3-80.3l-0.9-7.7 5.9 5c2 1.7 45.2 39.1 51.1 74.9 9.6-21.7 8.5-36.6 8.5-36.7l-0.9-10 6.2 7.8c1.9 2.4 46.1 58.8 43.2 101.9l-0.1 1.5-1.3 0.8c-13.4 8.1-75.3 9.6-101.3 9.8-3.5 0.2-7.2 0.2-10.9 0.2z m-92.3-11c33 7.4 177.3 6.7 200.1-3.3 1.2-32.2-25.5-73.2-36.9-89.3-0.9 8.8-4.1 23.6-14.1 41.5l-7 12.6 1.4-14.3c2.8-28.7-30.4-63.7-43.9-76.6 1.1 25.9-5.6 64.5-18.7 85.9l-6.5 10.6 1-12.4c0.9-10.9-4.4-33.5-16.9-42.7 1.7 23.7-13.1 53.2-13.8 54.5l-0.5 0.9-0.9 0.4c-1 0.5-2.8 0.7-4.7-0.4-5.9-3.4-10.2-18.1-12.7-43.8-20.5 22.7-28.6 55-25.9 76.4z" fill="#330867" /><path d="M143.4 826.2c-5 0-9-4-9-9v-63.5c0-5 4-9 9-9h741.3c5 0 9 4 9 9v63.5c0 5-4 9-9 9H143.4z" fill="#66C1FF" /><path d="M884.7 753.7v63.6H143.4v-63.6h741.3m0-18H143.4c-9.9 0-18 8.1-18 18v63.6c0 9.9 8.1 18 18 18h741.3c9.9 0 18-8.1 18-18v-63.6c0-10-8.1-18-18-18z" fill="#330867" /><path d="M216 303.9c-8.3 0-15-6.7-15-15v-49.8c0-8.3 6.7-15 15-15h80.5c8.3 0 15 6.7 15 15v49.8c0 8.3-6.7 15-15 15H216z" fill="#EAB236" /><path d="M296.5 227.1c6.6 0 12 5.4 12 12v49.8c0 6.6-5.4 12-12 12H216c-6.6 0-12-5.4-12-12v-49.8c0-6.6 5.4-12 12-12h80.5m0-6H216c-9.9 0-18 8.1-18 18v49.8c0 9.9 8.1 18 18 18h80.5c9.9 0 18-8.1 18-18v-49.8c0-10-8-18-18-18z"  /></svg>