<?xml version="1.0" standalone="no"?><!DOCTYPE svg PUBLIC "-//W3C//DTD SVG 1.1//EN" "http://www.w3.org/Graphics/SVG/1.1/DTD/svg11.dtd"><svg class="icon" width="200px" height="200.00px" viewBox="0 0 1024 1024" version="1.1" xmlns="http://www.w3.org/2000/svg"><path d="M511 871.5c-85.6 0-168.6-30.5-233.6-85.8-3.8-3.2-4.2-8.9-1-12.7 3.2-3.8 8.9-4.2 12.7-1 128.6 109.5 315.3 109.5 443.9 0 3.8-3.2 9.5-2.8 12.7 1 3.2 3.8 2.8 9.5-1 12.7-65.1 55.3-148.1 85.8-233.7 85.8z m268.1-124.1c-2.1 0-4.1-0.7-5.8-2.1-3.8-3.2-4.2-8.9-1-12.7 109.5-128.6 109.5-315.3 0-443.9-3.2-3.8-2.8-9.5 1-12.7 3.8-3.2 9.5-2.8 12.7 1 55.3 65 85.8 148 85.8 233.6S841.3 679.3 786 744.3c-1.8 2-4.3 3.1-6.9 3.1z m-536.3 0c-2.5 0-5.1-1.1-6.9-3.2-55.3-65-85.8-148-85.8-233.6S180.6 342 235.9 277c3.2-3.8 8.9-4.2 12.7-1 3.8 3.2 4.2 8.9 1 12.7-109.5 128.6-109.5 315.3 0 443.9 3.2 3.8 2.8 9.5-1 12.7-1.6 1.4-3.7 2.1-5.8 2.1z m495.9-495.9c-2.1 0-4.1-0.7-5.8-2.1-128.6-109.5-315.3-109.5-443.9 0-3.8 3.2-9.5 2.8-12.7-1-3.2-3.8-2.8-9.5 1-12.7 65-55.3 148-85.8 233.6-85.8s168.6 30.5 233.6 85.8c3.8 3.2 4.2 8.9 1 12.7-1.7 2-4.2 3.1-6.8 3.1z" fill="#330867" /><path d="M302.4 535.3c0-115.2 93.4-208.6 208.6-208.6s208.6 93.4 208.6 208.6" fill="#F0BEFC" /><path d="M719.6 544.3c-5 0-9-4-9-9 0-110.1-89.5-199.6-199.6-199.6s-199.6 89.5-199.6 199.6c0 5-4 9-9 9s-9-4-9-9c0-58.1 22.6-112.8 63.7-153.9s95.7-63.7 153.9-63.7 112.8 22.6 153.9 63.7c41.1 41.1 63.7 95.7 63.7 153.9 0 5-4.1 9-9 9z" fill="#330867" /><path d="M83.9 433.8s22.7 67.8 39.7 67.8H898.3c17 0 39.7-67.8 39.7-67.8H83.9z m278 219.1H660c17 0 39.7-67.8 39.7-67.8H322.2s22.7 67.8 39.7 67.8z m-134.6-75.7h567.3c17 0 39.7-67.8 39.7-67.8H187.6s22.7 67.8 39.7 67.8z" fill="#FFE08A" /><path d="M660 661.9H361.9c-11.3 0-21.9-12.1-34.4-39.1-7.9-17.2-13.6-34.1-13.8-34.8-0.2-0.6-0.3-1.1-0.4-1.7h-86.1c-11.3 0-21.9-12.1-34.4-39.1-7.9-17.2-13.6-34.1-13.8-34.8-0.2-0.6-0.3-1.1-0.4-1.7h-55.1c-11.3 0-21.9-12.1-34.4-39.1-7.9-17.2-13.6-34.1-13.8-34.8-0.9-2.7-0.5-5.8 1.2-8.1s4.4-3.7 7.3-3.7H938c2.9 0 5.6 1.4 7.3 3.7s2.1 5.4 1.2 8.1c-0.2 0.7-5.9 17.6-13.8 34.8-12.4 27.1-23.1 39.1-34.4 39.1h-55.1c-0.1 0.6-0.2 1.1-0.4 1.7-0.2 0.7-5.9 17.6-13.8 34.8-12.5 27.1-23.1 39.1-34.4 39.1h-86.1c-0.1 0.6-0.2 1.1-0.4 1.7-0.2 0.7-5.9 17.6-13.8 34.8-12.4 27-23 39.1-34.3 39.1z m-297.6-18z m-0.1 0h297.3c1-0.5 7.7-4.8 19.5-30.9 3-6.8 5.7-13.5 7.8-18.9H335.1c2.1 5.4 4.8 12.2 7.8 19 11.7 26 18.4 30.2 19.4 30.8z m431.8-75.6z m-566.3 0z m-0.1-0.1h566.6c1-0.5 7.7-4.8 19.4-30.8 3.1-6.8 5.8-13.5 7.8-19H200.4c2.1 5.4 4.8 12.2 7.8 19 11.8 26 18.4 30.3 19.5 30.8z m670.1-75.5z m-773.7 0z m-0.1-0.1h774c1-0.5 7.7-4.8 19.4-30.8 3.1-6.8 5.8-13.5 7.8-19H96.7c2.1 5.4 4.8 12.2 7.8 19 11.8 26 18.4 30.3 19.5 30.8z" fill="#330867" /><path d="M511 535.3m-133.7 0a133.7 133.7 0 1 0 267.4 0 133.7 133.7 0 1 0-267.4 0Z" fill="#FFFFFF" /><path d="M511 410.6c68.9 0 124.7 55.8 124.7 124.7S579.8 660 511 660c-68.9 0-124.7-55.8-124.7-124.7S442.1 410.6 511 410.6m0-18c-38.1 0-74 14.8-100.9 41.8-27 27-41.8 62.8-41.8 100.9s14.8 74 41.8 100.9c27 27 62.8 41.8 100.9 41.8s74-14.8 100.9-41.8c27-27 41.8-62.8 41.8-100.9s-14.8-74-41.8-100.9c-27-26.9-62.8-41.8-100.9-41.8z" fill="#330867" /><path d="M557.5 608.7c-1.4 0-2.9-0.3-4.2-1L511 585.5l-42.3 22.2c-1.3 0.7-2.8 1-4.2 1-1.9 0-3.7-0.6-5.3-1.7-2.8-2-4.2-5.4-3.6-8.8l8.1-47.1-34.2-33.4c-2.5-2.4-3.3-6-2.3-9.2s3.9-5.6 7.3-6.1l47.3-6.9 21.2-42.9c1.5-3.1 4.6-5 8.1-5 3.4 0 6.6 1.9 8.1 5l21.2 42.9 47.3 6.9c3.4 0.5 6.2 2.9 7.3 6.1s0.2 6.8-2.3 9.2l-34.2 33.4 8.1 47.1c0.6 3.4-0.8 6.8-3.6 8.8-1.8 1.2-3.7 1.7-5.5 1.7z" fill="#FC6B79" /><path d="M511 456.6l23.3 47.1 52 7.6-37.6 36.7 8.9 51.8-46.6-24.5-46.5 24.4 8.9-51.8-37.6-36.7 52-7.6 23.2-47m0-18c-6.9 0-13.1 3.9-16.1 10l-19.1 38.6-42.6 6.2c-6.8 1-12.4 5.7-14.5 12.3-2.1 6.5-0.4 13.7 4.6 18.5l30.8 30.1-7.3 42.5c-1.2 6.8 1.6 13.6 7.2 17.6 3.1 2.3 6.8 3.4 10.6 3.4 2.9 0 5.7-0.7 8.4-2.1l38.1-20 38.1 20c2.6 1.4 5.5 2.1 8.4 2.1 3.7 0 7.4-1.2 10.6-3.4 5.5-4 8.3-10.9 7.2-17.6l-7.3-42.5 30.8-30.1c4.9-4.8 6.7-11.9 4.6-18.5-2.1-6.5-7.8-11.3-14.5-12.3l-42.6-6.2-19.1-38.6c-3.2-6.1-9.5-10-16.3-10z" fill="#330867" /></svg>