<?xml version="1.0" standalone="no"?><!DOCTYPE svg PUBLIC "-//W3C//DTD SVG 1.1//EN" "http://www.w3.org/Graphics/SVG/1.1/DTD/svg11.dtd"><svg class="icon" width="200px" height="200.00px" viewBox="0 0 1024 1024" version="1.1" xmlns="http://www.w3.org/2000/svg"><path d="M396.2 483.5h237.1V738H396.2z" fill="#330867" /><path d="M281 915.9c-5 0-9-4-9-9v-153c0-68.6 55.8-124.4 124.4-124.4H633c68.6 0 124.4 55.8 124.4 124.4v153c0 5-4 9-9 9H281z" fill="#66C1FF" /><path d="M633 638.4c63.7 0 115.4 51.7 115.4 115.4v153H281v-153c0-63.7 51.7-115.4 115.4-115.4H633m0-18H396.4c-35.6 0-69.1 13.9-94.3 39.1-25.2 25.2-39.1 58.7-39.1 94.3v153c0 9.9 8.1 18 18 18h467.4c9.9 0 18-8.1 18-18v-153c0-35.6-13.9-69.1-39.1-94.3-25.1-25.2-58.6-39.1-94.3-39.1z" fill="#330867" /><path d="M281.1 868.2h467.3v38.7H281.1z" fill="#18A3D3" /><path d="M573.6 638.7l-58.9 106.6-58.8-106.6V490.9h117.7z" fill="#EAB236" /><path d="M587 307.8l-72.2-6.2-72.2 6.2c-1.5 0.9-121.4 161.5 0 256.3 28.7 24.2 32.6 38.5 72.2 39.8 39.7-1.2 43.6-15.5 72.2-39.8 121.3-94.7 1.5-255.4 0-256.3z" fill="#FFE08A" /><path d="M690.8 642.6c-29.2-100.9-9.9-110.7-0.6-250.8C699.5 251.7 593 211 514.7 211s-184.8 40.7-175.5 180.8c9.3 140.1 28.6 150-0.6 250.8-29.2 100.9 0 94.9 0 94.9l69.9 43.2c8.9 5.5 20.5-1.1 19.9-11.4-2.6-44.4-29.3-136.7-24.9-174.8 4.3-36.9-7.4-186.6-7.4-186.6s57.9-5 100.7-33.9c48.3-32.6 38.4-71.2 44.1-70.1 138 25.1 67.9 220.6 63.9 283-2.2 35.1-1.3 137.9-3.8 182.4-0.6 10.3 11 16.9 19.9 11.4l69.9-43.2s29.2 6 0-94.9z" fill="#330867" /><path d="M573 738.7c-0.5-0.4-1.2-0.7-1.9-0.7h-0.2l-51 3.8 53.6-102 30.2 123.7-30.7-24.8z" fill="#F7D7FF" /><path d="M572.4 648.3l26.2 107.3-23.7-19.2c-1.1-0.9-2.4-1.3-3.8-1.3h-0.4l-45.6 3.4 47.3-90.2m2.1-16.9l-59.8 113.8 56.4-4.2 37.6 30.4-34.2-140z" fill="#330867" /><path d="M456 639.9l53.6 102-51-3.8h-0.2c-0.7 0-1.4 0.2-1.9 0.7l-30.6 24.8L456 639.9z" fill="#F7D7FF" /><path d="M457 648.3l47.4 90.2-45.6-3.4h-0.4c-1.4 0-2.7 0.5-3.8 1.3l-23.7 19.2L457 648.3m-2-16.9l-34.1 140 37.6-30.4 56.4 4.2L455 631.4z" fill="#330867" /><path d="M520.6 291.6c-1.6 0-3.6 0-5.9-0.1-2.3 0.1-4.2 0.1-5.9 0.1-0.5 0-1-0.1-1.5-0.4-18-0.9-91.7-5.9-112.5-27.4-0.5-0.5-0.8-1.1-0.8-1.8-4.5-46.8 9.4-86.3 21.9-111.2 13.3-26.5 29.6-45.5 35-46.9 0.3-0.1 0.7-0.1 1.1-0.1 6.1 0 51 18.3 62.7 23.1 11.7-4.8 56.6-23.1 62.8-23.1 0.4 0 0.7 0 1.1 0.1 5.3 1.4 21.6 20.4 35 46.9 12.5 24.9 26.4 64.3 21.9 111.2-0.1 0.7-0.4 1.3-0.8 1.8-20.8 21.5-94.5 26.5-112.5 27.4-0.6 0.3-1.1 0.4-1.6 0.4z" fill="#66C1FF" /><path d="M577.5 106.7h0.3c6.8 1.8 63.1 67.6 54.6 154.9-18 18.6-81.2 25.2-111.8 26.6v0.3c-1.6 0-3.6 0-5.9-0.1-2.2 0.1-4.2 0.1-5.9 0.1v-0.3c-30.6-1.4-93.8-8-111.8-26.6-8.5-87.3 47.8-153.1 54.6-154.9h0.3c6.1 0 62.7 23.4 62.7 23.4s56.8-23.4 62.9-23.4m-125.5-6c-0.7 0-1.3 0.1-1.8 0.2-3.5 0.9-8.8 5.9-15.8 14.8-5.3 6.7-13.2 18-21.1 33.7-12.7 25.2-26.8 65.2-22.2 112.8 0.1 1.4 0.7 2.6 1.7 3.6 8.8 9.1 27.1 16.3 54.4 21.5 24.3 4.6 48.5 6.3 59.5 6.8 0.7 0.3 1.5 0.4 2.2 0.4 1.6 0 3.6 0 5.9-0.1 2.3 0.1 4.2 0.1 5.9 0.1 0.8 0 1.5-0.1 2.2-0.4 11-0.6 35.3-2.3 59.5-6.8 27.3-5.2 45.6-12.4 54.4-21.5 0.9-1 1.5-2.2 1.7-3.6 4.6-47.6-9.5-87.6-22.2-112.8-7.9-15.7-15.8-27-21.1-33.7-7-8.9-12.3-13.9-15.8-14.8-0.6-0.2-1.2-0.2-1.8-0.2-1.8 0-4.9 0-35.8 12.1-11.3 4.4-22.3 8.9-26.9 10.8-4.6-1.9-15.6-6.4-26.9-10.8-31.1-12.1-34.2-12.1-36-12.1z" fill="#330867" /><path d="M577.8 106.8c-2.9-0.8-35.3 12.1-52.5 19-6.7 2.7-14.4 2.7-21.1 0-17.2-6.9-49.6-19.8-52.5-19-2.6 0.7 38.1 31.2 55.4 44.1 4.5 3.3 10.8 3.3 15.3 0 17.4-12.9 58.2-43.4 55.4-44.1z" fill="#18A3D3" /><path d="M514.7 202.9c-5.7 0-11.5-1.5-16.5-4.6l-78.9-48 3.1-5.1 78.9 48c8.1 4.9 18.6 4.9 26.8 0l78.9-48 3.1 5.1-78.9 48c-5 3.1-10.7 4.6-16.5 4.6z" fill="#330867" /><path d="M573.6 603.9c-20.5 23.4-98.7 25.3-109.9 3.5-2.6-5.1-5.3-7.3-7.9-7.5V628c0.9 2.2-14.7-0.4-5.2 10.6-6.2 1.9-49.9 16.1-62.5 38.5 0 0 9.9-10.3 34.7-10.3 7.3 0 14.6-0.8 21.4-1.9-4.3 3.6-9 10.5-14.9 23.7-15.7 35.1-33.2 34.6-33.2 34.6s62.2 17.8 71.6-21.8c9.4-39.6 32.4-39.9 32.4-39.9 37 14.6 74.4-30.1 74.4-30.1l-0.9-27.5z" fill="#FC6B79" /><path d="M573.6 603.9l0.9 27.5s-37.4 44.7-74.4 30.1c0 0-23 0.3-32.4 39.9-9.4 39.6-71.6 21.8-71.6 21.8s10.9 0.4 23.2-16.8c-5.9 25.1 42 15.4 44.5-29.7 1.3-23.3 17.5-32.2 63.6-31.8 17.6 0.1 46.2-41 46.2-41z" fill="#DD365E" /></svg>