<?xml version="1.0" standalone="no"?><!DOCTYPE svg PUBLIC "-//W3C//DTD SVG 1.1//EN" "http://www.w3.org/Graphics/SVG/1.1/DTD/svg11.dtd"><svg class="icon" width="200px" height="200.00px" viewBox="0 0 1024 1024" version="1.1" xmlns="http://www.w3.org/2000/svg"><path d="M225.4 704.9c-27.9 0-50.8-17.5-70-53.4-26.9-49.8-40.6-103.4-40.6-159.3 0-49 10.6-96.6 31.5-141.3 20.2-43.2 49.1-81.9 85.8-115.2 36.7-33.2 79.4-59.3 127-77.5 49.2-18.8 101.4-28.4 155.3-28.4 53.8 0 106.1 9.5 155.3 28.4 47.6 18.2 90.3 44.3 127 77.5 36.8 33.3 65.6 72 85.8 115.2 20.9 44.8 31.5 92.3 31.5 141.3 0 57.9-15.4 115.6-44.7 166.7l-0.2 0.4-0.3 0.4c-19.2 27.1-41.4 40.2-67.9 40.2-40.4 0-83.6-31.6-129.4-65-51.2-37.4-104.2-76.1-158-76.1-62.9 0-120.5 44.5-171.4 83.8-43.3 33.4-80.7 62.3-116.7 62.3z" fill="#F7D7FF" /><path d="M514.4 138.9c215.7 0 390.6 158.2 390.6 353.3 0 58.5-15.7 113.6-43.5 162.2-18.5 26.1-38.8 36.4-60.5 36.4-80.5 0-181.3-141-287.4-141-118.3 0-213.7 146.1-288.1 146.1-22.6 0-43.3-13.5-62.1-48.6-25.3-46.8-39.5-99.4-39.5-155.1-0.1-195.1 174.8-353.3 390.5-353.3m0-18c-54.9 0-108.3 9.7-158.5 29-48.6 18.6-92.3 45.2-129.8 79.2-37.7 34.1-67.2 73.8-87.9 118-21.5 46-32.4 94.8-32.4 145.2 0 28.8 3.6 57.5 10.8 85.4 7 27 17.4 53.3 30.8 78.3 10.4 19.5 21.8 33.7 34.6 43.3 13 9.8 27.6 14.7 43.3 14.7 18.4 0 38.1-6.6 61.8-20.9 19.4-11.7 39.4-27.1 60.5-43.4 49.7-38.4 106.1-81.9 165.9-81.9 50.9 0 102.6 37.8 152.7 74.3 47 34.3 91.4 66.7 134.7 66.7 29.2 0 54.5-14.8 75.2-44l0.5-0.7 0.4-0.8c14.8-25.9 26.2-53.3 33.9-81.6 7.9-29.1 12-59.3 12-89.5 0-50.4-10.9-99.2-32.4-145.2-20.7-44.3-50.3-84-87.9-118-37.5-33.9-81.2-60.6-129.8-79.2-50.1-19.2-103.5-28.9-158.4-28.9z" fill="#330867" /><path d="M127.9 543.2c-2.2-14 15.3-22.2 24.5-11.4 112.7 131 189.7-84.4 389.1-84.4 202.7 0 241.4 157.6 343 65.8 7.8-7 20-0.8 19 9.6-4.5 47.1-19.1 91.6-42 131.6-87.1 122.9-213.1-104.6-348-104.6-154.2 0-269.5 248.3-350.2 97.5-17.4-32.3-29.6-67.3-35.4-104.1z" fill="#F0BEFC" /><path d="M787.2 509.9m-64.8 0a64.8 64.8 0 1 0 129.6 0 64.8 64.8 0 1 0-129.6 0Z" fill="#FC6B79" /><path d="M787.2 454c30.8 0 55.8 25 55.8 55.8s-25 55.8-55.8 55.8c-30.8 0-55.8-25-55.8-55.8s25-55.8 55.8-55.8m0-18c-40.8 0-73.8 33.1-73.8 73.8 0 40.8 33.1 73.8 73.8 73.8s73.8-33.1 73.8-73.8c0.1-40.7-33-73.8-73.8-73.8z" fill="#330867" /><path d="M700.1 403.5c-35.8 0-64.8-29.1-64.8-64.8s29.1-64.8 64.8-64.8c35.8 0 64.8 29.1 64.8 64.8s-29.1 64.8-64.8 64.8z" fill="#FFE08A" /><path d="M700.1 282.8c30.8 0 55.8 25 55.8 55.8s-25 55.8-55.8 55.8c-30.8 0-55.8-25-55.8-55.8s25-55.8 55.8-55.8m0-18c-40.8 0-73.8 33.1-73.8 73.8s33.1 73.8 73.8 73.8 73.8-33.1 73.8-73.8-33.1-73.8-73.8-73.8z" fill="#330867" /><path d="M215.136919 569.749483a64.8 64.8 0 1 0 49.595772-119.734787 64.8 64.8 0 1 0-49.595772 119.734787Z" fill="#F255FF" /><path d="M239.9 454c30.8 0 55.8 25 55.8 55.8s-25 55.8-55.8 55.8-55.8-25-55.8-55.8 25-55.8 55.8-55.8m0-18c-40.8 0-73.8 33.1-73.8 73.8 0 40.8 33.1 73.8 73.8 73.8s73.8-33.1 73.8-73.8c0-40.7-33-73.8-73.8-73.8z" fill="#330867" /><path d="M316.6704 402.566469a64.8 64.8 0 1 0 20.763025-127.925982 64.8 64.8 0 1 0-20.763025 127.925982Z" fill="#5ED357" /><path d="M327.1 282.8c30.8 0 55.8 25 55.8 55.8s-25 55.8-55.8 55.8-55.8-25-55.8-55.8 25-55.8 55.8-55.8m0-18c-40.8 0-73.8 33.1-73.8 73.8s33.1 73.8 73.8 73.8 73.8-33.1 73.8-73.8-33-73.8-73.8-73.8z" fill="#330867" /><path d="M467.760543 311.199671a64.8 64.8 0 1 0 91.63944-91.642639 64.8 64.8 0 1 0-91.63944 91.642639Z" fill="#66C1FF" /><path d="M513.6 209.6c30.8 0 55.8 25 55.8 55.8s-25 55.8-55.8 55.8-55.8-25-55.8-55.8 25-55.8 55.8-55.8m0-18c-40.8 0-73.8 33.1-73.8 73.8s33.1 73.8 73.8 73.8 73.8-33.1 73.8-73.8-33.1-73.8-73.8-73.8z" fill="#330867" /><path d="M469.9 513.8c-19.8 0-36-16.1-36-36V475c0-19.8 16.1-36 36-36h87.3c19.8 0 36 16.1 36 36v2.8c0 19.8-16.1 36-36 36h-87.3z" fill="#FFFFFF" /><path d="M557.2 442c18.2 0 33 14.8 33 33v2.8c0 18.2-14.8 33-33 33h-87.3c-18.2 0-33-14.8-33-33V475c0-18.2 14.8-33 33-33h87.3m0-6h-87.3c-21.5 0-39 17.5-39 39v2.8c0 21.5 17.5 39 39 39h87.3c21.5 0 39-17.5 39-39V475c0-21.5-17.5-39-39-39z" fill="#330867" /><path d="M500.6 622.9c-2.6 0-5.1-1.1-6.9-3.2-23.9-28.1-36.7-58.9-37.1-89-0.3-26.1 8.6-51 25.2-70.1 1.7-2 4.2-3.1 6.8-3.1 0.6 0 1.1 0.1 1.7 0.2 3.2 0.6 5.8 2.9 6.8 5.9 6.2 18.2 17.4 24.9 30.3 32.5 20.5 12.1 43.6 25.9 44.6 83.8 0.1 3.4-1.8 6.5-4.7 8.1l-62.4 33.9c-1.4 0.7-2.9 1-4.3 1z" fill="#F7D7FF" /><path d="M488.6 466.5c17.9 52.5 73 24.3 74.4 113.6-30.9 16.8-21.8 11.8-62.4 33.9-49.3-58-40-115.1-12-147.5m0-18c-5.2 0-10.2 2.2-13.6 6.2-18 20.8-27.7 47.9-27.4 76.1 0.4 32.3 14 65 39.3 94.7 3.5 4.1 8.6 6.3 13.7 6.3 2.9 0 5.9-0.7 8.6-2.2l36.7-19.9 25.7-13.9c5.9-3.2 9.5-9.4 9.4-16.1-0.4-27.7-5.6-47.9-16.2-63.4-9.7-14.3-22-21.6-32.8-28-12.3-7.3-21.3-12.6-26.4-27.7-2.1-6.1-7.3-10.6-13.6-11.9-1.1-0.1-2.3-0.2-3.4-0.2z" fill="#330867" /><path d="M488.6 466.5c-22.7 70 47.8 128 12 147.4-49.3-57.9-40-115-12-147.4z" fill="#F0BEFC" /><path d="M681.6 902.5c-10.2 0-19.8-5.4-25-14.1L498.2 625.1c-1.3-2.1-1.6-4.6-1-7 0.6-2.4 2.2-4.4 4.4-5.5l59.4-32.2c1.3-0.7 2.8-1.1 4.3-1.1 0.9 0 1.9 0.1 2.7 0.4 2.3 0.8 4.3 2.4 5.3 4.6l134.4 276.2c6.8 14.1 1.4 30.9-12.3 38.4-4.2 2.4-9 3.6-13.8 3.6z" fill="#FFE08A" /><path d="M565.3 588.3l134.4 276.2c4.7 9.7 1 21.4-8.5 26.6-3.1 1.7-6.4 2.4-9.6 2.4-6.9 0-13.5-3.5-17.3-9.8L506 620.5l59.3-32.2m0-18c-3 0-5.9 0.7-8.6 2.2l-59.4 32.2c-4.3 2.3-7.5 6.3-8.8 11.1-1.3 4.7-0.6 9.8 1.9 14L648.9 893c6.9 11.4 19.4 18.5 32.7 18.5 6.3 0 12.6-1.6 18.2-4.6 18-9.8 25.1-31.8 16.1-50.3L581.5 580.4c-2.1-4.4-6-7.8-10.7-9.3-1.8-0.6-3.6-0.8-5.5-0.8z" fill="#330867" /><path d="M506 620.5l59.3-32.2 11.7 24-56.8 31.8z" fill="#EAB236" /></svg>