<?xml version="1.0" standalone="no"?><!DOCTYPE svg PUBLIC "-//W3C//DTD SVG 1.1//EN" "http://www.w3.org/Graphics/SVG/1.1/DTD/svg11.dtd"><svg class="icon" width="200px" height="200.00px" viewBox="0 0 1024 1024" version="1.1" xmlns="http://www.w3.org/2000/svg"><path d="M513.8 633.6c-34.2 0-62-27.8-62-62s27.8-62 62-62 62 27.8 62 62-27.8 62-62 62z" fill="#F7D7FF" /><path d="M513.8 518.6c29.3 0 53 23.7 53 53s-23.7 53-53 53-53-23.7-53-53 23.8-53 53-53m0-18c-39.1 0-71 31.8-71 71s31.8 71 71 71 71-31.8 71-71-31.8-71-71-71z" fill="#330867" /><path d="M566.8 571.6c0 29.3-23.7 53-53 53s-53-23.7-53-53c21.6 21.6 22.2 28.9 51.5 28.9s25.9-0.3 54.5-28.9z" fill="#F0BEFC" /><path d="M513.8 845c-32.2 0-59.1-24.1-62.6-56.1l-11.3-77.5c-10.2-5.1-19.6-11.3-28.1-18.4-28.8-24.1-44.7-56.5-45-91.3-0.1-16.8 13.1-30.6 29.5-30.8h0.3c16.5 0 29.9 13.4 29.9 29.9 0 37.5 39.1 68.1 87.2 68.1s87.2-30.5 87.2-68.1c0-16.5 13.4-29.9 29.9-29.9h0.3c16.4 0.2 29.7 14 29.5 30.8-0.3 34.8-16.2 67.3-45 91.3-8.5 7.1-17.9 13.3-28.1 18.4l-11.3 77.5c-3.3 32-30.2 56.1-62.4 56.1z" fill="#66C1FF" /><path d="M396.7 579.9c11.5 0 20.9 9.3 20.9 20.9 0 42.5 43.2 77.1 96.2 77.1s96.2-34.6 96.2-77.1c0-11.5 9.3-20.9 20.9-20.9h0.2c11.5 0.1 20.7 10.1 20.6 21.7-0.2 32.2-15.1 62.1-41.8 84.5-9.2 7.7-19.5 14.2-30.5 19.3l-12 82.3c-2.9 27.4-26.1 48.2-53.7 48.2S463 815.1 460 787.7l-12-82.3c-11-5.1-21.3-11.6-30.5-19.3-26.7-22.4-41.5-52.3-41.8-84.5-0.1-11.5 9.1-21.6 20.6-21.7h0.4m234.2-18c-21.4 0-38.9 17.4-38.9 38.9 0 15-7.6 29.4-21.5 40.4-15 12-35.2 18.7-56.7 18.7-21.6 0-41.7-6.6-56.7-18.7-13.8-11.1-21.5-25.5-21.5-40.4 0-21.4-17.4-38.9-38.9-38.9h-0.4c-21.4 0.2-38.6 18.1-38.4 39.8 0.3 37.5 17.4 72.4 48.2 98.2 7.9 6.6 16.4 12.4 25.6 17.4l10.6 72.8c4.1 36.5 34.8 63.9 71.5 63.9s67.4-27.5 71.5-63.9l10.6-72.8c9.2-5 17.8-10.8 25.6-17.4 30.8-25.8 47.9-60.6 48.2-98.2 0.2-21.7-17.1-39.6-38.4-39.8h-0.4z" fill="#330867" /><path d="M579.5 705.4l-12 82.3c-2.9 27.4-26.1 48.2-53.7 48.2s-50.7-20.8-53.7-48.2l-12-82.3c0.1 107.9 131.4 107.9 131.4 0z" fill="#18A3D3" /><path d="M639 411.2c-22.1 0-42.7-11.9-53.7-31-8.3-14.3-10.5-31-6.2-47s14.5-29.4 28.9-37.6c9.4-5.4 20.1-8.3 30.9-8.3 22.1 0 42.7 11.9 53.7 31 8.3 14.3 10.5 31 6.2 47s-14.5 29.4-28.9 37.6c-9.4 5.4-20.1 8.3-30.9 8.3z" fill="#F7D7FF" /><path d="M638.9 296.2c18.3 0 36.1 9.5 45.9 26.5 14.6 25.3 5.9 57.8-19.4 72.4-8.3 4.8-17.5 7.1-26.4 7.1-18.3 0-36.1-9.5-45.9-26.5-14.6-25.3-5.9-57.8 19.4-72.4 8.3-4.8 17.4-7.1 26.4-7.1m0-18v18-18c-12.4 0-24.7 3.3-35.5 9.5-33.9 19.6-45.6 63.1-26 97 12.6 21.9 36.2 35.5 61.5 35.5 12.4 0 24.7-3.3 35.4-9.5 33.9-19.6 45.6-63.1 26-97-12.5-21.9-36.1-35.5-61.4-35.5z" fill="#330867" /><path d="M612.4 303.3c25.3-14.6 57.8-5.9 72.4 19.4s5.9 57.8-19.4 72.4c7.9-29.5 13.9-33.7-0.8-59.1-14.6-25.3-13.1-22.2-52.2-32.7z" fill="#F0BEFC" /><path d="M722.8 465.7c-10.6 0-20.5-5.5-25.8-14.4-4.1-6.9-5.2-15-3.2-22.8 2-7.8 7-14.3 14-18.3 15.4-8.9 25.6-25 28.7-45.2 3.2-21-1.5-43.9-13.3-64.3-17.1-29.6-46.4-48.8-74.7-48.8-10.1 0-19.5 2.4-27.9 7.3-4.5 2.6-9.7 4-14.9 4-10.8 0-20.8-5.8-26.1-15.2-8-14.3-2.7-32.7 11.9-40.9 17.4-9.9 36.5-14.9 56.8-14.9 14.9 0 30 2.8 44.8 8.2 10.4 3.8 20.5 8.9 30 15.1l72.7-29c8-3.5 16.6-5.3 25.3-5.3 22.4 0 43.4 12.1 54.6 31.5 16.1 27.9 8.7 63.2-17.3 82.3l-61.5 48.5c0.6 11.4 0 22.6-1.9 33.6-6.5 36.9-26.6 67-56.6 84.6-4.7 2.5-10.1 4-15.6 4z" fill="#FC6B79" /><path d="M821.1 190c18.8 0 36.9 9.8 46.8 27 13.8 23.9 7.4 54.3-14.9 70.6l-65.3 51.5c1.1 12.1 0.6 24.3-1.5 36.1-6 34.3-24.6 62.1-52.3 78.4-3.4 2-7.3 3-11 3-7.2 0-14.2-3.5-18.1-10-5.9-10-2.5-22.9 7.5-28.7C749.1 396.6 757.5 342 731 296c-19.3-33.5-52-53.3-82.5-53.3-11.3 0-22.4 2.7-32.4 8.5-3.3 1.9-6.9 2.8-10.4 2.8-7.3 0-14.4-3.8-18.2-10.7-5.7-10.1-1.6-23 8.5-28.7 16.1-9.1 33.9-13.7 52.3-13.7 13.7 0 27.8 2.5 41.7 7.6 11.3 4.1 22 9.8 32 16.8l77.3-30.8c7-3 14.5-4.5 21.8-4.5m0-18v18-18c-9.9 0-19.6 2-28.8 6L724 205.3c-8.9-5.5-18.2-10-27.9-13.5-15.8-5.8-32-8.7-47.9-8.7-21.9 0-42.5 5.4-61.2 16-18.9 10.7-25.7 34.6-15.3 53.2 6.9 12.2 19.9 19.8 33.9 19.8 6.8 0 13.5-1.8 19.4-5.2 7-4 14.8-6.1 23.4-6.1 25.1 0 51.4 17.4 66.9 44.3 10.8 18.7 15.1 39.5 12.2 58.5-2.7 17.5-11.3 31.3-24.3 38.8-9.1 5.2-15.5 13.7-18.2 23.8-2.7 10.1-1.2 20.7 4.2 29.7 6.9 11.6 19.7 18.8 33.5 18.8 7.1 0 14.1-1.9 20.2-5.5 32.3-19 54-51.3 60.9-90.8 1.8-10.1 2.5-20.4 2.2-30.9l57.7-45.6c29.5-21.8 38-62.1 19.6-93.9-12.7-22.2-36.6-36-62.2-36z" fill="#330867" /><path d="M722 225.4l77.3-30.8c25.2-11.2 54.8-1.5 68.6 22.4 13.8 23.9 7.4 54.3-14.9 70.6l-65.3 51.5c93.3-53.9 27.7-167.6-65.7-113.7z" fill="#DD365E" /><path d="M383.7 414.1c-10.8 0-21.5-2.9-30.9-8.3-29.6-17.1-39.8-55.1-22.7-84.7 11-19.1 31.6-31 53.7-31 10.8 0 21.5 2.9 30.9 8.3 14.3 8.3 24.6 21.6 28.9 37.6 4.3 16 2.1 32.7-6.2 47-11 19.2-31.6 31.1-53.7 31.1z" fill="#F7D7FF" /><path d="M383.8 299.1c9 0 18.1 2.3 26.4 7.1 25.3 14.6 34 47 19.4 72.4-9.8 17-27.6 26.5-45.9 26.5-9 0-18.1-2.3-26.4-7.1-25.3-14.6-34-47-19.4-72.4 9.8-17 27.6-26.5 45.9-26.5m0-18v18-18c-25.3 0-48.9 13.6-61.5 35.5-19.6 33.9-7.9 77.4 26 97 10.8 6.2 23 9.5 35.4 9.5 25.3 0 48.9-13.6 61.5-35.5 19.6-33.9 7.9-77.4-26-97-10.7-6.2-23-9.5-35.4-9.5z" fill="#330867" /><path d="M357.3 398c-25.3-14.6-34-47-19.4-72.4s47-34 72.4-19.4c-29.5 7.9-36.1 4.8-50.8 30.2-14.6 25.3-12.7 22.5-2.2 61.6z" fill="#F0BEFC" /><path d="M299.8 468.6c-5.5 0-10.9-1.5-15.6-4.2-30-17.6-50.1-47.7-56.6-84.6-1.9-10.9-2.6-22.2-1.9-33.6l-61.5-48.5c-25.9-19-33.4-54.4-17.3-82.3 11.2-19.4 32.1-31.5 54.6-31.5 8.7 0 17.3 1.8 25.3 5.3l72.7 29c9.5-6.2 19.6-11.3 30-15.1 14.8-5.4 29.9-8.2 44.8-8.2 20.3 0 39.4 5 56.8 14.9 14.6 8.3 19.9 26.6 11.9 41-5.3 9.4-15.3 15.2-26.1 15.2-5.2 0-10.4-1.4-14.9-4-8.4-4.8-17.7-7.3-27.9-7.3-28.3 0-57.6 19.1-74.7 48.8-24 41.6-17.2 90.8 15.4 109.6 7 4 11.9 10.5 14 18.3 2 7.8 0.9 15.9-3.2 22.8-5.2 8.8-15.1 14.4-25.8 14.4z" fill="#FFE08A" /><path d="M201.6 192.9c7.3 0 14.7 1.5 21.8 4.6l77.3 30.8c10-7 20.7-12.7 32-16.8 13.9-5.1 28-7.6 41.7-7.6 18.5 0 36.3 4.6 52.3 13.7 10 5.7 14.1 18.6 8.5 28.7-3.8 6.8-10.9 10.7-18.2 10.7-3.5 0-7.1-0.9-10.4-2.8-10-5.8-21-8.5-32.4-8.5-30.5 0-63.2 19.8-82.5 53.3-26.5 45.9-18.2 100.6 18.7 121.9 10.1 5.8 13.5 18.7 7.5 28.7-3.9 6.5-10.9 10-18.1 10-3.8 0-7.6-1-11-3-27.7-16.3-46.3-44.1-52.3-78.4-2.1-11.8-2.5-24-1.5-36.1l-65.3-51.5c-22.3-16.3-28.7-46.7-14.9-70.6 9.9-17.3 28-27.1 46.8-27.1m0-18c-25.7 0-49.6 13.8-62.4 36-18.4 31.8-9.9 72.1 19.6 93.9l57.7 45.6c-0.3 10.4 0.5 20.8 2.2 30.9 6.9 39.6 28.5 71.8 60.9 90.8 6.1 3.6 13.1 5.5 20.2 5.5 13.8 0 26.7-7.2 33.5-18.8 5.3-9 6.8-19.5 4.2-29.7-2.7-10.1-9.1-18.6-18.2-23.8-13-7.5-21.6-21.3-24.3-38.8-2.9-19 1.4-39.8 12.2-58.5 15.5-26.9 41.8-44.3 66.9-44.3 8.5 0 16.4 2 23.4 6.1 5.9 3.4 12.6 5.2 19.4 5.2 14 0 27-7.6 33.9-19.8 10.5-18.6 3.6-42.5-15.3-53.2-18.8-10.6-39.4-16-61.2-16-15.9 0-32.1 2.9-47.9 8.7-9.6 3.5-19 8-27.9 13.5L230.2 181c-9-4.1-18.7-6.1-28.6-6.1z" fill="#330867" /><path d="M235 342l-65.3-51.5c-22.3-16.3-28.7-46.7-14.9-70.6 13.8-23.9 43.4-33.5 68.6-22.4l77.3 30.8c-93.4-53.9-159 59.8-65.7 113.7z" fill="#EAB236" /></svg>