<?xml version="1.0" standalone="no"?><!DOCTYPE svg PUBLIC "-//W3C//DTD SVG 1.1//EN" "http://www.w3.org/Graphics/SVG/1.1/DTD/svg11.dtd"><svg class="icon" width="200px" height="200.00px" viewBox="0 0 1024 1024" version="1.1" xmlns="http://www.w3.org/2000/svg"><path d="M905.7 887H520.5c-25.7 0-46.5-21.1-46.5-47.2v-47.9c0-26.1 20.8-47.2 46.5-47.2h385.2" fill="#FFE08A" /><path d="M905.7 896H520.5c-30.6 0-55.5-25.2-55.5-56.2v-47.9c0-31 24.9-56.2 55.5-56.2h385.2c5 0 9 4 9 9s-4 9-9 9H520.5c-20.7 0-37.5 17.2-37.5 38.2v47.9c0 21.1 16.8 38.2 37.5 38.2h385.2c5 0 9 4 9 9s-4 9-9 9z" fill="#330867" /><path d="M482.3 725.5h385.2c25.7 0 46.5-21.1 46.5-47.2v-47.9c0-26.1-20.8-47.2-46.5-47.2H482.3" fill="#F0BEFC" /><path d="M867.6 734.5H482.3c-5 0-9-4-9-9s4-9 9-9h385.2c20.7 0 37.5-17.2 37.5-38.2v-47.9c0-21.1-16.8-38.2-37.5-38.2H482.3c-5 0-9-4-9-9s4-9 9-9h385.2c30.6 0 55.5 25.2 55.5 56.2v47.9c0.1 31-24.8 56.2-55.4 56.2z" fill="#330867" /><path d="M248.4 623.2s-42.6-491.8 312.5-516c0 0 148.7-16.8 23.9 57.8 0 0 35-1.2 42.6 12.6 7.6 13.8-62.8 27.6-76.1 69.5 53.2-17.7 104.6-1.8-41.2 60.2-137.3 58.5-224.4 123.4-261.7 315.9z" fill="#66C1FF" /><path d="M248.4 632.2h-0.5c-4.5-0.2-8.1-3.7-8.5-8.2-0.2-2.8-5.7-68.3 4.6-153.5 6.1-50.1 16.4-96.5 30.8-137.8 18-52 42.4-96.2 72.5-131.4 53.4-62.3 125-97 212.8-103 2.1-0.2 18.3-1.9 35.4-1.6 28.3 0.5 43.4 6.2 47.3 17.9 4.2 12.3-5.3 26-31.2 44 9.7 2.3 19.2 6.7 23.7 14.8 2.2 4 4.2 11.9-6.6 20.4-4.6 3.6-11.1 7.2-18.6 11.3-13 7.1-29.3 16.1-40.2 28.2 18.7-3.3 38.6-3 43.5 9.9 4.8 12.8-9.7 24.6-21 32.5-16.7 11.5-43.2 25-78.8 40.2-142.1 60.4-220.7 124.9-256.4 309.3-0.8 3.9-4.5 7-8.8 7z m342.9-517.7c-15.3 0-29.2 1.5-29.3 1.6h-0.4c-82.9 5.6-150.4 38.2-200.5 96.8-65.1 76-89.8 183.2-99.1 259.7-3.7 30.2-5.3 58.2-5.8 81.5 18.4-60 44.1-107.1 79-145.2 48.7-53.1 111.2-84.2 171.5-109.8 66.9-28.5 84.1-43.8 88.4-49.2-6.3-1.3-21.7-0.6-40.9 5.8-3.2 1.1-6.8 0.2-9.2-2.1-2.4-2.4-3.3-5.9-2.3-9.1 8.8-27.8 37.7-43.6 58.7-55.2 5.4-3 12.3-6.8 15.9-9.5-5.8-3.9-20.3-6.1-32.2-5.8-4.1 0.1-7.8-2.5-8.9-6.5-1.2-3.9 0.5-8.2 4-10.3 41.9-25 45.2-35.3 45.5-37-0.9-0.9-6.9-5.4-32.4-5.7-0.7 0.1-1.3 0-2 0z" fill="#330867" /><path d="M357.9 636.6H159.3c-14.6 0-26.5-11.9-26.5-26.5v-4c0-14.6 11.9-26.5 26.5-26.5h198.6c14.6 0 26.5 11.9 26.5 26.5v4c0 14.6-11.9 26.5-26.5 26.5z" fill="#DD365E" /><path d="M357.9 645.6H159.3c-19.6 0-35.5-15.9-35.5-35.5v-4c0-19.6 15.9-35.5 35.5-35.5h198.6c19.6 0 35.5 15.9 35.5 35.5v4c0 19.6-16 35.5-35.5 35.5z m-198.6-57.1c-9.7 0-17.5 7.9-17.5 17.5v4c0 9.7 7.9 17.5 17.5 17.5h198.6c9.7 0 17.5-7.9 17.5-17.5v-4c0-9.7-7.9-17.5-17.5-17.5H159.3z" fill="#330867" /><path d="M132 886.8c-18.9 0-34.2-15.3-34.2-34.2v-90.2c0-15.3 8.2-29.7 21.3-37.5l45.6-27.2c0.5-0.3 0.9-0.5 1.4-0.7 13-4.9 21.8-17.6 21.8-31.5v-19.3c0-5 4-9 9-9h123.3c5 0 9 4 9 9v19.3c0 13.9 8.8 26.6 21.8 31.5 0.5 0.2 1 0.4 1.4 0.7l45.6 27.2c13.2 7.8 21.3 22.2 21.3 37.5v90.2c0 18.9-15.3 34.2-34.2 34.2H132z" fill="#FC6B79" /><path d="M320.2 646.2v19.3c0 17.7 11 33.6 27.6 39.9l45.6 27.2a34.74 34.74 0 0 1 16.9 29.8v90.2c0 13.9-11.3 25.2-25.2 25.2H132c-13.9 0-25.2-11.3-25.2-25.2v-90.2c0-12.2 6.4-23.6 16.9-29.8l45.6-27.2c16.6-6.3 27.6-22.1 27.6-39.9v-19.3h123.3m0-18H196.9c-9.9 0-18 8.1-18 18v19.3c0 10.2-6.4 19.5-15.9 23.1-1 0.4-2 0.8-2.9 1.4l-45.6 27.2c-15.9 9.5-25.7 26.8-25.7 45.3v90.2c0 23.8 19.4 43.2 43.2 43.2h253.1c23.8 0 43.2-19.4 43.2-43.2v-90.2c0-18.5-9.9-35.8-25.7-45.3L357 689.9c-0.9-0.5-1.9-1-2.9-1.4-9.5-3.6-15.9-12.9-15.9-23.1v-19.3c0-9.9-8.1-17.9-18-17.9z" fill="#330867" /><path d="M106.8 836.6v15.9c0 13.9 11.3 25.2 25.2 25.2h253.1c13.9 0 25.2-11.3 25.2-25.2v-18.7C309.2 845 208 845.9 106.8 836.6z" fill="#DD365E" /></svg>