<?xml version="1.0" standalone="no"?><!DOCTYPE svg PUBLIC "-//W3C//DTD SVG 1.1//EN" "http://www.w3.org/Graphics/SVG/1.1/DTD/svg11.dtd"><svg class="icon" width="200px" height="200.00px" viewBox="0 0 1024 1024" version="1.1" xmlns="http://www.w3.org/2000/svg"><path d="M863.2 811H164.7l136.5-224.3h425.6z" fill="#F7D7FF" /><path d="M582.3 243.9c-0.2 0-0.5 0-0.7 0.1-3.9-34.8-23.6-61.2-61.4-61.2s-57.5 26.4-61.4 61.2c-0.2 0-0.5-0.1-0.7-0.1-7.2 0-13 8.5-13 19s5.8 19 13 19c0.5 0 1-0.1 1.5-0.1 4.1 29 18.4 49.9 60.6 49.9s56.5-20.8 60.6-49.9c0.5 0.1 1 0.1 1.5 0.1 7.2 0 13-8.5 13-19s-5.8-19-13-19z" fill="#66C1FF" /><path d="M520.2 334.6c-37.4 0-57.5-15.8-63.2-49.8-8.4-0.7-14.9-10.1-14.9-22 0-11.4 6-20.6 14.1-21.8 5.2-38.5 29-61.3 64-61.3s58.8 22.9 64 61.3c8 1.3 14.1 10.4 14.1 21.8 0 11.8-6.5 21.2-14.9 22-5.7 34-25.8 49.8-63.2 49.8z m-58.1-56.3l0.4 3c4.6 32.7 22.4 47.3 57.6 47.3s53-14.6 57.6-47.3l0.4-3 3 0.5c0.4 0.1 0.7 0.1 1 0.1 5.4 0 10-7.3 10-16s-4.6-16-10-16h-0.2l-3.2 0.3-0.3-2.9c-4.2-37.2-25.4-58.6-58.4-58.6-32.9 0-54.2 21.3-58.4 58.6l-0.3 2.9-3.2-0.3h-0.2c-5.4 0-10 7.3-10 16s4.6 16 10 16c0.3 0 0.6 0 1-0.1l3.2-0.5z"  /><path d="M716.8 394.4c-14.5 7.6-42.8 35.1-53.5 45.8-2.1 2.1-5.7 1.6-7.2-0.9-6.7-11.6-35.3-73.9-72.3-81.7-7.3-5.4-16.3-8.6-26-8.6h-74c-29 0-119.5 4.7-119.5 200.7 19.7 0 38.3 1.3 51 1.3 0-101.7 25-115 25-115v130h161V459.2c14 18.3 40.1 49.7 54 49.7 32.5 0 98-71.5 99.5-83.5s-11.9-44.7-38-31z" fill="#66C1FF" /><path d="M604.3 568.9h-167V443.4c-6.8 9.7-19 36.9-19 107.5v3h-3c-5.7 0-12.4-0.3-20.2-0.6-9.4-0.4-20-0.8-30.8-0.8h-3v-3c0-84.5 16.7-143.7 49.8-176 25.4-24.8 53.7-27.7 72.7-27.7h74c9.9 0 19.3 3.1 27.3 8.8 33.7 7.7 59.4 56.3 70.4 77.1 1.4 2.6 2.5 4.6 3.2 6 0.3 0.6 0.9 0.7 1.1 0.8 0.3 0 0.8 0 1.3-0.4 11.4-11.4 39.5-38.6 54.3-46.4l1.4 2.7-1.4-2.7c12.2-6.4 21.2-3.2 26.7 0.6 11.3 7.8 16.7 24.7 15.7 33.4-1 8-21 31.2-39 48.1-15.1 14.2-43.5 38.1-63.4 38.1-13 0-34-22.5-51-43.9v100.9z m-161-6h155V450.4l5.4 7c23.3 30.4 42.6 48.5 51.6 48.5 13 0 34.7-13.3 59.3-36.4 21.9-20.6 36.7-40.1 37.2-44.4 0.9-6.8-3.9-21.4-13.1-27.7-6-4.1-12.9-4.2-20.5-0.2-14.5 7.6-44.1 36.6-52.8 45.3-1.7 1.7-4 2.5-6.3 2.1-2.3-0.3-4.4-1.7-5.6-3.7-0.8-1.4-1.9-3.5-3.3-6.2-9.8-18.5-35.8-67.5-67-74.2l-0.6-0.1-0.5-0.4c-7-5.3-15.4-8-24.2-8h-74c-18 0-44.7 2.7-68.5 26-31.4 30.7-47.6 87.5-48 168.7 9.9 0.1 19.5 0.4 28.1 0.8 6.4 0.2 12 0.5 16.9 0.5 0.5-99.6 25.5-114.1 26.6-114.6l4.4-2.4v131.9z"  /><path d="M223.3 338.7c0 39.8-8 84.3-44.7 84.3-37.3 0-76.4-44.6-76.4-84.3s27.1-72 60.5-72 60.6 32.2 60.6 72z" fill="#FFE08A" /><path d="M178.6 426c-18.5 0-38.4-10.3-54.4-28.2-15.6-17.4-25-39.5-25-59.1 0-41.4 28.5-75 63.5-75s63.5 33.6 63.5 75c0.1 57.1-16.4 87.3-47.6 87.3z m-15.8-156.3c-31.7 0-57.5 31-57.5 69 0 38.8 38.4 81.3 73.4 81.3 34.4 0 41.7-44.2 41.7-81.3-0.1-38-25.9-69-57.6-69z"  /><path d="M129.3 449c-16 1.6-40 30.7-47.3 54.7v254.7h80.8L254 617s-14.7-139.3-41.3-146.7c-12.3 5.3-5.4 63.7-5.4 63.7s-41-88.6-78-85z" fill="#FFE08A" /><path d="M164.4 761.4H79V503.3l0.1-0.4c7.4-24.1 31.8-55 49.9-56.8 29.6-2.9 60.4 47.3 73.9 72.7-0.3-4.4-0.5-9.4-0.6-14.5-0.4-29.1 5-34.9 9.1-36.6l1-0.4 1 0.3c7.2 2 13.6 11.1 19.7 27.9 4.6 12.6 9 29.6 13.1 50.5 6.9 35.5 10.7 70.5 10.7 70.8l0.1 1.1-92.6 143.5z m-79.4-6h76.2l89.7-139.1c-5.6-52-20.5-134.4-37.8-142.6-1.7 1.7-5 7.9-4.7 30.4 0.2 14.9 1.9 29.4 1.9 29.6l2.2 18.8-7.9-17.2c-0.1-0.2-10.3-22.2-24.9-43.5-18.8-27.4-36.1-41.2-50-39.8-14 1.4-37.3 28.6-44.6 52.1v251.3z"  /><path d="M802.7 338.7c0 39.8 8 84.3 44.7 84.3 37.3 0 76.4-44.6 76.4-84.3s-27.1-72-60.5-72c-33.5 0-60.6 32.2-60.6 72z" fill="#FC6B79" /><path d="M847.4 426c-31.2 0-47.7-30.2-47.7-87.3 0-41.4 28.5-75 63.5-75s63.5 33.6 63.5 75c0 19.5-9.3 41.6-25 59.1-16 17.9-35.8 28.2-54.3 28.2z m15.8-156.3c-31.7 0-57.5 31-57.5 69 0 37.1 7.2 81.3 41.7 81.3 35 0 73.4-42.6 73.4-81.3 0-38-25.8-69-57.6-69z"  /><path d="M896.7 449c16 1.6 40 30.7 47.3 54.7v254.7h-80.8L772 617s14.7-139.3 41.3-146.7c12.3 5.3 5.4 63.7 5.4 63.7s41-88.6 78-85z" fill="#FC6B79" /><path d="M947 761.4h-85.4l-92.7-143.6 0.1-1.1c0-0.3 3.8-35.4 10.7-70.8 4.1-20.9 8.5-37.9 13.1-50.5 6.1-16.8 12.6-25.9 19.7-27.9l1-0.3 1 0.4c4.1 1.8 9.5 7.5 9.1 36.6-0.1 5.1-0.3 10.1-0.6 14.5 13.5-25.4 44.3-75.6 73.9-72.7 18.1 1.8 42.6 32.7 49.9 56.8l0.1 0.4v258.2z m-82.1-6H941V504.2c-7.4-23.6-30.6-50.7-44.6-52.1-13.9-1.4-31.3 12.4-50 39.8-14.6 21.3-24.8 43.3-24.9 43.5l-7.9 17.2 2.2-18.8c0-0.1 1.7-14.6 1.9-29.6 0.3-22.5-3-28.7-4.7-30.4-17.4 8.2-32.3 90.6-37.8 142.6l89.7 139z"  /><path d="M880.1 838.2l-730.1 4v-34.5l144.9-229.2H313c3.9 0 6.3 4.3 4.2 7.7l-141 223.1h677.2l-141-223.1c-2.1-3.3 0.3-7.7 4.2-7.7h18.1L880 808.3v29.9z" fill="#330867" /></svg>