<?xml version="1.0" standalone="no"?><!DOCTYPE svg PUBLIC "-//W3C//DTD SVG 1.1//EN" "http://www.w3.org/Graphics/SVG/1.1/DTD/svg11.dtd"><svg class="icon" width="200px" height="200.00px" viewBox="0 0 1024 1024" version="1.1" xmlns="http://www.w3.org/2000/svg"><path d="M411.9 705.2l-75.1 150" fill="#66C1FF" /><path d="M336.8 864.2c-1.4 0-2.7-0.3-4-1-4.4-2.2-6.2-7.6-4-12.1l75.1-150c2.2-4.4 7.6-6.2 12.1-4 4.4 2.2 6.2 7.6 4 12.1l-75.1 150c-1.6 3.1-4.8 5-8.1 5z" fill="#330867" /><path d="M442.9 705.2l75.2 150" fill="#66C1FF" /><path d="M518.1 864.2c-3.3 0-6.5-1.8-8.1-5l-75.1-150c-2.2-4.4-0.4-9.9 4-12.1 4.4-2.2 9.9-0.4 12.1 4l75.1 150c2.2 4.4 0.4 9.9-4 12.1-1.3 0.7-2.7 1-4 1z" fill="#330867" /><path d="M427.4 874V703.4" fill="#66C1FF" /><path d="M427.4 883c-5 0-9-4-9-9V703.4c0-5 4-9 9-9s9 4 9 9V874c0 5-4 9-9 9z" fill="#330867" /><path d="M441.6 283c-5.7 0-11.4-0.8-16.9-2.3-9.2-2.5-17.4-6.9-24.7-13-3-2.5-4-6.7-2.5-10.4 1.4-3.4 4.7-5.5 8.3-5.5h0.8c1.4 0.1 2.9 0.2 4.3 0.2 20.8 0 39.1-14 44.5-34 4.7-17.2-1.1-35.8-14.7-47.4-3-2.5-4-6.7-2.5-10.4 1.4-3.4 4.7-5.5 8.3-5.5h0.8c3.7 0.4 7.4 1 11 2 16.5 4.5 30.3 15.2 38.8 30.1 8.5 14.9 10.7 32.2 6.2 48.7-7.4 28-32.8 47.5-61.7 47.5z" fill="#EAB236" /><path d="M446.7 163.8c3.1 0.3 6.3 0.8 9.4 1.7 29.4 8 46.7 38.4 38.7 67.8-6.7 24.5-28.9 40.7-53.2 40.7-4.8 0-9.7-0.6-14.6-2-8.1-2.2-15.2-6.1-21.2-11.2 1.7 0.2 3.4 0.2 5.1 0.2 24.3 0 46.5-16.1 53.2-40.7 5.9-21.2-1.6-43-17.4-56.5m0-18c-7.2 0-13.7 4.3-16.6 11-3.1 7.2-1.1 15.6 4.9 20.7 11 9.3 15.6 24.3 11.8 38.2-4.4 16.1-19.1 27.4-35.8 27.4-1.1 0-2.3-0.1-3.4-0.2-0.6-0.1-1.1-0.1-1.7-0.1-7.2 0-13.7 4.3-16.6 11-3.1 7.2-1.1 15.6 4.9 20.7 8.2 7 17.7 12 28.1 14.8 6.3 1.7 12.8 2.6 19.3 2.6 32.9 0 61.9-22.2 70.6-53.9 10.6-38.9-12.4-79.3-51.4-89.9-4-1.1-8.2-1.9-12.5-2.3h-1.6z" fill="#330867" /><path d="M183.8 409.9c-26.7 0-48.4-21.7-48.4-48.4s21.7-48.4 48.4-48.4c2.4 0 4.8 0.2 7.2 0.5 1.7-11.7 7.1-22.5 15.4-31.1 8.8-9 20-14.8 32.3-16.6 10.8-33.2 41.6-55.9 77-55.9 20.4 0 39.9 7.6 54.9 21.5 12.2 11.3 20.6 25.9 24.2 41.9 3.4-0.6 6.9-1 10.4-1 31.7 0 57.5 25.6 58 57.1 18.1 4.1 31.7 20.4 31.7 39.7 0 22.4-18.3 40.7-40.7 40.7H183.8z" fill="#F7D7FF" /><path d="M315.7 218.9c37.7 0 68.5 28.9 71.7 65.8 5.5-2.1 11.5-3.4 17.7-3.4 27.1 0 49 21.9 49 49 0 1.5-0.1 2.9-0.2 4.4h0.2v2.8c17.5 0 31.7 14.2 31.7 31.7s-14.2 31.7-31.7 31.7H183.8c-21.8 0-39.4-17.7-39.4-39.4 0-21.8 17.7-39.4 39.4-39.4 5.6 0 10.9 1.2 15.8 3.3-0.1-1.1-0.2-2.2-0.2-3.3 0-25.9 20.6-47 46.3-47.8 7.6-31.8 36-55.4 70-55.4m0-18c-20.4 0-40.3 7-56.2 19.7-12.3 9.8-21.8 22.8-27.5 37.3-12.1 2.8-23.2 9.1-32 18.2-7.7 7.9-13.2 17.5-16.1 27.8h-0.1c-31.7 0-57.4 25.8-57.4 57.4 0 31.7 25.8 57.4 57.4 57.4h270.4c27.4 0 49.7-22.3 49.7-49.7 0-21.2-13.4-39.4-32.1-46.5-3.8-33.4-32.2-59.4-66.5-59.4-1.3 0-2.5 0-3.7 0.1-4.7-14.7-13.2-28-24.7-38.7-16.8-15.1-38.5-23.6-61.2-23.6z" fill="#330867" /><path d="M312.9 377.9c-34 0-134 19.5-168.6-16.5 0 21.8 17.7 39.4 39.4 39.4h270.4c17.5 0 31.7-14.2 31.7-31.7-46.9 25.3-135.2 8.8-172.9 8.8z" fill="#F0BEFC" /><path d="M571.3 588.2c-3.4 0-6.6-1.9-8.1-5.2l-66.4-140.4c-2.1-4.5-0.2-9.9 4.3-12l22.4-10.6c2.7-1.3 5.5-1.9 8.4-1.9 7.6 0 14.6 4.4 17.8 11.3L607 550.5c2.2 4.8 2.5 10.1 0.7 15.1s-5.4 8.9-10.1 11.2l-22.4 10.6c-1.3 0.5-2.6 0.8-3.9 0.8z" fill="#66C1FF" /><path d="M531.9 427.1c4 0 7.9 2.3 9.7 6.1l57.2 121.1c2.5 5.3 0.2 11.7-5.1 14.2l-22.4 10.6-66.4-140.4 22.4-10.6c1.5-0.7 3.1-1 4.6-1m0-18c-4.3 0-8.4 0.9-12.3 2.8l-22.4 10.6c-9 4.2-12.8 15-8.6 24L555 586.9c2 4.3 5.7 7.6 10.2 9.3 2 0.7 4 1.1 6.1 1.1 2.6 0 5.3-0.6 7.7-1.7l22.4-10.6c6.9-3.3 12.2-9.1 14.8-16.3 2.6-7.2 2.2-15-1.1-21.9l-57.2-121.1c-4.8-10.1-14.9-16.6-26-16.6z" fill="#330867" /><path d="M399.3 716.3c-3.7 0-7.1-2.3-8.4-5.9l-14.8-39.6-50.2 12.4c-1.4 0.3-2.8 0.5-4.2 0.5-6.7 0-13.1-3.9-16.9-10l-56.6 11.2c-1 0.2-2 0.3-3 0.3-5.7 0-11-3.1-14.1-8.1l-2.4 0.3c-0.7 0.1-1.4 0.1-2.1 0.1-6 0-11.5-3.5-14-8.9-2.9-6.1-1.5-13.3 3.4-18l1.7-1.6c-2.2-6.6-0.4-13.9 4.8-18.2l44.6-36.7c-2.9-8.3-0.6-17.3 6-22.2L440 447.4l-4.6-9.7c-4.4-9.2-0.4-20.3 8.8-24.7l30.9-14.6c2.5-1.2 5.2-1.8 7.9-1.8 7.1 0 13.7 4.2 16.8 10.6l92.3 195.4c4.4 9.2 0.4 20.3-8.8 24.7l-30.9 14.6c-2.5 1.2-5.2 1.8-7.9 1.8-7.1 0-13.6-4.1-16.7-10.5L460.6 650l-1.5 49.2c-0.1 4.3-3.3 7.9-7.5 8.6l-50.8 8.4c-0.5 0.1-1 0.1-1.5 0.1z" fill="#66C1FF" /><path d="M483.3 405.8c3.6 0 7 2 8.6 5.5l92.3 195.4c2.3 4.8 0.2 10.5-4.6 12.7L548.8 634c-1.3 0.6-2.7 0.9-4.1 0.9-3.6 0-7-2-8.6-5.5l-3.1-6.5-81.2 20-1.7 56-50.8 8.4-17.6-47.1-58 14.3c-0.7 0.2-1.3 0.2-2 0.2-3.9 0-7.8-2.6-9.8-6.9l-2-4.3-63.4 12.5c-0.4 0.1-0.8 0.1-1.2 0.1-2.8 0-5.6-1.9-7-4.8l-1.9-4-8.8 1.2c-0.3 0-0.6 0.1-0.9 0.1-2.5 0-4.8-1.4-5.9-3.7-1.2-2.6-0.6-5.6 1.4-7.5l6.5-6-1.9-4c-1.6-3.4-0.9-7.3 1.6-9.3l49.9-41-2-4.3c-2.3-4.9-1.3-10.5 2.4-13.3l172.7-128.9-7.7-16.4c-2.3-4.8-0.2-10.5 4.6-12.7l30.9-14.6c1.3-0.8 2.7-1.1 4.1-1.1m0-18c-4.1 0-8.1 0.9-11.8 2.6L440.7 405c-13.7 6.5-19.6 22.9-13.1 36.7l1.4 3.1-161 120.1c-8 6-11.9 16-10.6 26L217 624c-6.6 5.4-9.8 13.8-8.9 22.1-6.3 7.3-7.7 17.6-3.5 26.4 4 8.5 12.7 14 22.1 14h0.5c4.8 4.8 11.2 7.6 18 7.6 1.6 0 3.2-0.2 4.7-0.5l51.2-10.1c5.4 5.7 12.8 9.1 20.5 9.1 2.1 0 4.2-0.3 6.3-0.8l42.4-10.5 12 32.1c2.7 7.1 9.4 11.7 16.9 11.7 1 0 2-0.1 2.9-0.2l50.8-8.4c8.5-1.4 14.8-8.6 15.1-17.2l1.3-42.4 54.8-13.5c5.2 5.8 12.6 9.2 20.6 9.2 4.1 0 8.1-0.9 11.8-2.6l30.9-14.6c13.7-6.5 19.6-22.9 13.1-36.7l-92.3-195.4c-4.5-9.3-14.3-15.5-24.9-15.5z" fill="#330867" /><path d="M236.4 667.4l1.9 4c1.6 3.4 5 5.3 8.2 4.7l63.4-12.5 2 4.3c2.3 4.9 7.3 7.7 11.8 6.6l58-14.3 17.6 47.1 50.8-8.4 1.7-56 81.2-20 3.1 6.5c2.3 4.8 7.9 6.8 12.7 4.6l30.9-14.6c4.8-2.3 6.8-7.9 4.6-12.7L552 538.3s-44.1 73.3-315.6 129.1z" fill="#18A3D3" /><path d="M727.8 298.6c-3.7 0-7.4-1.9-10-5.1-4.3-5.3-4-12.6 0.5-16.2l0.1-0.1 166.3-121.4 1.4-1.1c0.5-0.4 1.2-0.7 1.9-0.7 0.3 0 0.5 0 0.8 0.1 0.9 0.3 1.7 1 2 1.9 0.3 0.7 0.5 2.2-1.2 3.5l-1.2 0.9-154.7 136c-1.5 1.4-3.6 2.2-5.9 2.2z" fill="#DD365E" /><path d="M888.1 157l-0.2 0.2 0.2-0.2m0 0s-0.4 0.3-1.4 1.2c0-0.1 1.4-1.2 1.4-1.2m-0.2 0.2c-0.4 0.3-1.2 1-1.2 1 0.6-0.5 0.9-0.8 1.2-1m-1.3 1L732 294.2c-1.2 0.9-2.6 1.4-4.1 1.4-2.7 0-5.5-1.4-7.6-4-3.2-4-3.2-9.4 0-12l166.3-121.4m1.5-7.2h-0.4c-0.2 0-0.5 0-0.7 0.1-1 0.2-1.9 0.6-2.7 1.2l-0.1 0.1-1.2 0.9-166.3 121.4-0.2 0.2c-5.8 4.7-6.3 13.8-1 20.4 3.1 3.9 7.7 6.2 12.3 6.2 2.9 0 5.7-0.9 7.9-2.7l0.2-0.2 154.6-135.9 0.2-0.2 0.8-0.7 0.1-0.1 0.1-0.1c1.4-1.1 2.3-2.8 2.3-4.7 0-3.2-2.5-5.8-5.6-6 0 0.1-0.2 0.1-0.3 0.1z m-1.5 13.2z m0 0z m0 0z m0 0z m0 0z m0 0z m0 0z" fill="#330867" /><path d="M693.6 495.6c-21 0-30.3-7.6-34.5-15-5.4-9.7-6.5-27.1 19.2-55.4 17.9-19.7 44.7-40 75.5-57.2 59.7-33.4 128.8-51.5 145.5-21.7 16.7 29.8-35 79.2-94.7 112.6-30.8 17.2-62.1 29.4-88.2 34.4-8.9 1.6-16.4 2.3-22.8 2.3z m171.3-146.4c-5.3 0-11.7 0.6-19.5 2.1-24.2 4.6-53.6 16.1-82.8 32.4-29.2 16.3-54.4 35.3-71 53.6-16.5 18.2-19.4 29.9-16.8 34.5 2.6 4.6 14.1 8.3 38.2 3.7 24.2-4.6 53.6-16.1 82.8-32.4 29.2-16.3 54.4-35.3 71-53.6 16.5-18.2 19.4-29.9 16.8-34.5-1.7-3.1-7.6-5.8-18.7-5.8z" fill="#330867" /><path d="M779.2 413.4m-96 0a96 96 0 1 0 192 0 96 96 0 1 0-192 0Z" fill="#F255FF" /><path d="M779.1 518.4c-54.2 0-100.3-41.9-104.6-96.8-4.5-57.7 38.8-108.3 96.5-112.8s108.3 38.8 112.8 96.5c2.2 28-6.7 55.1-24.9 76.4s-43.7 34.3-71.6 36.4c-2.7 0.2-5.4 0.3-8.2 0.3z m0.2-192c-2.3 0-4.5 0.1-6.8 0.3-47.8 3.7-83.7 45.7-80 93.5 3.5 45.5 41.7 80.2 86.7 80.2 2.3 0 4.5-0.1 6.8-0.3 23.2-1.8 44.2-12.5 59.4-30.2 15.1-17.7 22.4-40.1 20.6-63.3-3.6-45.5-41.8-80.2-86.7-80.2z" fill="#330867" /><path d="M693.6 495.6c-21 0-30.3-7.6-34.5-15l15.7-8.8c2.6 4.6 14.1 8.3 38.2 3.7 24.2-4.6 53.6-16.1 82.8-32.4 29.2-16.3 54.4-35.3 71-53.6 16.5-18.2 19.4-29.9 16.8-34.5l15.7-8.8c16.7 29.8-35 79.2-94.7 112.6-30.8 17.2-62.1 29.4-88.2 34.4-8.9 1.7-16.4 2.4-22.8 2.4z" fill="#330867" /><path d="M780.9 403.9c-1.1 0-2.2-0.1-3.3-0.2-6.4-0.9-12.2-4.2-16.1-9.4-3.9-5.2-5.6-11.6-4.8-18 1.6-12 12-21.1 24.1-21.1 1.1 0 2.2 0.1 3.3 0.2 6.4 0.9 12.2 4.2 16.1 9.4 3.9 5.2 5.6 11.6 4.8 18-1.6 12-12 21.1-24.1 21.1z" fill="#DD365E" /><path d="M780.8 358.2c0.9 0 1.9 0.1 2.9 0.2 11.7 1.6 19.9 12.3 18.3 24-1.4 10.7-10.6 18.5-21.1 18.5-0.9 0-1.9-0.1-2.9-0.2-11.7-1.6-19.9-12.3-18.3-24 1.5-10.7 10.6-18.5 21.1-18.5m0-6c-13.6 0-25.2 10.2-27.1 23.7-1 7.2 0.9 14.4 5.4 20.2 4.4 5.8 10.9 9.5 18.1 10.5 1.2 0.2 2.4 0.2 3.7 0.2 13.6 0 25.2-10.2 27.1-23.7 1-7.2-0.9-14.4-5.4-20.2-4.4-5.8-10.9-9.5-18.1-10.5-1.2-0.1-2.4-0.2-3.7-0.2z" fill="#330867" /><path d="M742.5 447.3c-0.4 0-0.9 0-1.3-0.1-5.3-0.7-9-5.6-8.3-10.9 0.6-4.8 4.8-8.4 9.6-8.4 0.4 0 0.9 0 1.3 0.1 5.3 0.7 9 5.6 8.3 10.9-0.7 4.8-4.8 8.4-9.6 8.4z" fill="#DD365E" /><path d="M742.4 431c0.3 0 0.6 0 0.9 0.1 3.6 0.5 6.2 3.8 5.7 7.5-0.4 3.3-3.3 5.8-6.6 5.8-0.3 0-0.6 0-0.9-0.1-3.6-0.5-6.2-3.8-5.7-7.5 0.5-3.4 3.4-5.8 6.6-5.8m0-6c-6.3 0-11.7 4.7-12.5 11-0.4 3.4 0.4 6.7 2.5 9.4s5 4.4 8.4 4.9c0.6 0.1 1.1 0.1 1.7 0.1 6.3 0 11.7-4.7 12.5-11 0.4-3.4-0.4-6.7-2.5-9.4s-5-4.4-8.4-4.9c-0.5-0.1-1.1-0.1-1.7-0.1z" fill="#330867" /></svg>