<?xml version="1.0" standalone="no"?><!DOCTYPE svg PUBLIC "-//W3C//DTD SVG 1.1//EN" "http://www.w3.org/Graphics/SVG/1.1/DTD/svg11.dtd"><svg class="icon" width="200px" height="200.00px" viewBox="0 0 1024 1024" version="1.1" xmlns="http://www.w3.org/2000/svg"><path d="M809.4 226.5c-11.1 0-22.2-2.2-22.7-2.3-0.9-0.2-1.7-0.8-2.1-1.7-0.4-0.9-0.3-1.9 0.1-2.7 0.6-1 14.3-24.5 26.8-30.3 2.3-1.1 4.7-1.6 7.2-1.6 7.1 0 13.5 4.4 16.3 11.3 3.9 9.4-0.2 20.5-9.1 24.6-3.9 1.8-9.4 2.7-16.5 2.7z" fill="#66C1FF" /><path d="M818.7 190.9c5.7 0 11.1 3.5 13.5 9.4 3.3 8-0.1 17.3-7.6 20.8-4 1.8-9.6 2.5-15.2 2.5-10.9 0-22.1-2.3-22.1-2.3s13.7-23.6 25.4-29.1c2-0.9 4.1-1.3 6-1.3m0-6c-2.9 0-5.8 0.6-8.4 1.9-13.1 6.1-26.6 28.9-28.1 31.5-1 1.7-1.1 3.7-0.3 5.5s2.4 3 4.3 3.4c0.5 0.1 11.9 2.4 23.3 2.4 7.6 0 13.4-1 17.8-3 10.3-4.8 15.1-17.6 10.6-28.5-3.4-8.1-10.8-13.2-19.2-13.2z" fill="#330867" /><path d="M853.9 329.5c-9.3 0-16.1-4.2-18.8-11.4-12.4-33.7-38.9-37.7-39.2-37.7-1.3-0.2-2.3-1.2-2.5-2.4s0.4-2.6 1.5-3.2c0.9-0.5 22.2-12.1 43.5-12.1 8.6 0 16.1 1.9 22.2 5.7 18.3 11.3 25.7 27.6 20.3 44.7-3.3 10.3-16.3 16.4-27 16.4z" fill="#66C1FF" /><path d="M838.3 265.7c7.2 0 14.4 1.4 20.6 5.3 18.8 11.6 23.4 27.3 19 41.2-2.7 8.6-14 14.4-24.1 14.4-7.1 0-13.5-2.8-16-9.5-13.2-35.7-41.6-39.7-41.6-39.7s21.4-11.7 42.1-11.7m0-6c-22.1 0-44 11.9-44.9 12.4-2.3 1.2-3.5 3.8-3 6.3s2.5 4.5 5.1 4.9c1 0.1 25.1 4.1 36.7 35.8 3.1 8.4 11.2 13.4 21.6 13.4 11.6 0 26-6.5 29.8-18.6 2.7-8.6 2.4-17.5-1-25.6-3.6-8.8-10.6-16.3-20.6-22.6-6.5-4-14.5-6-23.7-6z" fill="#330867" /><path d="M850.7 295.8c0.6 5.7-1.4 13.8-12.9 21.3 6 16.1 35.5 9.8 40.1-4.9 4.4-13.9-0.2-29.6-19-41.2 1.8 8.9-0.5 13.2-3.5 15.2-3.1 2.2-5 5.8-4.7 9.6z" fill="#18A3D3" /><path d="M506.302748 288.81507a107.2 107.2 0 1 0 151.601048-151.60634 107.2 107.2 0 1 0-151.601048 151.60634Z" fill="#FFE08A" /><path d="M582.1 114.8c54.2 0 98.2 44 98.2 98.2s-44 98.2-98.2 98.2-98.2-44-98.2-98.2 44-98.2 98.2-98.2m0-18c-31 0-60.2 12.1-82.2 34-21.9 21.9-34 51.1-34 82.2s12.1 60.2 34 82.2c21.9 21.9 51.1 34 82.2 34 31 0 60.2-12.1 82.2-34 21.9-21.9 34-51.1 34-82.2s-12.1-60.2-34-82.2c-22-21.9-51.2-34-82.2-34z" fill="#330867" /><path d="M651.5 282.4c-17.8 17.8-42.3 28.8-69.4 28.8-54.2 0-98.2-44-98.2-98.2 33.3 49.1 84.3 97.2 167.6 69.4z" fill="#EAB236" /><path d="M309 739.1c-5.9 0-11.7-1.2-17.2-3.6 0 0-138.1-59.2-138.2-59.2-17.4-7.7-25.3-28.2-17.6-45.6 5.5-12.5 17.9-20.6 31.6-20.6 4.8 0 9.5 1 13.9 2.9l115.6 49.3 71.6-135.7c1.1-2 2.9-3.6 5.1-4.3 0.9-0.3 1.9-0.5 2.9-0.5 1.5 0 2.9 0.4 4.2 1l45.1 23.9c4.4 2.3 6.1 7.8 3.7 12.2l-83 157.4c-7.4 14.1-21.8 22.8-37.7 22.8z" fill="#66C1FF" /><path d="M376.6 530.8l45.1 23.9-83 157.4c-6 11.3-17.6 17.9-29.7 17.9-4.6 0-9.2-0.9-13.6-2.9L157.3 668c-12.9-5.7-18.7-20.8-13-33.7 4.2-9.5 13.6-15.2 23.4-15.2 3.5 0 7 0.7 10.3 2.2l123.2 52.6 75.4-143.1m0-18c-1.6 0-3.3 0.2-4.9 0.7-4.8 1.3-8.8 4.6-11.1 8.9L293 650.8l-107.9-46c-5.6-2.4-11.4-3.7-17.5-3.7-17.2 0-32.9 10.2-39.8 25.9-4.7 10.6-5 22.5-0.8 33.3 4.2 10.9 12.4 19.4 23 24.1 0.1 0 0.1 0.1 0.2 0.1l138 59.1c6.6 2.9 13.6 4.4 20.8 4.4 19.2 0 36.7-10.5 45.6-27.5l83.1-157.4c2.1-4 2.6-8.7 1.5-13.1-1.3-4.8-4.5-8.9-9-11.2l-45.1-23.9c-2.6-1.3-5.5-2.1-8.5-2.1z" fill="#330867" /><path d="M662.4 563.5c-10.7 0-21-3.8-29.2-10.6-0.2-0.2-0.4-0.4-0.6-0.5l-149.2-150c-3.3-3.3-3.5-8.6-0.5-12.1l32.9-39.1c1.6-1.9 4-3.1 6.5-3.2h0.4c2.4 0 4.7 0.9 6.4 2.6l151.4 151.3 131-0.5c17.1 0 31 13.9 31 31s-13.9 31-31 31H662.4z" fill="#FC6B79" /><path d="M522.7 357l154 153.9 134.6-0.5h0.1c12.2 0 22 9.9 22 22 0 12.2-9.9 22-22 22h-149c-8.6 0-16.9-3-23.4-8.5L489.8 396.1l32.9-39.1m0-18h-0.8c-5 0.2-9.8 2.5-13 6.4L476 384.5c-6 7.1-5.6 17.7 1 24.3l149.2 149.8c0.4 0.4 0.8 0.7 1.2 1.1 9.8 8.2 22.2 12.8 35 12.8h149c22.1 0 40-18 40-40s-18-40-40-40h-0.1l-127.1 0.5-148.8-148.8c-3.4-3.3-8-5.2-12.7-5.2z" fill="#330867" /><path d="M435.4 628.1c-10.3 0-20.2-2.2-29.6-6.6l-16.1-7.5c-35.2-16.3-50.6-58.3-34.2-93.5L423 375.3c11.5-24.8 36.6-40.8 63.9-40.8 10.3 0 20.2 2.2 29.6 6.6l16.1 7.5c35.2 16.3 50.6 58.3 34.2 93.5l-67.4 145.2c-11.6 24.8-36.6 40.8-64 40.8z" fill="#FC6B79" /><path d="M486.9 343.5c8.9 0 17.6 1.9 25.8 5.7l16.1 7.5c30.7 14.3 44.1 50.8 29.8 81.5l-67.4 145.2c-10 21.6-31.9 35.6-55.7 35.6-8.9 0-17.6-1.9-25.8-5.7l-16.1-7.5c-14.9-6.9-26.2-19.2-31.8-34.6-5.6-15.4-4.9-32.1 2-46.9l67.4-145.2c10-21.6 31.9-35.6 55.7-35.6m0-18c-29.9 0-58.6 17-72.1 46l-67.4 145.2c-18.5 39.8-1.2 87 38.6 105.4l16.1 7.5c10.8 5 22.2 7.4 33.4 7.4 29.9 0 58.6-17 72.1-46L575 445.8c18.5-39.8 1.2-87-38.6-105.4l-16.1-7.5c-10.8-5-22.2-7.4-33.4-7.4z" fill="#330867" /><path d="M210.4 551c-9.4 0-18.2-3.7-24.8-10.5-6.4-6.6-9.9-15.4-9.7-24.6 0.1-9.2 3.9-17.8 10.5-24.3l132.2-128.3c8.5-8.2 19.6-13.4 31.4-14.5 0.1 0 120.8-9.5 120.8-9.5 1.1-0.1 2.3-0.2 3.4-0.2 17.9 0 32.6 13.4 34.4 31.2 1.8 18.9-12 35.8-30.9 37.7-0.1 0-115.2 9-115.2 9L234.4 541.2c-6.4 6.3-15 9.8-24 9.8z" fill="#FC6B79" /><path d="M474.1 348.1c13 0 24.1 9.9 25.4 23.1 1.4 14-8.9 26.5-22.9 27.9l-118.2 9.3-130.2 126.4c-5 4.8-11.4 7.2-17.8 7.2-6.7 0-13.3-2.6-18.3-7.8-9.8-10.1-9.6-26.3 0.5-36.1l132.2-128.3c7-6.8 16.2-11.1 26-12l120.7-9.5c0.9-0.1 1.7-0.2 2.6-0.2m0-18c-1.4 0-2.8 0.1-4.2 0.2l-120.5 9.5h-0.3c-13.8 1.3-26.8 7.4-36.8 17L180.1 485.2c-8.3 8.1-13 19-13.2 30.6s4.2 22.6 12.3 31c8.3 8.5 19.4 13.2 31.3 13.2 11.4 0 22.1-4.4 30.3-12.3l125.6-121.9L478 417h0.4c23.8-2.4 41.3-23.7 39-47.5-1.1-10.8-6.1-20.8-14.2-28.1-8-7.3-18.3-11.3-29.1-11.3z" fill="#330867" /><path d="M636.1 887.6c-15.1 0-28.3-9.6-32.9-24l-45.5-141.9-136.1-93.8c-7.6-5.2-12.7-13.1-14.4-22.2-1.7-9.1 0.3-18.3 5.6-25.9 6.5-9.3 17.1-14.9 28.4-14.9 7 0 13.8 2.1 19.6 6.1l139.4 96c10.4 7.2 18.3 17.8 22.2 29.9L669 842.5c5.8 18.1-4.2 37.6-22.3 43.4-3.5 1.2-7.1 1.7-10.6 1.7z" fill="#66C1FF" /><path d="M441.1 573.9c5 0 10 1.5 14.5 4.5l139.4 96c8.9 6.1 15.4 15 18.7 25.3l46.7 145.5c4.3 13.4-3.1 27.8-16.5 32.1-2.6 0.8-5.2 1.2-7.8 1.2-10.8 0-20.8-6.9-24.3-17.7L565.3 716l-138.7-95.5c-11.6-8-14.6-23.9-6.5-35.6 4.9-7.1 12.9-11 21-11m0-18c-14.3 0-27.7 7-35.8 18.8-6.6 9.6-9.1 21.2-7 32.6 2.1 11.5 8.5 21.4 18.1 28l133.6 92 44.6 139c5.8 18.1 22.5 30.3 41.5 30.3 4.5 0 9-0.7 13.3-2.1 22.9-7.3 35.5-31.9 28.2-54.8l-46.7-145.5c-4.5-14-13.6-26.2-25.6-34.6l-139.4-96c-7.4-5-15.9-7.7-24.8-7.7z" fill="#330867" /><path d="M896.3 840.3c2.2-3.3 3.4-7.3 3.4-11.6v-5.4c0-6.4-0.4-11.2-1.2-15-1.3-5.8-4.4-11.4-9.2-16.8-4.7-5.2-10.9-9.2-18.5-12-6.6-2.4-14.4-3.6-23-3.6-8.2 0-15.8 1.2-22.5 3.7-2.8-8.4-10.8-14.5-20.1-14.5h-28.5c-8.3 0-15.4 4.7-18.9 11.6-1.6 0.3-3.3 0.8-5 1.4-1.5-0.3-3.1-0.5-4.7-0.5h-28.4c-5.5 0-10.4 2.1-14.2 5.4-1.8-1-3.6-1.8-5.5-2.6-7.1-3-15.4-4.5-24.6-4.5-11.5 0-21.5 2.5-29.7 7.5-1.3 0.8-2.5 1.6-3.7 2.5-0.9-0.8-1.8-1.5-2.8-2.3-6.8-5-15.1-7.7-24-7.7-4.7 0-9.2 0.7-13.5 2.2-1.4-0.3-2.9-0.5-4.4-0.5h-28.9c-4.9 0-9.4 1.7-13 4.5-1.9-0.9-3.8-1.8-5.9-2.5-6.6-2.4-14.4-3.6-23-3.6-9 0-17.2 1.5-24.4 4.5-11.6 4.7-17.6 12.1-20.6 17.5-3.8 6.8-5.6 15.6-5.6 26.8 0 8.3 1.6 15.8 4.7 22.4-2.4 3.5-3.9 7.7-3.9 12.2v4.5c0 11.2 1.7 20 5.1 26.9 4.2 8.4 11.3 14.8 21.1 19.1 7.8 3.4 16.9 5.2 27.1 5.2 6.7 0 12.9-0.8 18.6-2.5 2.9 8.2 10.8 14.1 20 14.1H597c8.3 0 15.4-4.7 18.9-11.6 8.4-0.2 15.9-2.5 22.4-6.9 1.1-0.8 2.2-1.6 3.2-2.5 3.8 2.7 8.1 4.8 12.9 6.3 6.5 2.1 13.8 3.1 22.4 3.1 8.1 0 15.7-1.3 22.4-3.8 2.4-0.9 4.6-1.9 6.8-3.1 3.7 3.2 8.6 5.2 13.9 5.2h28.4c7.9 0 14.8-4.3 18.4-10.7 0.2 0.2 0.4 0.3 0.6 0.5 5 4.6 11 7.7 17.6 9 4.3 0.8 9.8 1.2 17.9 1.2h11.5c4 0 7.8-1.1 11-3.1 7.6 3.2 16.4 4.8 26.1 4.8 9.5 0 18.1-1.7 25.4-5 9-4.1 15.9-10.5 20.1-18.7 3.5-7 5.3-15.7 5.3-26.8-0.3-9.5-2.2-17.6-5.9-24.3z" fill="#330867" /><path d="M557 828.7h-25.2v-5.1c0-4.3-0.2-7-0.7-8.2-0.5-1.1-1.7-1.7-3.7-1.7-1.6 0-2.8 0.5-3.6 1.6-0.8 1.1-1.2 2.6-1.2 4.7 0 2.9 0.2 5 0.6 6.3 0.4 1.3 1.6 2.8 3.6 4.4 2 1.6 6.1 3.9 12.3 7 8.3 4 13.7 7.8 16.2 11.4 2.6 3.6 3.9 8.7 3.9 15.5 0 7.6-1 13.3-3 17.2-2 3.9-5.3 6.8-9.9 8.9-4.6 2.1-10.2 3.1-16.7 3.1-7.2 0-13.4-1.1-18.5-3.4s-8.7-5.3-10.6-9.1c-1.9-3.8-2.9-9.7-2.9-17.4v-4.5h25.2v5.9c0 5 0.3 8.3 0.9 9.8 0.6 1.5 1.9 2.3 3.8 2.3 2 0 3.4-0.5 4.2-1.5 0.8-1 1.2-3.1 1.2-6.4 0-4.5-0.5-7.2-1.5-8.4-1.1-1.1-6.6-4.5-16.5-10-8.3-4.7-13.4-8.9-15.3-12.8-1.8-3.8-2.7-8.4-2.7-13.6 0-7.5 1-13 3-16.5s5.3-6.3 10-8.2c4.7-1.9 10.2-2.9 16.4-2.9 6.2 0 11.5 0.8 15.8 2.4 4.3 1.6 7.7 3.6 10 6.2s3.7 5 4.2 7.2 0.7 5.7 0.7 10.3v5.5zM597.1 798.9l-0.5 8.2c2.5-3.3 5.3-5.8 8.4-7.5 3-1.6 6.4-2.5 10-2.5 4.4 0 8.2 1.2 11.4 3.6 3.2 2.4 5.2 5.1 6 8.2 0.8 3.1 1.2 8.3 1.2 15.8V864c0 8.5-0.5 14.5-1.5 18.1-1 3.6-3.1 6.4-6.2 8.6-3.1 2.1-6.9 3.2-11.3 3.2-3.5 0-6.8-0.8-9.8-2.5-3-1.6-5.7-4.1-8.2-7.3v21.4h-28.4V798.9h28.9z m8.1 27.2c0-5.8-0.2-9.3-0.6-10.5-0.4-1.2-1.6-1.8-3.5-1.8s-3.1 0.7-3.6 2.1c-0.5 1.4-0.8 4.8-0.8 10.2v38.7c0 5.6 0.3 9.1 0.8 10.6 0.6 1.4 1.8 2.1 3.7 2.1 1.8 0 3-0.6 3.4-1.9 0.4-1.3 0.7-4.4 0.7-9.4v-40.1zM708.7 831.7v22.9c0 8.4-0.4 14.6-1.3 18.5-0.8 3.9-2.7 7.6-5.4 11-2.8 3.4-6.3 5.9-10.7 7.5-4.3 1.6-9.3 2.4-14.9 2.4-6.3 0-11.6-0.7-16-2.1-4.4-1.4-7.7-3.5-10.2-6.3-2.4-2.8-4.1-6.2-5.2-10.1-1-4-1.5-9.9-1.5-17.8v-23.9c0-8.7 0.9-15.5 2.8-20.3 1.9-4.9 5.3-8.8 10.1-11.7 4.9-3 11.1-4.4 18.7-4.4 6.4 0 11.9 0.9 16.4 2.8 4.6 1.9 8.1 4.4 10.6 7.4s4.2 6.2 5.1 9.4c1.1 3.2 1.5 8.1 1.5 14.7z m-28.4-7c0-4.8-0.3-7.8-0.8-9-0.5-1.2-1.6-1.9-3.3-1.9s-2.8 0.6-3.4 1.9c-0.6 1.2-0.8 4.3-0.8 9v42.1c0 4.4 0.3 7.3 0.8 8.6 0.6 1.3 1.7 2 3.3 2 1.7 0 2.8-0.6 3.3-1.8 0.5-1.2 0.8-3.8 0.8-7.9v-43zM747.9 798.9l-1.1 12.3c4.1-8.8 10.1-13.4 17.9-14v32.9c-5.2 0-9 0.7-11.5 2.1-2.4 1.4-3.9 3.4-4.5 5.9-0.6 2.5-0.8 8.3-0.8 17.3v36.9h-28.4V799h28.4zM805.1 786.5v14.7h7.7V816h-7.7v49.9c0 6.1 0.3 9.6 0.9 10.3 0.6 0.7 3.3 1.1 7.9 1.1v15.1h-11.5c-6.5 0-11.1-0.3-13.9-0.8-2.8-0.5-5.2-1.8-7.3-3.7-2.1-1.9-3.4-4.2-3.9-6.7s-0.8-8.4-0.8-17.7v-47.4h-6.1v-14.8h6.1v-14.7h28.6zM878.5 828.7h-25.2v-5.1c0-4.3-0.2-7-0.7-8.2-0.5-1.1-1.7-1.7-3.7-1.7-1.6 0-2.8 0.5-3.6 1.6-0.8 1.1-1.2 2.6-1.2 4.7 0 2.9 0.2 5 0.6 6.3 0.4 1.3 1.6 2.8 3.6 4.4 2 1.6 6.1 3.9 12.3 7 8.3 4 13.7 7.8 16.2 11.4 2.6 3.6 3.9 8.7 3.9 15.5 0 7.6-1 13.3-3 17.2-2 3.9-5.3 6.8-9.9 8.9-4.6 2.1-10.2 3.1-16.7 3.1-7.2 0-13.4-1.1-18.5-3.4s-8.7-5.3-10.6-9.1c-1.9-3.8-2.9-9.7-2.9-17.4v-4.5h25.2v5.9c0 5 0.3 8.3 0.9 9.8 0.6 1.5 1.9 2.3 3.8 2.3 2 0 3.4-0.5 4.2-1.5 0.8-1 1.2-3.1 1.2-6.4 0-4.5-0.5-7.2-1.5-8.4-1.1-1.1-6.6-4.5-16.5-10-8.3-4.7-13.4-8.9-15.3-12.8-1.8-3.8-2.7-8.4-2.7-13.6 0-7.5 1-13 3-16.5s5.3-6.3 10-8.2c4.7-1.9 10.2-2.9 16.4-2.9 6.2 0 11.5 0.8 15.8 2.4 4.3 1.6 7.7 3.6 10 6.2s3.7 5 4.2 7.2 0.7 5.7 0.7 10.3v5.5z" fill="#FFFFFF" /></svg>