<?xml version="1.0" standalone="no"?><!DOCTYPE svg PUBLIC "-//W3C//DTD SVG 1.1//EN" "http://www.w3.org/Graphics/SVG/1.1/DTD/svg11.dtd"><svg class="icon" width="200px" height="200.00px" viewBox="0 0 1024 1024" version="1.1" xmlns="http://www.w3.org/2000/svg"><path d="M182.6 577.2c-3.2 0-6.3-1.7-8-4.8-2.3-4.4-0.7-9.8 3.7-12.2 53.9-28.5 81.7-56.5 80.4-81-1.1-20.5-24.3-41.8-62.1-57-14.2-5.7-32.8-15-30.4-30.1 1.8-11.3 14.3-19.3 41.8-26.8 18.2-5 43.1-9.6 74-13.7 52.2-7 104.6-10.4 105.1-10.4 5-0.3 9.2 3.5 9.6 8.4s-3.5 9.2-8.4 9.6c-0.5 0-49.7 3.2-100 9.8-29.3 3.9-53.2 8.1-71.1 12.6-24.6 6.3-31.2 11.4-32.8 13.2 1.2 1.5 5.4 5.4 18.9 10.8 26.5 10.7 71.4 34.3 73.4 72.7 0.8 15.8-5.9 31.8-20 47.6-14.8 16.6-38.4 33.6-70 50.3-1.3 0.7-2.7 1-4.1 1z" fill="#330867" /><path d="M121.3 884c-5 0-9-4-9-9V567c0-5 4-9 9-9h783.5c5 0 9 4 9 9v308c0 5-4 9-9 9H121.3z" fill="#F7D7FF" /><path d="M904.8 567v308H121.3V567h783.5m0-18H121.3c-9.9 0-18 8.1-18 18v308c0 9.9 8.1 18 18 18h783.5c9.9 0 18-8.1 18-18V567c0-9.9-8.1-18-18-18z" fill="#330867" /><path d="M159.8 660.8c-1.7 0-3-1.3-3-3V606c0-1.7 1.3-3 3-3h80.4c1.7 0 3 1.3 3 3v51.7c0 1.7-1.3 3-3 3h-80.4z" fill="#FFE08A" /><path d="M240.1 606v51.7h-80.4V606h80.4m0-6h-80.4c-3.3 0-6 2.7-6 6v51.7c0 3.3 2.7 6 6 6h80.4c3.3 0 6-2.7 6-6V606c0-3.3-2.6-6-6-6z" fill="#330867" /><path d="M264.1 660.8c-1.7 0-3-1.3-3-3V606c0-1.7 1.3-3 3-3h80.4c1.7 0 3 1.3 3 3v51.7c0 1.7-1.3 3-3 3h-80.4z" fill="#FFE08A" /><path d="M344.5 606v51.7h-80.4V606h80.4m0-6h-80.4c-3.3 0-6 2.7-6 6v51.7c0 3.3 2.7 6 6 6h80.4c3.3 0 6-2.7 6-6V606c0-3.3-2.7-6-6-6z" fill="#330867" /><path d="M472.8 660.8c-1.7 0-3-1.3-3-3V606c0-1.7 1.3-3 3-3h80.4c1.7 0 3 1.3 3 3v51.7c0 1.7-1.3 3-3 3h-80.4z" fill="#FFE08A" /><path d="M553.2 606v51.7h-80.4V606h80.4m0-6h-80.4c-3.3 0-6 2.7-6 6v51.7c0 3.3 2.7 6 6 6h80.4c3.3 0 6-2.7 6-6V606c0-3.3-2.7-6-6-6z" fill="#330867" /><path d="M368.5 660.8c-1.7 0-3-1.3-3-3V606c0-1.7 1.3-3 3-3h80.4c1.7 0 3 1.3 3 3v51.7c0 1.7-1.3 3-3 3h-80.4z" fill="#FFE08A" /><path d="M448.8 606v51.7h-80.4V606h80.4m0-6h-80.4c-3.3 0-6 2.7-6 6v51.7c0 3.3 2.7 6 6 6h80.4c3.3 0 6-2.7 6-6V606c0-3.3-2.6-6-6-6z" fill="#330867" /><path d="M577.2 660.8c-1.7 0-3-1.3-3-3V606c0-1.7 1.3-3 3-3h80.4c1.7 0 3 1.3 3 3v51.7c0 1.7-1.3 3-3 3h-80.4z" fill="#FFE08A" /><path d="M657.5 606v51.7h-80.4V606h80.4m0-6h-80.4c-3.3 0-6 2.7-6 6v51.7c0 3.3 2.7 6 6 6h80.4c3.3 0 6-2.7 6-6V606c0-3.3-2.6-6-6-6z" fill="#330867" /><path d="M681.5 660.8c-1.7 0-3-1.3-3-3V606c0-1.7 1.3-3 3-3h80.4c1.7 0 3 1.3 3 3v51.7c0 1.7-1.3 3-3 3h-80.4z" fill="#FFE08A" /><path d="M761.9 606v51.7h-80.4V606h80.4m0-6h-80.4c-3.3 0-6 2.7-6 6v51.7c0 3.3 2.7 6 6 6h80.4c3.3 0 6-2.7 6-6V606c0-3.3-2.7-6-6-6z" fill="#330867" /><path d="M785.9 660.8c-1.7 0-3-1.3-3-3V606c0-1.7 1.3-3 3-3h80.4c1.7 0 3 1.3 3 3v51.7c0 1.7-1.3 3-3 3h-80.4z" fill="#FFE08A" /><path d="M866.3 606v51.7h-80.4V606h80.4m0-6h-80.4c-3.3 0-6 2.7-6 6v51.7c0 3.3 2.7 6 6 6h80.4c3.3 0 6-2.7 6-6V606c0-3.3-2.7-6-6-6z" fill="#330867" /><path d="M159.8 751c-1.7 0-3-1.3-3-3v-51.7c0-1.7 1.3-3 3-3h112.7c1.7 0 3 1.3 3 3V748c0 1.7-1.3 3-3 3H159.8z" fill="#FFE08A" /><path d="M272.5 696.2V748H159.8v-51.7h112.7m0-6.1H159.8c-3.3 0-6 2.7-6 6V748c0 3.3 2.7 6 6 6h112.7c3.3 0 6-2.7 6-6v-51.7c0-3.4-2.7-6.1-6-6.1z" fill="#330867" /><path d="M294.5 751c-1.7 0-3-1.3-3-3v-51.7c0-1.7 1.3-3 3-3h80.4c1.7 0 3 1.3 3 3V748c0 1.7-1.3 3-3 3h-80.4z" fill="#FFE08A" /><path d="M374.9 696.2V748h-80.4v-51.7h80.4m0-6.1h-80.4c-3.3 0-6 2.7-6 6V748c0 3.3 2.7 6 6 6h80.4c3.3 0 6-2.7 6-6v-51.7c0-3.4-2.7-6.1-6-6.1z" fill="#330867" /><path d="M398.9 751c-1.7 0-3-1.3-3-3v-51.7c0-1.7 1.3-3 3-3h80.4c1.7 0 3 1.3 3 3V748c0 1.7-1.3 3-3 3h-80.4z" fill="#FFE08A" /><path d="M479.2 696.2V748h-80.4v-51.7h80.4m0-6.1h-80.4c-3.3 0-6 2.7-6 6V748c0 3.3 2.7 6 6 6h80.4c3.3 0 6-2.7 6-6v-51.7c0-3.4-2.6-6.1-6-6.1z" fill="#330867" /><path d="M502 751c-1.7 0-3-1.3-3-3v-51.7c0-1.7 1.3-3 3-3h80.4c1.7 0 3 1.3 3 3V748c0 1.7-1.3 3-3 3H502z" fill="#FFE08A" /><path d="M582.3 696.2V748H502v-51.7h80.3m0-6.1H502c-3.3 0-6 2.7-6 6V748c0 3.3 2.7 6 6 6h80.4c3.3 0 6-2.7 6-6v-51.7c-0.1-3.4-2.7-6.1-6.1-6.1z" fill="#330867" /><path d="M606 751c-1.7 0-3-1.3-3-3v-51.7c0-1.7 1.3-3 3-3h80.4c1.7 0 3 1.3 3 3V748c0 1.7-1.3 3-3 3H606z" fill="#FFE08A" /><path d="M686.4 696.2V748H606v-51.7h80.4m0-6.1H606c-3.3 0-6 2.7-6 6V748c0 3.3 2.7 6 6 6h80.4c3.3 0 6-2.7 6-6v-51.7c0-3.4-2.7-6.1-6-6.1z" fill="#330867" /><path d="M709.8 751c-1.7 0-3-1.3-3-3v-51.7c0-1.7 1.3-3 3-3h156.5c1.7 0 3 1.3 3 3V748c0 1.7-1.3 3-3 3H709.8z" fill="#FFE08A" /><path d="M866.3 696.2V748H709.8v-51.7h156.5m0-6.1H709.8c-3.3 0-6 2.7-6 6V748c0 3.3 2.7 6 6 6h156.5c3.3 0 6-2.7 6-6v-51.7c0-3.4-2.7-6.1-6-6.1z" fill="#330867" /><path d="M159.8 841.1c-1.7 0-3-1.3-3-3v-51.7c0-1.7 1.3-3 3-3h80.4c1.7 0 3 1.3 3 3v51.7c0 1.7-1.3 3-3 3h-80.4z" fill="#FFE08A" /><path d="M240.1 786.4v51.7h-80.4v-51.7h80.4m0-6h-80.4c-3.3 0-6 2.7-6 6v51.7c0 3.3 2.7 6 6 6h80.4c3.3 0 6-2.7 6-6v-51.7c0-3.3-2.6-6-6-6z" fill="#330867" /><path d="M264.1 841.1c-1.7 0-3-1.3-3-3v-51.7c0-1.7 1.3-3 3-3h80.4c1.7 0 3 1.3 3 3v51.7c0 1.7-1.3 3-3 3h-80.4z" fill="#FFE08A" /><path d="M344.5 786.4v51.7h-80.4v-51.7h80.4m0-6h-80.4c-3.3 0-6 2.7-6 6v51.7c0 3.3 2.7 6 6 6h80.4c3.3 0 6-2.7 6-6v-51.7c0-3.3-2.7-6-6-6z" fill="#330867" /><path d="M368.5 841.1c-1.7 0-3-1.3-3-3v-51.7c0-1.7 1.3-3 3-3H656c1.7 0 3 1.3 3 3v51.7c0 1.7-1.3 3-3 3H368.5z" fill="#FFE08A" /><path d="M656 786.4v51.7H368.5v-51.7H656m0-6H368.5c-3.3 0-6 2.7-6 6v51.7c0 3.3 2.7 6 6 6H656c3.3 0 6-2.7 6-6v-51.7c0-3.3-2.7-6-6-6z" fill="#330867" /><path d="M681.5 841.1c-1.7 0-3-1.3-3-3v-51.7c0-1.7 1.3-3 3-3h80.4c1.7 0 3 1.3 3 3v51.7c0 1.7-1.3 3-3 3h-80.4z" fill="#FFE08A" /><path d="M761.9 786.4v51.7h-80.4v-51.7h80.4m0-6h-80.4c-3.3 0-6 2.7-6 6v51.7c0 3.3 2.7 6 6 6h80.4c3.3 0 6-2.7 6-6v-51.7c0-3.3-2.7-6-6-6z" fill="#330867" /><path d="M785.9 841.1c-1.7 0-3-1.3-3-3v-51.7c0-1.7 1.3-3 3-3h80.4c1.7 0 3 1.3 3 3v51.7c0 1.7-1.3 3-3 3h-80.4z" fill="#FFE08A" /><path d="M866.3 786.4v51.7h-80.4v-51.7h80.4m0-6h-80.4c-3.3 0-6 2.7-6 6v51.7c0 3.3 2.7 6 6 6h80.4c3.3 0 6-2.7 6-6v-51.7c0-3.3-2.7-6-6-6z" fill="#330867" /><path d="M516.8 475.3c-72 0-127-11-163.4-32.7-28.4-16.9-34.8-34.4-35.4-36.3-0.3-0.9-0.4-1.8-0.4-2.8V248.4c0-5 4-9 9-9h383.6c5 0 9 4 9 9v155.1c0 1.1-0.2 2.2-0.6 3.2-0.7 1.9-7.9 19.2-36.9 36-37.4 21.7-92.9 32.6-164.9 32.6z" fill="#66C1FF" /><path d="M710.2 248.4v155.1s-23.6 62.8-193.4 62.8-190.3-62.8-190.3-62.8V248.4h383.7m0-18H326.5c-9.9 0-18 8.1-18 18v155.1c0 1.9 0.3 3.8 0.9 5.6 1.2 3.7 8.8 23 39.4 41.3 37.8 22.5 94.3 33.9 168 33.9 73.6 0 130.6-11.4 169.4-33.8 31.1-18 39.5-37 40.8-40.6 0.8-2 1.2-4.2 1.2-6.3V248.4c0-9.9-8.1-18-18-18z" fill="#330867" /><path d="M710.2 403.5s-23.6 62.8-193.4 62.8-190.3-62.8-190.3-62.8v-73.7s65.8 64.7 186.5 64.7 197.2-64.7 197.2-64.7v73.7z" fill="#18A3D3" /><path d="M518.4 327.3c-0.8 0-1.5-0.1-2.3-0.3l-318.4-83.1c-4-1-6.7-4.6-6.7-8.7s2.8-7.7 6.7-8.7l318.4-83.1c0.7-0.2 1.5-0.3 2.3-0.3s1.5 0.1 2.3 0.3l318.3 83c4 1 6.7 4.6 6.7 8.7s-2.8 7.7-6.7 8.7L520.6 327c-0.7 0.2-1.5 0.3-2.2 0.3z" fill="#66C1FF" /><path d="M518.4 152l318.4 83.1-318.4 83.1L200 235.1 518.4 152m0-18c-1.5 0-3.1 0.2-4.5 0.6l-318.4 83.1c-7.9 2.1-13.5 9.2-13.5 17.4s5.5 15.3 13.5 17.4l318.4 83.1c1.5 0.4 3 0.6 4.5 0.6s3.1-0.2 4.5-0.6l318.4-83.1c7.9-2.1 13.5-9.2 13.5-17.4s-5.5-15.3-13.5-17.4l-318.4-83.1c-1.5-0.4-3-0.6-4.5-0.6z" fill="#330867" /><path d="M469.9 226.8a43.1 21 0 1 0 86.2 0 43.1 21 0 1 0-86.2 0Z" fill="#66C1FF" /><path d="M513 214.8c18.9 0 34.1 5.4 34.1 12s-15.3 12-34.1 12-34.1-5.4-34.1-12 15.3-12 34.1-12m0-18c-11.1 0-21.8 1.6-30.1 4.6-19.9 7-22 20.2-22 25.5s2.1 18.5 22 25.5c8.3 2.9 19 4.6 30.1 4.6 11.1 0 21.8-1.6 30.1-4.6 19.9-7 22-20.2 22-25.5s-2.1-18.5-22-25.5c-8.3-3-19-4.6-30.1-4.6z" fill="#330867" /><path d="M689.2 418.3c-0.1 0-0.1 0 0 0-5 0-9-4.1-9-9l0.7-128.7-135.9-33c-4.8-1.2-7.8-6-6.6-10.9s6-7.8 10.9-6.6L692 264.7c4.1 1 6.9 4.6 6.9 8.8l-0.7 135.9c-0.1 4.9-4.1 8.9-9 8.9z" fill="#330867" /><path d="M656.1 535c-1.7 0-3-1.3-3-3v-46.8c0-1.7 1.3-3 3-3s3 1.3 3 3V532c0 1.7-1.3 3-3 3zM667.8 535c-1.7 0-3-1.3-3-3v-46.8c0-1.7 1.3-3 3-3s3 1.3 3 3V532c0 1.7-1.3 3-3 3zM679.5 535c-1.7 0-3-1.3-3-3v-46.8c0-1.7 1.3-3 3-3s3 1.3 3 3V532c0 1.7-1.3 3-3 3zM691.2 535c-1.7 0-3-1.3-3-3v-46.8c0-1.7 1.3-3 3-3s3 1.3 3 3V532c0 1.7-1.3 3-3 3zM702.9 535c-1.7 0-3-1.3-3-3v-46.8c0-1.7 1.3-3 3-3s3 1.3 3 3V532c0 1.7-1.3 3-3 3zM714.6 535c-1.7 0-3-1.3-3-3v-46.8c0-1.7 1.3-3 3-3s3 1.3 3 3V532c0 1.7-1.3 3-3 3zM726.3 535c-1.7 0-3-1.3-3-3v-46.8c0-1.7 1.3-3 3-3s3 1.3 3 3V532c0 1.7-1.3 3-3 3z" fill="#DD365E" /><path d="M690.7 391c-0.1 1-1.5 1-1.7 0-0.1-0.6-0.8-0.9-1.3-0.5-6.4 5-37.9 30.8-37 59.2 0.7 24.4 0.3 32.4 0.1 34.7 0 0.5 0.3 0.9 0.8 0.9h76.5c0.5 0 0.9-0.4 0.8-0.9-0.2-2.4-0.6-10.3 0.1-34.7 0.8-28.4-30.6-54.2-37-59.2-0.4-0.5-1.2-0.2-1.3 0.5z" fill="#FC6B79" /><path d="M728.2 494.2h-76.5c-2.8 0-5.4-1.2-7.3-3.2-1.9-2-2.8-4.8-2.5-7.5 0.2-1.7 0.6-8.9-0.1-33.6-1-31.9 30.8-59 40.5-66.6 2.2-1.7 5-2.4 7.7-1.9 2.7-0.5 5.5 0.2 7.7 1.9 9.7 7.5 41.5 34.6 40.5 66.5-0.7 24.7-0.3 32-0.1 33.6 0.3 2.7-0.7 5.5-2.5 7.5-2 2.1-4.7 3.3-7.4 3.3z m-8.2-9.1z m-59.9-8.9h59.6c-0.1-5.6 0-14 0.4-26.9 0.6-20.4-20.6-40.8-29.7-48.6h-1c-9.2 7.9-30.3 28.2-29.7 48.6 0.4 12.9 0.4 21.3 0.4 26.9z m20.1-83.9v0z m19.4 0z m-17.8-2.7z" fill="#330867" /></svg>