<?xml version="1.0" standalone="no"?><!DOCTYPE svg PUBLIC "-//W3C//DTD SVG 1.1//EN" "http://www.w3.org/Graphics/SVG/1.1/DTD/svg11.dtd"><svg class="icon" width="200px" height="200.00px" viewBox="0 0 1024 1024" version="1.1" xmlns="http://www.w3.org/2000/svg"><path d="M514.4 906.4c-0.9 0-1.9-0.1-2.9-0.3-7-1.2-9.3-14.8-12.5-37-1.3-8.9-2.7-18.9-4.2-21.2-12.7-18.7-12.2-27.6 2.2-37.9 6.1-4.4 14.8-32.4 22.6-73.2-14.3-20.2-25.7-37.5-34.8-52.8-16-26.8-12.5-50.3-6.8-65.3 6.2-16.2 16-25.9 16.4-26.3 0.2-0.2 0.3-0.3 0.5-0.4 1.3-0.8 30.9-18.8 48.3-18.8 4.6 0 8.1 1.2 10.5 3.7 2.3 2.4 3.5 5.7 3.4 10-0.3 19.3-16 37.6-26.4 49.7-4 4.7-9.1 10.6-9.2 12.4 0 0.5-0.1 1-0.1 1.6-0.4 6-1.3 18.4 4.5 24.5 2.4 2.6 5.9 3.9 10.5 3.9 0.7 0 1.4 0 2.1-0.1 14.5-1 22.5-65.9 23.5-111.7 0-1.1 0.7-2.1 1.6-2.6 1-0.5 24-12.1 43.5-12.1 16.4 0 25.9 8.1 27.6 23.5 3.4 31.9-30.4 83.3-50.6 114-6.4 9.8-11.5 17.5-13.4 21.5-8 17.1-1.8 43.8 14.3 62 2.6 3 5.1 5.7 7.4 8.2 16.2 17.9 24.4 26.9 11.6 39.5-5.8 5.6-11.3 30.5-14.2 43.8-0.6 2.8-1.2 5.3-1.6 7.2-1.9 7.8-5.1 11.8-9.7 11.8-3 0-6.1-1.9-9.5-5.8-0.3-0.3-0.5-0.7-0.6-1.1-1.3-4.6-2.8-23.8-4.6-50.5-1-14.1-2.1-30.1-2.6-32.1-0.7-1.8-8.2-12-16.2-22.8-5.4 15-13.2 36.7-16.1 46.8-3.6 12-4.1 52.5-4.4 69.7-0.1 7.4-0.1 8.3-0.2 8.9 0 0.1 0 0.2-0.1 0.4-1 6-4.3 8.9-9.8 8.9z" fill="#F0BEFC" /><path d="M607.2 555.6c12.3 0 22.9 4.9 24.6 20.9 4.3 40.8-55.7 116.7-63.8 134-8.1 17.3-3.1 45.2 14.8 65.3 21.6 24.4 31.3 31.5 19.1 43.6-7.6 7.5-13.8 40.5-16.7 52.5-1.6 6.7-4 9.5-6.7 9.5-2.2 0-4.6-1.8-7.2-4.7-2.4-8.2-5.8-77.3-7.2-82.6-0.6-2.2-8.6-12.9-20-28.3-5 13.9-14.7 40.7-18.1 52.2-4.7 15.8-4.3 77.1-4.7 78.9-0.3 1.6-0.6 6.7-6.9 6.7-0.7 0-1.5-0.1-2.4-0.2-8.6-1.4-10.1-49.7-14.8-56.9-12.2-18-11.2-24.8 1.4-33.9 10-7.2 20.3-56.4 24-76.3-12-16.9-24.7-35.7-35.4-53.6-29.8-49.9 9.1-87.9 9.1-87.9s30-18.3 46.7-18.3c6.5 0 11.1 2.8 10.9 10.7-0.5 27.9-35.1 53.8-35.6 61.9-0.5 7.9-3.6 33.2 17.8 33.2 0.8 0 1.6 0 2.4-0.1 24-1.9 26.4-114.8 26.4-114.8s23.2-11.8 42.3-11.8m0-6c-20.3 0-43.9 11.9-44.9 12.4-2 1-3.2 3-3.3 5.2 0 0.1-0.1 4.7-0.5 11.9-0.7-1.6-1.6-3-2.8-4.2-3-3-7.3-4.6-12.7-4.6-17.9 0-46.6 17.3-49.8 19.2-0.4 0.2-0.7 0.5-1.1 0.8-0.4 0.4-10.7 10.6-17.1 27.4-5.9 15.6-9.6 40 7.1 67.9 9 15.1 20.2 32.1 34.2 51.9-1.9 9.6-5.2 25.5-9.1 40-7.1 25.9-11.6 29.7-12.1 30.1-5.9 4.2-12 9.7-12.5 18.1-0.4 6.4 2.4 13.4 9.5 23.9 1.2 2.3 2.8 13 3.8 20.1 3.5 24.2 5.9 38 15 39.5 1.2 0.2 2.3 0.3 3.4 0.3 4.1 0 11.1-1.5 12.8-11.2v-0.3c0.2-0.9 0.2-1.5 0.3-9.5 0.2-15.7 0.8-57.2 4.2-68.9 2.6-8.8 9-26.9 14.2-41.3 6.1 8.2 11.3 15.4 12.4 17.5 0.5 3.2 1.6 18.1 2.5 31.3 1.9 27.7 3.3 46.3 4.7 51.2 0.2 0.8 0.6 1.6 1.2 2.2 3.9 4.6 7.8 6.8 11.7 6.8 3.3 0 6.4-1.7 8.6-4.7 1.7-2.3 3-5.4 3.9-9.4 0.5-2 1-4.4 1.7-7.3 2.5-11.2 8.3-37.3 13.4-42.3 4.5-4.4 9.9-11.4 5.6-21.5-2.6-6.2-8.4-12.6-17.1-22.2-2.2-2.4-4.7-5.2-7.3-8.2-17.6-19.8-20.2-45.1-13.8-58.8 1.8-3.8 7.1-11.9 13.2-21.2 9.9-15.1 23.6-35.8 34.1-56.5 13-25.3 18.5-44.8 17-59.5-1.7-16.8-12.5-26.1-30.4-26.1z m-82.8 100c0.7-1.9 5-6.9 8.5-10.9 8-9.3 18.9-22.1 24.1-36.5-0.6 6.7-1.3 13.9-2.2 21.1-6.5 51.4-16.3 52.8-16.7 52.8-0.7 0.1-1.3 0.1-1.9 0.1-3.7 0-6.4-1-8.3-2.9-4.9-5.2-4-16.7-3.7-22.3 0.1-0.5 0.2-1 0.2-1.4z" fill="#330867" /><path d="M819.4 807.7c-3.4 0-6.7-1.4-9.1-4.1-4.4-5-3.9-12.7 1.1-17.1 27.9-24.4 47.1-49 54.1-69.2 10.9-31.4 12.5-59.1 4.9-81.6-7.7 10.2-16.7 19.7-27 28.1-22.7 18.7-49.2 30.6-74.6 33.6-31.4 3.7-56.8-7.1-69.7-29.6-19.9-34.7-17.7-67.5 5.8-89.8 15.8-15 40.8-24.1 68.4-24.9 28-0.8 55.4 6.5 77.4 20.7 6.7 4.3 12.8 9.3 18.2 14.7 1-2.7 1.9-5.5 2.7-8.3 19.5-66.7-19-143.8-108.5-217.1-79.3-65-188.2-79.7-323.6-43.6-102.4 27.3-162.5 56.1-163.3 56.6-5.7 3.5-13.2 1.6-16.6-4.1-3.5-5.7-1.6-13.2 4.1-16.6 3.3-2 63.3-30.9 169-59.1 62.4-16.7 120.9-23 173.7-18.7 66.8 5.5 124.7 27.9 172.1 66.8 52.2 42.8 88.2 86.7 107 130.6 16.6 38.7 19.8 76.4 9.3 112-2.4 8.2-5.5 16.1-9.2 23.7 3.7 6.5 6.6 13.5 8.8 20.9 8.1 27.1 6 58.6-6.2 93.7-8.5 24.5-29.6 52-61.1 79.5-2 1.9-4.9 2.9-7.7 2.9zM778 577.2c-23.1 0-44.3 6.8-56.4 18.3-19.2 18.2-11.4 42.7-1.4 60.1 10.7 18.8 33.3 19.1 45.9 17.6 31-3.7 69-25.7 91.4-61.5-5.4-6.7-12-12.7-19.9-17.7-18.1-11.6-39.6-16.8-59.6-16.8z" fill="#FFE08A" /><path d="M819.4 810.7c-4.4 0-8.5-1.9-11.4-5.2-5.5-6.3-4.9-15.8 1.4-21.3 27.5-24.1 46.4-48.2 53.3-68 9.8-28.2 12-53.2 6.5-74.2-7 8.7-15 16.7-23.9 24-23.1 19-50.2 31.2-76.1 34.3-32.7 3.9-59.2-7.5-72.7-31.1-20.6-36-18.3-70.1 6.3-93.4 16.4-15.5 42-24.9 70.4-25.7 28.6-0.8 56.6 6.7 79.1 21.2 5.5 3.5 10.6 7.5 15.3 11.8 0.4-1.2 0.8-2.5 1.2-3.7 19.1-65.4-19-141.4-107.5-213.9-78.5-64.4-186.5-78.9-320.9-43-101.3 27-160.9 55.5-162.6 56.3-7.1 4.2-16.4 1.9-20.7-5.2-4.3-7.1-2-16.4 5.1-20.8 5.2-3.1 67.1-32 169.8-59.5 62.8-16.8 121.6-23.1 174.7-18.8 67.4 5.5 125.9 28.2 173.7 67.5 52.5 43.1 88.8 87.4 107.9 131.7 16.9 39.4 20.1 77.8 9.5 114.1-2.3 7.8-5.2 15.4-8.7 22.8 3.4 6.3 6.2 13.1 8.3 20.1 8.3 27.7 6.2 59.9-6.2 95.6-8.7 25-30.1 52.9-61.9 80.8-2.7 2.3-6.3 3.6-9.9 3.6z m52.1-181.4l1.8 5.4c7.9 23.4 6.2 51.5-4.9 83.6-7.2 20.7-26.7 45.8-55 70.5-3.8 3.3-4.2 9.1-0.9 12.9 1.7 2 4.2 3.1 6.9 3.1 2.2 0 4.3-0.8 6-2.3 31-27.2 51.9-54.2 60.2-78.2 12-34.5 14.1-65.4 6.1-91.9-2.1-7.1-5-13.9-8.6-20.3l-0.8-1.4 0.7-1.4c3.7-7.5 6.7-15.3 9-23.2 10.2-34.9 7.1-72-9.2-110-18.7-43.5-54.4-87-106.2-129.5-46.9-38.5-104.2-60.7-170.4-66.1-52.5-4.3-110.6 2-172.7 18.6-109.8 29.4-167.8 58.6-168.2 58.8-4.3 2.6-5.7 8.2-3.1 12.5 2.6 4.3 8.2 5.7 12.5 3.1 0.4-0.2 60.3-29.3 164.1-56.9 136.4-36.4 246.2-21.5 326.3 44.2 90.4 74.1 129.3 152.4 109.4 220.3-0.8 2.9-1.8 5.7-2.8 8.5l-1.6 4.4-3.3-3.3c-5.3-5.3-11.3-10.1-17.7-14.3-21.4-13.8-48.3-21-75.6-20.2-26.9 0.8-51.1 9.6-66.4 24.1-22.5 21.3-24.4 52.7-5.3 86.1 12.3 21.4 36.6 31.7 66.8 28.2 24.8-2.9 50.7-14.6 73-32.9 10-8.2 18.9-17.5 26.5-27.6l3.4-4.8z m-114.4 47.5c-13.3 0-30.3-3.6-39.5-19.7-15-26.3-14.3-48.4 2-63.8 12.6-12 34.5-19.1 58.4-19.1 22.2 0 43.9 6.1 61.2 17.3 8 5.2 15 11.4 20.6 18.4l1.3 1.7-1.1 1.8c-24.2 38.7-64.5 59.4-93.6 62.9-2.7 0.2-5.9 0.5-9.3 0.5z m20.9-96.6c-22.5 0-42.8 6.5-54.3 17.5-17.8 16.9-10.3 40-0.9 56.5 9.9 17.3 31.1 17.5 42.9 16.1 27.2-3.2 64.7-22.5 88-58.3-5-5.8-10.9-11-17.8-15.4-16.3-10.6-36.8-16.4-57.9-16.4z" fill="#330867" /><path d="M470.7 612.2c-8.8 0-15.3-1.4-20.1-4.4-5.7-3.5-10.6-6.8-15-9.7-9.8-6.6-16.8-11.3-23.1-11.9-4-0.4-13.5-2-15.3-8.7-1.4-5.3 2.5-11.1 11.9-17.8 5.3-3.8 14.4-9.2 24.9-15.5 26.5-15.8 70.8-42.2 72.8-56.4 1.9-14.2 0.9-20 0.4-22-7.3-1.9-38.4-10.9-45.3-29.9-3.3-9-0.4-16.6 2.2-23.3 2-5.2 3.8-9.7 2.1-13.9-0.5-0.5-3.2-2.3-18.4-3.5-10.8-0.9-25-1.2-40-1.6-35.1-0.9-74.9-2-93-9.6-3.2-0.2-6.7-0.5-10.5-0.7-9.5-0.7-20.3-1.5-30.3-1.5-8.4 0-14.9 0.6-19.8 1.7-2.2 0.5-4.2 0.8-5.9 0.8-6.8 0-7.9-4.3-8.1-5.6-0.5-3.5 2.1-7.7 5.7-10.2-1.2-0.2-2.5-0.4-3.9-0.6h-0.5c-1.3 0-3.1 0.3-5 0.7-2.4 0.4-4.8 0.9-7.2 0.9-3.2 0-5.4-0.9-7-2.7-1.7-2-2.2-4.7-1.6-8.5 1.5-8.8 15.8-10.7 27.6-10.7 16.4 0 36.2 3.7 45.9 8.5 1.5 0.8 5.4 1.7 15.2 1.7 14.5 0 36.3-1.9 59.5-4 27.7-2.5 56.4-5 79.2-5 11.1 0 19.8 0.6 26.3 1.9v-10.8c-2.9-2.7-11-10.7-17.9-22.5-11.2-19.1-13.6-39-7.2-57.5 4.3-16.3 39.9-31.6 59-31.6 5.6 0 9.8 1.2 12.7 3.5 13.3 10.9 22.5 40.9 13.8 61.8 0 0.1-0.1 0.2-0.2 0.3-8.5 15.1-16.2 22.6-21.1 26.2-1.2 0.8-1.7 2.3-1.4 3.7l2.5 12.6c0.4 2.1 1.9 3.8 3.8 4.5 2.7 1 5.4 1.5 8 1.5 3.2 0 6.2-0.7 9-2.2 10.3-5.3 18.8-50.1 9.5-86.6-9.3-36.6-34.7-93.5-39.2-100.7-3.2-5.1-14.9-10.7-26.5-10.7-3.1 0-5.9 0.4-8.5 1.2-0.3 0.1-0.6 0.1-0.9 0.1-0.9 0-1.8-0.4-2.4-1.2-2.5-3.3-3-6.9-1.4-10.1 1.5-3 4.7-5 8.7-5.6-1.6-4-5.2-5.3-12.1-7.4-2.1-0.6-4.4-1.4-6.8-2.3-0.4-0.2-0.8-0.4-1.2-0.8-2.9-3.1-3.7-7.5-2.1-11 1.1-2.4 4.2-6.6 13-6.6 4.8 0 10.6 1.2 17.3 3.6 29 10.3 86 102.9 96.8 128.9 11.4 27.2 6.6 90 2.7 112.2 0.6 6.3 7.7 81.8 8.6 113 4.2 0.5 10.3 0.8 18.3 0.8 10.5 0 23.2-0.4 35.4-0.9 11.9-0.4 24.3-0.8 34.3-0.8 20.7 0 25.4 1.8 26.9 5 2.7 5.9-0.6 11-2.6 14-0.1 0.1-0.1 0.2-0.2 0.3 3.4 0.3 10.3 0.6 16.6 0.8 23.6 0.8 34.7 1.6 37.9 3.7 2.6 1.7 6.8 6.6 7.9 13.3 1 6-0.7 12.1-4.9 17.5-5.3 6.8-15.3 13.7-26.2 13.9 0.3 2.1 1.1 4.4 1.9 6.7 1.7 4.8 3.7 10.3 0.7 14.8-2.5 3.7-7.9 5.7-16.9 6.2-8.2 0.4-15.8 0.6-22.4 0.6-6.4 0-10.7-0.2-13.3-0.4-1.2 7.5-6 26.4-25.3 31.3-14.7 3.8-22.4 4.6-26.3 4.6-0.8 0-1.4 0-1.9-0.1-6 2.3-44.2 16.5-75 16.5-1.8 0-3.5 0-5.2-0.1-1.6-0.1-3.3-0.1-5.1-0.1-12.2 0-26.1 2.2-39.5 4.4-12.7 2-24.9 4-35.3 4z" fill="#FC6B79" /><path d="M465.6 101.5c4 0 9.4 1 16.3 3.4 26.9 9.6 83.4 99.3 95.1 127.2 11 26.4 6.2 89.8 2.4 110.9 0 0 8.2 85 8.6 115.7 4.9 0.9 12.3 1.2 21.2 1.2 20.9 0 49.6-1.7 69.7-1.7 13.4 0 23 0.8 24.1 3.3 3.6 7.9-7.5 14.2-2.8 15.6 4.7 1.4 50.6 1.1 55.7 4.4 3.6 2.3 12.1 13.8 2.3 26.5-5.2 6.7-14.8 12.8-24.5 12.8-0.8 0-1.5 0-2.3-0.1-1.8 10.8 16.3 26.3-11.4 27.7-9.2 0.5-16.6 0.6-22.2 0.6-11.3 0-16-0.6-16-0.6s-1.1 25.9-23.4 31.7c-14.9 3.8-22.2 4.5-25.5 4.5-1.6 0-2.2-0.2-2.2-0.2S588.6 601 556 601c-1.7 0-3.4 0-5-0.1-1.7-0.1-3.5-0.1-5.3-0.1-24.1 0-54 8.4-75.1 8.4-7.5 0-13.9-1.1-18.5-3.9-18.7-11.5-29.3-21.1-39.4-22.1-10.1-1-22.1-6.7-1.9-21.1 20.2-14.4 96-52.8 98.9-73.9 2.9-21.1-0.5-25-0.5-25s-37.4-8.5-44.7-28.3c-5.5-15.1 9-26.2 4.2-37.4s-120.4-2-153.5-16.4c-11-0.6-27.1-2.3-41.5-2.3-7.6 0-14.8 0.5-20.5 1.8-2.1 0.5-3.8 0.7-5.2 0.7-9.5 0-4-10.1 2.3-11.8 7.2-1.9-2.2-3.9-8.2-4.6h-0.9c-3.3 0-8.3 1.6-12.2 1.6-3.8 0-6.6-1.5-5.6-7.7 1-5.9 11.6-8.2 24.6-8.2 15.8 0 35 3.4 44.5 8.2 2.8 1.4 8.6 2 16.5 2 31.5 0 96.4-9 138.7-9 12.1 0 22.3 0.7 29.3 2.6v-15.8s-40.3-34.6-25.2-77.8c3.5-14 36.8-29.5 56.2-29.5 4.6 0 8.4 0.9 10.8 2.9 12.9 10.6 20.8 39.3 13 58.3-8.5 15.1-16 22.1-20.3 25.2-2.1 1.5-3.1 4.2-2.6 6.7l2.5 12.6c0.6 3.1 2.7 5.6 5.7 6.7 2.4 0.9 5.5 1.7 9 1.7 3.2 0 6.8-0.7 10.4-2.5 12.5-6.5 20.4-53.3 11-90-9.4-36.7-34.6-93.6-39.6-101.6-4-6.3-16.7-12.1-29-12.1-3.2 0-6.4 0.4-9.4 1.3-4.2-5.5-0.3-11.1 7.6-11.1h1c-1.4-11-10.1-11-21.6-15.4-3.5-4.3-2.6-12.5 9.1-12.5m0-6c-10.9 0-14.7 5.8-15.8 8.3-2.1 4.7-1 10.3 2.6 14.3 0.6 0.7 1.4 1.2 2.3 1.6 2.5 0.9 4.9 1.7 7 2.3 3.8 1.2 6.2 2 7.8 3-2.8 1.3-4.9 3.3-6.2 5.8-2.1 4.1-1.4 9.1 1.7 13.2 1.2 1.5 2.9 2.4 4.8 2.4 0.6 0 1.2-0.1 1.7-0.3 2.3-0.7 4.9-1 7.7-1 11.2 0 21.5 5.4 24 9.3 4.5 7.1 29.6 63.4 38.9 99.8 4.1 16.2 5.1 35.9 2.5 54.1-2.6 18.7-7.7 27.7-10.5 29.2-2.4 1.2-5 1.9-7.7 1.9-2.3 0-4.6-0.4-7-1.3-0.9-0.3-1.6-1.2-1.8-2.3l-2.5-12.6c-0.1-0.3 0-0.5 0.3-0.7 5.2-3.8 13.2-11.6 21.9-27.1 0.1-0.2 0.2-0.4 0.3-0.7 4.2-10.1 4.7-22.9 1.6-36-3-12.6-9-23.2-16.3-29.2-3.4-2.8-8.3-4.2-14.6-4.2-20 0-57.1 15.7-61.9 33.8-6.7 19.3-4.1 40 7.5 59.9 6.4 11 13.9 18.8 17.5 22.3v5.9c-6.2-0.9-13.9-1.3-23.3-1.3-23 0-51.7 2.5-79.5 5-23.1 2-44.9 4-59.2 4-10.4 0-13.2-1-13.9-1.3-10.2-5.1-30.1-8.8-47.2-8.8-18.8 0-29.1 4.4-30.6 13.2-0.8 4.6 0 8.3 2.2 10.9 2.1 2.5 5.2 3.8 9.3 3.8 2.6 0 5.3-0.5 7.7-1 0.8-0.1 1.5-0.3 2.2-0.4-1.6 2.4-2.4 5.2-2 8 0.5 4 3.7 8.2 11 8.2 1.9 0 4.1-0.3 6.6-0.9 4.6-1.1 11-1.6 19.1-1.6 9.9 0 20.6 0.8 30.1 1.5 3.6 0.3 7 0.5 10 0.7 18.9 7.6 58.6 8.7 93.6 9.6 14.2 0.4 27.6 0.7 38.1 1.5 12.2 0.9 16.5 2.1 18 2.7 0.7 2.7-0.5 6-2.4 10.7-2.6 6.8-5.9 15.3-2.2 25.4 3.6 9.8 13.1 18.2 28.2 25 7 3.2 13.6 5.2 17.4 6.3 0.4 2.6 0.7 8.2-0.8 19.2-0.3 2.3-3.3 9.4-24.2 24.4-14.3 10.3-32.5 21.1-47.1 29.8-10.6 6.3-19.7 11.7-25.1 15.6-3.9 2.8-15.7 11.2-13.1 21.1 1.6 6 8.1 10 17.9 10.9 5.5 0.5 12.3 5.1 21.7 11.4 4.4 2.9 9.3 6.3 15.1 9.8 5.3 3.2 12.3 4.8 21.7 4.8 10.7 0 23-2 36.1-4.1 13.3-2.1 27-4.3 39-4.3 1.7 0 3.4 0 4.9 0.1 1.7 0.1 3.5 0.2 5.4 0.2 30.4 0 67.7-13.5 75.5-16.5h1.4c4.1 0 12-0.8 27-4.7 11-2.8 19.3-10.3 24.1-21.5 1.5-3.5 2.4-6.9 3-9.6 2.6 0.1 6.2 0.2 10.8 0.2 6.7 0 14.3-0.2 22.5-0.6 6.3-0.3 15.2-1.5 19.2-7.5 3.8-5.7 1.5-12.2-0.4-17.4-0.3-1-0.7-2-1-3 11-1.6 20-8.6 24.8-14.8 6-7.8 6.3-15.1 5.5-19.9-1.2-7.2-5.6-13-9.2-15.3-3.9-2.5-13.3-3.3-39.5-4.2-3.8-0.1-8.2-0.3-11.7-0.5 1.6-3.4 2.7-7.9 0.5-12.8-2.4-5.2-9.3-6.8-29.6-6.8-10.1 0-22.5 0.4-34.4 0.9-12.2 0.4-24.8 0.9-35.3 0.9-6.4 0-11.5-0.2-15.3-0.5-1.1-32.3-7.6-101.4-8.5-110.2 4-22.8 8.6-85.9-2.9-113.5-6.6-15.7-24.4-45.8-42.5-71.6-16.5-23.6-39.7-53.1-56.1-58.9-7.1-2.8-13.3-4-18.4-4z" fill="#330867" /><path d="M493.1 579c-14.4-2.6-60.4-30.6-67.5-26.5-5.9 3.5-10.8 6.4-15 9.5-20.2 14.4-8.2 20.2 1.9 21.1 10.1 1 20.6 10.6 39.4 22.1s65.8-6.2 98.9-4.3c33.1 1.9 79.7-16.4 79.7-16.4s5.4 1.4 27.7-4.3c22.3-5.8 23.4-31.7 23.4-31.7s10.4 1.4 38.2 0c27.7-1.4 9.6-16.9 11.4-27.7 10.4 1.1 21.1-5.4 26.8-12.7 9.8-12.7 1.3-24.1-2.3-26.5-5.1-3.3-51-3-55.7-4.4s6.4-7.7 2.8-15.6c-1-2.3-32.6-3.6-50.7-3.7-9.9 0 30.7 15 33.1 31.9 0.4 3.1 3.3 5.4 6.4 5.2 31.4-2 34.6 12.2 23.2 15.9-13.1 4.3-13.1 31.1-53.6 28-42-3.2-69.6 41.2-87.2 39.8-48.5-20.5-66.5 2.9-80.9 0.3z" fill="#DD365E" /><path d="M827.4 804.7c-41.2 36-94.9 67.8-151.3 89.4-51.9 19.9-103.4 30.1-150.8 30.1-11.8 0-23.3-0.6-34.5-1.9-34.3-3.9-66-13.7-94-29.2-30.6-16.9-57.1-40.8-78.9-70.8-12.2-16.9-22.7-33-31.4-48.4-6.6 1.2-13.1 2.1-19.5 2.6-31.2 2.5-59.4-3.2-81.8-16.6-26.7-16-45-42.2-54.4-77.9-15.9-60.8 9.2-102.5 33.1-126.8 25.2-25.7 53.9-37.3 55.2-37.8 6.2-2.5 13.3 0.6 15.7 6.8 2.5 6.2-0.6 13.3-6.8 15.7-0.2 0.1-25.7 10.5-47.3 32.8-27.9 28.8-36.8 63.5-26.4 103.2 18.1 69.2 70.2 79.8 110.8 76.5 3.2-0.3 6.4-0.6 9.6-1.1-7.7-16.1-13.1-31.1-16.3-45-8.7-37.7 0.9-60.1 10.4-72.4 9.9-12.7 24.4-20.9 42.1-23.6 15.5-2.4 32.6-0.3 48.2 5.8 15.3 6.1 28.1 15.6 37 27.5 10.2 13.6 14.7 29.8 13.1 46.7-1.7 18.3-19.4 38.7-48.4 56-15.2 9.1-32.2 16.4-49.7 21.7 7.5 12.7 16.4 26.1 26.5 40.1 38 52.4 90.5 82.8 156 90.2 115.8 13.1 246-48.8 317.9-111.8m-488.1-153c-13.7 0-27.1 4.3-35.6 15.2-9 11.6-11.1 29.6-5.9 52.1 3.2 13.8 8.9 28.9 17.2 45.4 17.2-4.7 34.2-11.9 49.2-20.8 24.2-14.4 35.9-29.2 36.6-37.4 2.4-25.3-16.5-42.1-34.9-49.4-8.1-3.2-17.4-5.1-26.6-5.1z" fill="#FFE08A" /><path d="M525.2 927.2c-11.9 0-23.6-0.6-34.8-1.9-34.7-3.9-66.7-13.9-95.1-29.6-31-17.1-57.8-41.3-79.9-71.7-11.8-16.2-22-32-30.6-46.8-6 1-11.9 1.8-17.7 2.3-31.8 2.6-60.7-3.3-83.6-17-27.4-16.4-46.2-43.2-55.7-79.7-16.2-62.1 9.4-104.8 33.8-129.7 25.7-26.2 54.9-38 56.2-38.5 3.8-1.5 7.9-1.4 11.6 0.2 3.7 1.6 6.6 4.5 8.1 8.3 1.5 3.8 1.4 7.9-0.2 11.6s-4.5 6.6-8.3 8.1c-0.2 0.1-25.2 10.4-46.3 32.1-27.1 28-35.7 61.7-25.6 100.3 17.6 67.1 68.2 77.5 107.6 74.3 1.8-0.1 3.6-0.3 5.4-0.5-6.8-14.8-11.8-28.9-14.8-41.9-8.9-38.8 1-62.1 10.9-74.9 10.4-13.3 25.6-21.9 44-24.7 16-2.5 33.7-0.4 49.8 6 15.8 6.3 29.1 16.1 38.3 28.5 10.6 14.2 15.4 31.1 13.7 48.8-1.8 19.3-20 40.5-49.8 58.2-14.1 8.4-30.2 15.6-46.7 20.9 7 11.6 15.2 24 24.4 36.6 37.5 51.7 89.3 81.7 153.9 89 114.8 13 244.1-48.5 315.6-111l4 4.5c-65.9 57.4-180.1 114-287.9 114-10.9 0-21.7-0.6-32.3-1.8-66.4-7.5-119.6-38.3-158.1-91.4-10.1-14-19.1-27.6-26.7-40.3l-1.9-3.3 3.7-1.1c17.3-5.2 34.2-12.6 49-21.4 28.2-16.8 45.3-36.3 46.9-53.7 1.5-16.2-2.8-31.6-12.5-44.6-8.6-11.5-20.9-20.6-35.7-26.5-15.1-6-31.6-8-46.6-5.7-16.9 2.6-30.8 10.4-40.2 22.5-9.1 11.7-18.2 33.4-9.8 69.9 3.1 13.6 8.6 28.6 16.1 44.4l1.8 3.7-4.1 0.6c-3.3 0.5-6.6 0.8-9.8 1.1-41.7 3.4-95.3-7.5-113.9-78.7-10.7-40.8-1.5-76.4 27.1-106 22-22.7 48.1-33.4 48.4-33.5 2.3-0.9 4.1-2.6 5-4.9 1-2.2 1-4.7 0.1-7s-2.6-4-4.9-5c-2.2-1-4.7-1-7-0.1-1.2 0.5-29.3 11.8-54.1 37.1-23.3 23.8-47.8 64.6-32.3 124 9.1 34.9 27 60.5 53 76.1 21.8 13.1 49.5 18.7 80 16.2 6.2-0.5 12.7-1.4 19.2-2.5l2.1-0.4 1.1 1.9c8.6 15.2 19.1 31.4 31.3 48.1 21.5 29.7 47.8 53.3 78 70 27.7 15.3 58.9 25 92.9 28.9 11 1.2 22.5 1.9 34.2 1.9 46.9 0 98.6-10.3 149.7-29.9 56.1-21.5 109.5-53 150.4-88.8l4 4.5c-41.4 36.3-95.5 68.2-152.2 89.9-52.1 19.5-104.6 30-152.2 30zM297.4 749.7l-1.1-2.2c-8.3-16.6-14.2-32.1-17.4-46.1-5.4-23.4-3.2-42.2 6.4-54.6 8.2-10.6 21.7-16.4 38-16.4 9.2 0 19 1.9 27.6 5.3 19.5 7.7 39.4 25.6 36.8 52.5-1 11-16 26.5-38.1 39.7-15.1 9-32.3 16.3-49.9 21.1l-2.3 0.7z m26-113.2c-14.4 0-26.2 5-33.3 14.1-8.5 10.9-10.3 28-5.3 49.6 3 12.9 8.3 27.1 15.8 42.5 16.3-4.7 32.2-11.5 46.1-19.8 23.2-13.8 34.5-27.9 35.2-35.1 2.2-23.6-15.6-39.4-33.1-46.3-8-3.3-17-5-25.4-5z" fill="#330867" /></svg>