<?xml version="1.0" standalone="no"?><!DOCTYPE svg PUBLIC "-//W3C//DTD SVG 1.1//EN" "http://www.w3.org/Graphics/SVG/1.1/DTD/svg11.dtd"><svg class="icon" width="200px" height="200.00px" viewBox="0 0 1024 1024" version="1.1" xmlns="http://www.w3.org/2000/svg"><path d="M501.7 758.8c-71.7 0-140.4-21.7-198.8-62.9-6.3-4.4-8.2-12.9-4.4-19.6C453 401.7 476.9 357.1 502.3 309.9c19-35.4 38.6-71.9 114.9-208.4 3.7-6.7 11.9-9.5 18.9-6.5 61.8 26.1 114.3 69.4 152 125.1 38.6 57.1 59 123.9 59 193.2 0 46.6-9.1 91.9-27.2 134.5-17.4 41.1-42.3 78.1-74 109.8s-68.7 56.6-109.8 74c-42.5 18-87.8 27.2-134.4 27.2z m-170.3-79.9c50.8 32.6 109.4 49.8 170.3 49.8 174 0 315.5-141.5 315.5-315.5 0-122.6-70.4-233.1-180.4-285.2-70.6 126.4-89.6 161.8-108 196-25.1 46.7-48.8 90.9-197.4 354.9z" fill="#330867" /><path d="M489.8 778.5c-42 0-82.6-8.6-120.8-25.5-10.1-4.5-14.7-16.3-10.2-26.4 4.5-10.1 16.3-14.7 26.4-10.2 34.8 15.4 71.9 22.8 110.3 22 18.6-0.4 37.1-2.8 55-7 10.8-2.6 21.5 4.1 24.1 14.8 2.6 10.7-4.1 21.5-14.8 24.1-20.7 4.9-42 7.7-63.4 8.1-2.3 0.1-4.4 0.1-6.6 0.1z" fill="#330867" /><path d="M475.1 691c-77.5 0-150.4-30.2-205.2-85s-85-127.7-85-205.2 30.2-150.4 85-205.2c54.8-54.8 127.7-85 205.2-85s150.4 30.2 205.2 85c54.8 54.8 85 127.7 85 205.2s-30.2 150.4-85 205.2-127.7 85-205.2 85z" fill="#66C1FF" /><path d="M475.1 119.5c155.3 0 281.2 125.9 281.2 281.2 0 155.3-125.9 281.2-281.2 281.2S193.8 556.1 193.8 400.7c0-155.3 126-281.2 281.3-281.2m0-18c-40.4 0-79.6 7.9-116.5 23.5-35.6 15.1-67.6 36.6-95.1 64.1-27.5 27.5-49 59.5-64.1 95.1-15.6 36.9-23.5 76.1-23.5 116.5s7.9 79.6 23.5 116.5c15.1 35.6 36.6 67.6 64.1 95.1 27.5 27.5 59.5 49 95.1 64.1 36.9 15.6 76.1 23.5 116.5 23.5s79.6-7.9 116.5-23.5c35.6-15.1 67.6-36.6 95.1-64.1 27.5-27.5 49-59.5 64.1-95.1 15.6-36.9 23.5-76.1 23.5-116.5s-7.9-79.6-23.5-116.5c-15.1-35.6-36.6-67.6-64.1-95.1-27.5-27.5-59.5-49-95.1-64.1-36.9-15.6-76.1-23.5-116.5-23.5z" fill="#330867" /><path d="M598.8 653.4c-37.3 18.3-79.3 28.6-123.7 28.6-155.3 0-281.2-125.9-281.2-281.2 0-22.4 2.6-44.2 7.6-65 24.1 194.9 141.9 321.5 397.3 317.6zM512.3 117s-24.2 53.1-64.3 57.3c-40.1 4.3-49.3 40.8-46.8 50.8 4.5 17.6 28.4 22.5 23.6 52.6 3.5 26.6 26 20.1 68 3 57.9-28.4 82.9 100.1 108.6 94 31.9-7.5-10.1-89.3 14.7-92.2 17.5-2.1 30.5-2.2 47.5-7.1 17-4.9 43.8-27.8 43.1-33.9-2.8-29-151.2-139.1-194.4-124.5z" fill="#18A3D3" /><path d="M599.7 377.9c-11 0-20.5-17-32.2-38.1-17.9-32.3-40.3-72.6-73.3-56.4-0.1 0-0.1 0.1-0.2 0.1-33.3 13.6-51.1 19-62.2 12.5-5.4-3.2-8.7-9-9.8-17.8v-0.9c2.7-17.4-4.5-25.3-12.2-33.7-4.7-5.1-9.5-10.4-11.4-17.7-1.7-6.7 0.8-20 8.9-31.6 6.4-9.2 18.6-20.6 40.5-22.9 38-4 61.7-55.1 61.9-55.6 0.3-0.8 1-1.3 1.8-1.6 25.7-8.7 80.1 23.5 102.2 37.8 45.9 29.5 94.4 70.9 96.3 89.2 0.9 9.2-29.3 32.5-45.3 37.1-12.9 3.7-23.3 4.7-35.3 5.9-4 0.4-8.2 0.8-12.7 1.3-1.6 0.2-2.7 0.8-3.5 1.9-4 5.3-1.6 20.2 0.7 34.7 3.8 23.9 8.2 50.9-11.6 55.6-0.9 0.1-1.8 0.2-2.6 0.2z m-90.5-104.3c10.6 0 20.9 4.9 30.8 14.7 12.8 12.7 23.4 31.7 32.7 48.5 10 18.1 20.4 36.7 28.1 34.9 14.3-3.4 10.6-26.5 7-48.8-2.7-17.1-5.1-31.9 0.4-39.2 1.8-2.4 4.4-3.9 7.6-4.2 4.5-0.5 8.8-0.9 12.8-1.3 11.7-1.1 21.8-2.1 34.2-5.7 16.7-4.8 40.3-26.3 41-30.8-1.6-14.1-45.2-53.7-93.5-84.7-43.6-28-79.2-42-95.9-37.5-4.1 8.4-27.8 53.8-66.1 57.8-19.7 2.1-30.5 12.2-36.2 20.4-7.4 10.6-9.1 22.2-8 26.7 1.5 5.9 5.6 10.4 10 15.2 7.8 8.6 16.7 18.2 13.8 38.2 1 6.6 3.2 10.9 6.8 13 9.7 5.6 31.5-2.5 56.9-12.8 6-2.9 11.8-4.4 17.6-4.4z" fill="#330867" /><path d="M401.3 325.2s-74.4 30.8-54.5 75.5c19.9 44.7 54.5 27.8 54.5 27.8s27.2 21.6 16.3 47.8c-10.8 26.2 4.4 77.1 20.7 77.1 16.3 0 40.9-27.8 48.6-64.8 7.7-37 26.2-53.4 38.5-69.9s40.2-36.5 13.9-50.4c-26.2-13.8-114.5-55.9-138-43.1z" fill="#18A3D3" /><path d="M438.3 556.4c-5 0-10-3.5-14.4-10.1-11.2-16.8-17.5-50.8-9.1-71.2 8.5-20.6-9-38.5-14.1-43.2-4.3 1.6-15.6 4.9-28 0.4-12-4.3-21.6-14.6-28.7-30.4-4.6-10.3-4.8-20.8-0.7-31.1 11.5-28.9 53.4-47 56.7-48.4 29.1-15.4 139.7 42.6 140.8 43.2 7.3 3.8 11.3 8.4 12.3 14 1.8 10.3-7.5 20.7-16.6 30.7-3.2 3.6-6.2 6.9-8.7 10.1-2.3 3.1-4.8 6.1-7.4 9.3-11.5 14-24.5 29.9-30.6 59.4-7.9 38.6-33.8 67.3-51.5 67.3z m-37-130.9c0.7 0 1.3 0.2 1.9 0.6 0.3 0.2 28.8 23.3 17.2 51.3-7.6 18.4-1.7 50.3 8.5 65.5 3.2 4.8 6.5 7.4 9.4 7.4 7.2 0 16.6-6.5 25.2-17.4 9.8-12.3 17-28.3 20.5-45 6.4-30.9 20.5-48.2 31.9-62 2.6-3.1 5-6.1 7.2-9.1 2.6-3.4 5.7-6.9 9-10.6 7.7-8.6 16.4-18.3 15.1-25.7-0.6-3.6-3.6-6.8-9.2-9.7-42.1-22.2-116.1-53.6-135.3-43.2-0.1 0.1-0.2 0.1-0.3 0.1-0.4 0.2-42.7 18-53.6 45.1-3.5 8.7-3.3 17.6 0.6 26.4 6.3 14.2 14.8 23.4 25.1 27.2 13.2 4.8 25.2-0.8 25.3-0.9 0.6 0.1 1 0 1.5 0z m0-100.3z" fill="#330867" /><path d="M586.9 410.2s29.6-9.4 29.6-0.3-11.3 33.2-9.5 46.5c1.8 13.4-11.6 18.9-11.6 18.9s-25.6-31.6-8.5-65.1z" fill="#18A3D3" /><path d="M595.4 478.3c-0.9 0-1.8-0.4-2.3-1.1-1.1-1.4-26.6-33.6-8.9-68.4 0.4-0.7 1-1.3 1.8-1.5 5.6-1.8 24.5-7.3 30.9-2.5 1.7 1.2 2.6 3 2.6 5.1 0 4.2-1.9 10.4-4.1 17.7-3 9.9-6.4 21.2-5.4 28.4 1.7 12.4-8 19.8-13.4 22-0.4 0.2-0.8 0.3-1.2 0.3z m-6.4-65.6c-12.6 26.3 2.4 51.7 7.3 58.8 3.2-1.9 8.8-6.6 7.7-14.6-1.2-8.6 2.4-20.5 5.6-31 2-6.5 3.9-12.7 3.9-16v-0.2c-1.3-1.7-12.1-0.8-24.5 3z" fill="#330867" /><path d="M440.3 770.6h61v87.8h-61z" fill="#FC6B79" /><path d="M510.3 867.4h-79V761.6h79v105.8z m-61-18h43v-69.8h-43v69.8z" fill="#330867" /><path d="M238.1 910c-5 0-9-4-9-9v-55.4c0-5 4-9 9-9H737c5 0 9 4 9 9V901c0 5-4 9-9 9H238.1z" fill="#FFE08A" /><path d="M737 845.6V901H238.1v-55.4H737m0-18H238.1c-9.9 0-18 8.1-18 18V901c0 9.9 8.1 18 18 18H737c9.9 0 18-8.1 18-18v-55.4c0-10-8.1-18-18-18z" fill="#330867" /><path d="M238.1 879H737v22H238.1z" fill="#EAB236" /></svg>