<?xml version="1.0" standalone="no"?><!DOCTYPE svg PUBLIC "-//W3C//DTD SVG 1.1//EN" "http://www.w3.org/Graphics/SVG/1.1/DTD/svg11.dtd"><svg class="icon" width="200px" height="200.00px" viewBox="0 0 1024 1024" version="1.1" xmlns="http://www.w3.org/2000/svg"><path d="M511.2 288.4m-79.9 0a79.9 79.9 0 1 0 159.8 0 79.9 79.9 0 1 0-159.8 0Z" fill="#F7D7FF" /><path d="M511.2 217.5c39.1 0 70.9 31.7 70.9 70.9 0 39.1-31.7 70.9-70.9 70.9s-70.9-31.7-70.9-70.9 31.7-70.9 70.9-70.9m0-18c-49 0-88.9 39.9-88.9 88.9s39.9 88.9 88.9 88.9 88.9-39.9 88.9-88.9-39.9-88.9-88.9-88.9z" fill="#330867" /><path d="M440.3 288.4c0-39.1 31.7-70.9 70.9-70.9s70.9 31.7 70.9 70.9c-16-27.5-27.6-51-66.8-51s-46.7 18.6-75 51z" fill="#F0BEFC" /><path d="M673.5 287.5c-9.1 0-17.3-6.4-19.1-15.7-13.5-68.1-73.7-117.5-143.2-117.5-69.5 0-129.8 49.4-143.2 117.5-2.1 10.6-12.3 17.4-22.9 15.4-10.6-2.1-17.4-12.3-15.4-22.9 17.1-86.3 93.4-149 181.5-149s164.4 62.6 181.5 149c2.1 10.6-4.8 20.8-15.3 22.9-1.4 0.2-2.6 0.3-3.9 0.3z" fill="#F0BEFC" /><path d="M278.1 541.2c-8.4 0-16.7-1.3-24.7-3.9-41.9-13.6-64.9-58.8-51.3-100.7 10.7-33 41.3-55.2 76-55.2 8.4 0 16.7 1.3 24.7 3.9 20.3 6.6 36.8 20.7 46.5 39.7 9.7 19 11.4 40.7 4.8 61-10.7 33-41.3 55.2-76 55.2z" fill="#66C1FF" /><path d="M278.1 390.4c7.3 0 14.6 1.1 21.9 3.5 37.2 12.1 57.6 52.1 45.5 89.3-9.7 30-37.5 49-67.4 49-7.3 0-14.6-1.1-21.9-3.5-37.2-12.1-57.6-52.1-45.5-89.3 9.7-30 37.5-49 67.4-49m0-18v18-18c-18.6 0-36.5 5.7-51.7 16.6-15.5 11.1-26.9 26.6-32.8 44.8-15.1 46.6 10.5 96.9 57.1 112 8.9 2.9 18.2 4.4 27.5 4.4 18.6 0 36.5-5.7 51.7-16.6 15.5-11.1 26.9-26.6 32.8-44.8 15.1-46.6-10.5-96.9-57.1-112-8.9-3-18.2-4.4-27.5-4.4z" fill="#330867" /><path d="M256.2 528.7c-37.2-12.1-57.6-52.1-45.5-89.3 12.1-37.2 52.1-57.6 89.3-45.5-31.1 6.7-57.1 10.5-69.2 47.7-12 37.2 3.3 50.1 25.4 87.1z" fill="#18A3D3" /><path d="M208.5 628.9c-3.2 0-6.5-0.8-9.5-2.5-76.8-42.9-112.8-134.8-85.6-218.6 27.2-83.8 110.4-137 197.8-126.6 10.7 1.3 18.3 11 17 21.7s-11 18.3-21.7 17c-68.9-8.2-134.5 33.8-156 99.9-21.5 66.1 6.9 138.7 67.5 172.5 9.4 5.3 12.8 17.1 7.5 26.5-3.5 6.5-10.1 10.1-17 10.1z" fill="#18A3D3" /><path d="M370.4 816.2c-16.9 0-33.2-5.3-46.9-15.3-17.3-12.5-28.6-31.1-31.9-52.1-3.3-21.1 1.7-42.2 14.3-59.5 15-20.6 39.2-32.9 64.7-32.9 16.9 0 33.2 5.3 46.9 15.3 35.6 25.9 43.6 75.9 17.7 111.6-15.1 20.6-39.2 32.9-64.8 32.9z" fill="#FFE08A" /><path d="M370.6 665.5c14.4 0 29 4.4 41.6 13.5 31.7 23 38.7 67.3 15.7 99-13.9 19.1-35.5 29.2-57.4 29.2-14.4 0-29-4.4-41.6-13.5-31.7-23-38.7-67.3-15.7-99 13.8-19.1 35.4-29.2 57.4-29.2m0-18v18-18c-13.7 0-27.5 3.2-39.8 9.3-12.7 6.3-23.8 15.8-32.2 27.3-28.8 39.7-20 95.3 19.7 124.2 15.3 11.1 33.3 17 52.2 17 13.7 0 27.5-3.2 39.7-9.3 12.7-6.3 23.8-15.8 32.2-27.3 14-19.2 19.6-42.7 15.9-66.2-3.7-23.5-16.3-44.1-35.5-58-15.3-11.2-33.4-17-52.2-17z" fill="#330867" /><path d="M427.9 778c-23 31.7-67.3 38.7-99 15.7-31.7-23-38.7-67.3-15.7-99-3.2 31.7-7.6 57.5 24 80.5 31.7 23 48.7 12.4 90.7 2.8z" fill="#EAB236" /><path d="M377.5 911.7c-38 0-76.2-11.6-108.7-35.3-71.3-51.8-96.2-147.3-59.3-227.2 4.5-9.8 16.1-14 25.9-9.5 9.8 4.5 14 16.1 9.5 25.9-29.1 63-9.5 138.4 46.8 179.3 56.3 40.9 134 36.3 184.9-10.9 7.9-7.3 20.2-6.9 27.6 1 7.3 7.9 6.9 20.2-1 27.6-35.2 32.5-80.4 49.1-125.7 49.1z" fill="#EAB236" /><path d="M660.7 813.4c-25.5 0-49.7-12.3-64.7-32.9-12.5-17.3-17.6-38.4-14.3-59.5 3.3-21.1 14.7-39.6 31.9-52.1 13.7-10 30-15.3 46.9-15.3 25.5 0 49.7 12.3 64.7 32.9 12.5 17.3 17.6 38.4 14.3 59.5-3.3 21.1-14.7 39.6-31.9 52.1-13.7 10-29.9 15.3-46.9 15.3z" fill="#FC6B79" /><path d="M660.6 662.6c21.9 0 43.5 10.1 57.4 29.2 23 31.7 16 76-15.7 99-12.6 9.1-27.2 13.5-41.6 13.5-21.9 0-43.5-10.1-57.4-29.2-23-31.7-16-76 15.7-99 12.6-9.1 27.2-13.5 41.6-13.5m0-18v18-18c-18.9 0-36.9 5.9-52.2 17-19.2 14-31.8 34.6-35.5 58-3.7 23.5 1.9 46.9 15.9 66.2 8.4 11.5 19.5 21 32.2 27.3 12.3 6.1 26 9.3 39.7 9.3 18.9 0 36.9-5.9 52.2-17 19.2-14 31.8-34.6 35.5-58 3.7-23.5-1.9-46.9-15.9-66.2-8.4-11.5-19.5-21-32.2-27.3-12.2-6.1-26-9.3-39.7-9.3z" fill="#330867" /><path d="M718 691.8c23 31.7 16 76-15.7 99s-76 16-99-15.7c29.1 12.8 52.4 25 84 2 31.7-22.9 26.9-42.4 30.7-85.3z" fill="#DD365E" /><path d="M653.7 908.8c-45.4 0-90.6-16.6-125.7-49.1-7.9-7.3-8.4-19.7-1-27.6 7.3-7.9 19.7-8.4 27.6-1 50.9 47.2 128.7 51.8 184.9 10.9 56.3-40.9 75.9-116.3 46.8-179.3-4.5-9.8-0.3-21.4 9.5-25.9s21.4-0.3 25.9 9.5c36.9 79.9 12 175.4-59.3 227.2-32.5 23.7-70.6 35.3-108.7 35.3z" fill="#DD365E" /><path d="M747.6 536.5c-34.7 0-65.2-22.2-76-55.2-6.6-20.3-4.9-41.9 4.8-61s26.2-33.1 46.5-39.7c8-2.6 16.3-3.9 24.7-3.9 34.7 0 65.2 22.2 76 55.2 13.6 41.9-9.4 87.1-51.3 100.7-8 2.6-16.3 3.9-24.7 3.9z" fill="#BBF993" /><path d="M747.6 385.7c29.9 0 57.7 19 67.4 49 12.1 37.2-8.3 77.2-45.5 89.3-7.3 2.4-14.7 3.5-21.9 3.5-29.9 0-57.7-19-67.4-49-12.1-37.2 8.3-77.2 45.5-89.3 7.3-2.3 14.7-3.5 21.9-3.5m0-18c-9.3 0-18.6 1.5-27.5 4.4-46.6 15.1-72.2 65.4-57.1 112 5.9 18.2 17.3 33.7 32.8 44.8 15.2 10.9 33.1 16.6 51.7 16.6 9.3 0 18.6-1.5 27.5-4.4 22.6-7.3 41-23 51.7-44.2 10.8-21.2 12.7-45.2 5.3-67.8-5.9-18.2-17.3-33.7-32.8-44.8-15.1-10.8-32.9-16.6-51.6-16.6z" fill="#330867" /><path d="M725.7 389.2c37.2-12.1 77.2 8.3 89.3 45.5 12.1 37.2-8.3 77.2-45.5 89.3 21.2-23.7 40-42.1 27.9-79.3-12.1-37.2-32.1-38.6-71.7-55.5z" fill="#84D152" /><path d="M817.2 624.2c-6.8 0-13.5-3.6-17-10-5.3-9.4-1.9-21.3 7.5-26.5 60.6-33.8 89-106.4 67.5-172.5s-87.1-108.1-156-99.9c-10.7 1.3-20.4-6.4-21.7-17-1.3-10.7 6.4-20.4 17-21.7 87.4-10.5 170.5 42.8 197.8 126.6 27.2 83.8-8.8 175.7-85.6 218.6-3 1.6-6.3 2.4-9.5 2.4z" fill="#84D152" /><path d="M512.9 531.5m-112.5 0a112.5 112.5 0 1 0 225 0 112.5 112.5 0 1 0-225 0Z" fill="#330867" /><path d="M517.2 521h-51.7v-47.9h-15.8v116.8h15.8V535h51.7v54.9H533V473.1h-15.8V521z m43-23.8v92.7H576v-92.7h-15.8z m7.9-8.3c4.4 0 7.9-3.5 7.9-7.9s-3.5-7.9-7.9-7.9-7.9 3.5-7.9 7.9c0 4.3 3.5 7.9 7.9 7.9z" fill="#FFFFFF" /></svg>