<?xml version="1.0" standalone="no"?><!DOCTYPE svg PUBLIC "-//W3C//DTD SVG 1.1//EN" "http://www.w3.org/Graphics/SVG/1.1/DTD/svg11.dtd"><svg class="icon" width="200px" height="132.90px" viewBox="0 0 1541 1024" version="1.1" xmlns="http://www.w3.org/2000/svg"><path d="M512.3 922.7c-55.2 0-108.8-10.8-159.2-32.1-48.7-20.6-92.4-50.1-130-87.6-37.6-37.6-67-81.3-87.6-130-21.3-50.4-32.1-104-32.1-159.2s10.8-108.8 32.1-159.2c20.6-48.7 50.1-92.4 87.6-130 37.6-37.6 81.3-67 130-87.6 50.4-21.3 104-32.1 159.2-32.1s108.8 10.8 159.2 32.1c48.7 20.6 92.4 50.1 130 87.6 37.6 37.6 67 81.3 87.6 130 21.3 50.4 32.1 104 32.1 159.2S910.4 622.6 889.1 673c-20.6 48.7-50.1 92.4-87.6 130-37.6 37.6-81.3 67-130 87.6-50.4 21.3-104 32.1-159.2 32.1z" fill="#F7D7FF" /><path d="M512.3 113.7c220.9 0 400 179.1 400 400s-179.1 400-400 400-400-179.1-400-400 179.1-400 400-400m0-18c-56.4 0-111.2 11.1-162.7 32.9-49.8 21.1-94.5 51.2-132.9 89.6s-68.5 83.1-89.6 132.9c-21.8 51.5-32.9 106.3-32.9 162.7s11.1 111.2 32.9 162.7c21.1 49.8 51.2 94.5 89.6 132.9s83.1 68.5 132.9 89.6c51.5 21.8 106.3 32.9 162.7 32.9S623.5 920.8 675 899c49.8-21.1 94.5-51.2 132.9-89.6s68.5-83.1 89.6-132.9c21.8-51.5 32.9-106.3 32.9-162.7S919.3 402.5 897.5 351c-21.1-49.8-51.2-94.5-89.6-132.9s-83.1-68.5-132.9-89.6c-51.5-21.7-106.2-32.8-162.7-32.8z" fill="#330867" /><path d="M795.2 796.8C639 953 385.7 953 229.5 796.8c-94.5-94.5-131.8-224.4-112-346.9 112 346.9 449.2 448 677.7 346.9z" fill="#F0BEFC" /><path d="M298.9 852.1c61.8 39 134.9 61.6 213.4 61.6 100.9 0 193-37.4 263.4-99C636 801.8 497.2 780.2 360 749.8c-20.9 33.7-41.3 67.8-61.1 102.3z" fill="#F7D7FF" /><path d="M363.4 744.4c138.1 30.4 277.7 52.1 418.4 64.8 38.1-34.8 69.5-76.9 91.9-124.1-145.6-9.9-290.2-29.3-433.2-58.1-26.5 38.6-52.2 77.7-77.1 117.4z" fill="#EAB236" /><path d="M360.1 749.8c137.2 30.3 275.9 52 415.7 64.9 2.1-1.8 4.1-3.6 6.1-5.5-140.6-12.7-280.3-34.4-418.4-64.8-1.2 1.8-2.3 3.6-3.4 5.4z" fill="#330867" /><path d="M822.8 535.2c-96.4-8.6-192.4-21.4-287.7-38.4-31.3 40.8-61.5 82.4-90.8 124.7 142.7 28.6 287 47.9 432.2 57.7 19.3-42.3 31.4-88.6 34.8-137.3-3.9-0.2-7.8-0.5-11.7-0.8-27.6-1.4-59.7-3.4-76.8-5.9z" fill="#FFE08A" /><path d="M911.3 542v-0.1c-3.8-0.2-7.7-0.4-11.7-0.6 3.9 0.2 7.8 0.4 11.7 0.7zM682.9 518.6h-0.5L537.8 495c-0.4-0.1-0.7-0.2-1-0.4-0.6 0.8-1.2 1.5-1.7 2.3 95.3 16.9 191.3 29.7 287.7 38.4-4.9-0.7-8.6-1.4-10.6-2.2l-128-14.8c-0.4 0.2-0.8 0.3-1.3 0.3zM440.5 627.1c143 28.8 287.6 48.2 433.2 58.1 0.9-2 1.9-3.9 2.8-5.9-145.2-9.8-289.5-29.1-432.2-57.7-1.2 1.8-2.5 3.6-3.8 5.5z" fill="#330867" /><path d="M411.8 208.6c-11.9-23.9-24-47.5-36.5-70.9-153.5 55.9-263.1 203.1-263.1 375.9 0 32.8 3.9 64.6 11.4 95.1C209.5 468 305.8 334.3 411.8 208.6z" fill="#F7D7FF" /><path d="M473.4 340.3c-18.7-42.6-38.2-84.6-58.7-125.9-106.5 126.4-203 260.8-289 402.4 13.1 49.3 35.4 94.8 64.9 134.6C274.3 607 368.8 469.6 473.4 340.3z" fill="#EAB236" /><path d="M414.7 214.4c-1-1.9-1.9-3.9-2.9-5.8-106 125.7-202.3 259.4-288.1 400.2 0.7 2.7 1.3 5.4 2.1 8 85.9-141.6 182.4-276 288.9-402.4z" fill="#330867" /><path d="M533.9 488.8c-18.2-48.1-37.4-95.6-57.8-142.3-104.2 129-198.2 266-281.6 410.2 27.6 36.1 61.3 67.3 99.4 92.2 72.1-125.6 152.2-245.8 240-360.1z" fill="#FFE08A" /><path d="M363.4 744.4c24.9-39.7 50.6-78.9 77.1-117.4 1.3-1.8 2.5-3.6 3.8-5.5 29.3-42.3 59.5-83.9 90.8-124.7 0.6-0.8 1.2-1.5 1.7-2.3-0.6-0.3-1.1-0.9-1.3-1.5-0.5-1.4-1.1-2.9-1.6-4.3C446.1 603.1 366 723.3 294 848.9c1.6 1.1 3.3 2.1 5 3.2 19.8-34.5 40.1-68.6 61.1-102.3l3.3-5.4zM476.1 346.5c-0.9-2.1-1.8-4.1-2.7-6.2C368.8 469.6 274.3 607 190.6 751.5c1.3 1.7 2.6 3.5 3.9 5.2 83.3-144.2 177.4-281.2 281.6-410.2z" fill="#330867" /><path d="M817.8 528.5c13.3 2.7 54.9 5.4 93.9 7.4 0.4-7.3 0.6-14.7 0.6-22.2 0-167.8-103.3-311.4-249.8-370.8 60.8 124.6 112.7 253.5 155.3 385.6z" fill="#F7D7FF" /><path d="M911.7 535.9c-39-2-80.6-4.8-93.9-7.4 0.1 0.3 0.2 0.7 0.3 1 0.3 1 0.1 2-0.5 2.8-0.6 0.7-1.4 1.1-2.3 1.1h-0.3l-2.7-0.3c2 0.7 5.6 1.5 10.6 2.2 17.1 2.4 49.2 4.5 76.8 6 4 0.2 7.9 0.4 11.7 0.6 0.1-2.1 0.2-4 0.3-6z" fill="#330867" /><path d="M684.9 512.2L811 526.9c-42.9-132.6-95.3-262.1-156.7-387.3-44-16.7-91.7-25.9-141.5-25.9C579.7 242 637.4 375.4 684.9 512.2z" fill="#EAB236" /><path d="M811 526.9l-126.1-14.7c0.3 0.8 0.6 1.6 0.8 2.4 0.3 1 0.1 2.1-0.5 2.9-0.3 0.3-0.6 0.6-0.9 0.8l128 14.8 2.7 0.3h0.3c0.9 0 1.7-0.4 2.3-1.1 0.6-0.8 0.8-1.8 0.5-2.8-0.1-0.3-0.2-0.7-0.3-1-42.5-132-94.5-261-155.2-385.6-2.7-1.1-5.5-2.2-8.2-3.2C715.7 264.8 768.1 394.3 811 526.9z" fill="#330867" /><path d="M540.5 489.4l137.9 22.5c-47.6-136.7-105.3-270-172.4-398.1-43.7 0.7-85.7 8.4-124.9 22C441 248.3 494.4 366.7 540.5 489.4z" fill="#FFE08A" /><path d="M414.7 214.4c20.4 41.3 40 83.3 58.7 125.9 0.9 2.1 1.8 4.1 2.7 6.2 20.4 46.7 39.6 94.2 57.8 142.3 0.5 1.4 1.1 2.9 1.6 4.3 0.3 0.7 0.7 1.2 1.3 1.5 0.3 0.2 0.6 0.3 1 0.4l144.6 23.6h0.5c0.5 0 0.9-0.1 1.4-0.3 0.4-0.2 0.7-0.4 0.9-0.8 0.6-0.8 0.8-1.9 0.5-2.9-0.3-0.8-0.6-1.6-0.8-2.4C637.4 375.4 579.7 242 512.8 113.7h-0.5c-2.1 0-4.2 0-6.3 0.1C573.1 242 630.8 375.2 678.4 511.9l-137.9-22.5C494.4 366.7 441 248.3 381.1 135.7c-1.9 0.7-3.8 1.3-5.7 2 12.4 23.4 24.6 47 36.5 70.9 0.9 1.9 1.9 3.9 2.8 5.8z" fill="#330867" /><path d="M116 461.9c33.2-18.8 64.7-45 91.7-77.9 50.2-61.2 74.7-133 72.8-197.4-88.6 63.3-150.3 161.9-164.5 275.3zM661.4 884.7c-32.6-19.8-70.8-34.6-112.7-42.1-77.9-14-152.6-0.4-207.8 32.6 98.4 46.5 214.5 52.3 320.5 9.5zM909.8 464.4c-33.2-18.8-64.7-45-91.7-77.9-50.2-61.2-74.7-133-72.8-197.4 88.6 63.3 150.2 161.9 164.5 275.3z" fill="#F0BEFC" /></svg>