<?xml version="1.0" standalone="no"?><!DOCTYPE svg PUBLIC "-//W3C//DTD SVG 1.1//EN" "http://www.w3.org/Graphics/SVG/1.1/DTD/svg11.dtd"><svg class="icon" width="200px" height="200.00px" viewBox="0 0 1024 1024" version="1.1" xmlns="http://www.w3.org/2000/svg"><path d="M126.1 831.6V126.1c0-10.3 8.4-18.7 18.7-18.7h548.1c10.3 0 18.7 8.4 18.7 18.7v663.2" fill="#FC6B79" /><path d="M126.1 840.6c-5 0-9-4-9-9V126.1c0-15.3 12.4-27.7 27.7-27.7h548.1c15.3 0 27.7 12.4 27.7 27.7v663.2c0 5-4 9-9 9s-9-4-9-9V126.1c0-5.3-4.3-9.7-9.7-9.7H144.8c-5.3 0-9.7 4.3-9.7 9.7v705.5c0 5-4.1 9-9 9z" fill="#330867" /><path d="M711.5 917.1H174.4c-26.7 0-48.3-18.8-48.3-42.1v-42.7c0-23.2 21.6-42.1 48.3-42.1h537.1" fill="#DD365E" /><path d="M711.5 926.1H174.4c-31.6 0-57.3-22.9-57.3-51.1v-42.7c0-28.2 25.7-51.1 57.3-51.1h537.1c5 0 9 4 9 9s-4 9-9 9H174.4c-21.7 0-39.3 14.8-39.3 33.1V875c0 18.2 17.6 33.1 39.3 33.1h537.1c5 0 9 4 9 9s-4 9-9 9z" fill="#330867" /><path d="M418.8 495.3m-141 0a141 141 0 1 0 282 0 141 141 0 1 0-282 0Z" fill="#FFE08A" /><path d="M418.8 639.3c-79.4 0-144-64.6-144-144s64.6-144 144-144 144 64.6 144 144-64.6 144-144 144z m0-282c-76.1 0-138 61.9-138 138s61.9 138 138 138 138-61.9 138-138-61.9-138-138-138z" fill="#330867" /><path d="M418.8 399.5l30.1 61.1 67.4 9.8-48.7 47.5 11.5 67.2-60.3-31.7-60.3 31.7 11.5-67.2-48.8-47.5 67.4-9.8z" fill="#DD365E" /><path d="M479.1 594.1c-1.4 0-2.9-0.3-4.2-1l-56.1-29.5-56.1 29.4c-3 1.6-6.7 1.3-9.5-0.7s-4.2-5.4-3.6-8.8l10.7-62.5-45.4-44.2c-2.5-2.4-3.3-6-2.3-9.2 1.1-3.3 3.9-5.6 7.3-6.1l62.7-9.1 28.1-56.8c1.5-3.1 4.6-5 8.1-5s6.6 1.9 8.1 5l28.1 56.8 62.7 9.1c3.4 0.5 6.2 2.9 7.3 6.1 1.1 3.3 0.2 6.8-2.3 9.2L477.3 521l10.7 62.5c0.6 3.4-0.8 6.8-3.6 8.8-1.6 1.2-3.5 1.8-5.3 1.8zM340.6 476.7l35.7 34.8c2.1 2.1 3.1 5 2.6 8l-8.4 49.2 44.2-23.2c2.6-1.4 5.8-1.4 8.4 0l44.2 23.2-8.4-49.2c-0.5-2.9 0.5-5.9 2.6-8l35.7-34.8-49.4-7.2c-2.9-0.4-5.5-2.3-6.8-4.9l-22.1-44.7-22.1 44.7c-1.3 2.7-3.8 4.5-6.8 4.9l-49.4 7.2z" fill="#330867" /><path d="M318.6 260.3l-63.5-41-63.4 41V107.4h126.9z" fill="#66C1FF" /><path d="M318.6 263.3c-0.6 0-1.1-0.2-1.6-0.5l-61.8-39.9-61.8 39.9c-0.9 0.6-2.1 0.6-3.1 0.1s-1.6-1.5-1.6-2.6V107.4c0-1.7 1.3-3 3-3h126.9c1.7 0 3 1.3 3 3v152.8c0 1.1-0.6 2.1-1.6 2.6-0.4 0.4-0.9 0.5-1.4 0.5zM194.7 110.4v144.3l58.8-38c1-0.6 2.3-0.6 3.3 0l58.8 38V110.4H194.7z" fill="#330867" /><path d="M841.7 914.3c-3.7 0-7-2.3-8.4-5.7l-49.5-125.3a9.6 9.6 0 0 1-0.6-3.3V125.5c0-5 4-9 9-9h99c5 0 9 4 9 9v654.4c0 1.1-0.2 2.3-0.6 3.3l-49.5 125.3c-1.3 3.5-4.7 5.8-8.4 5.8z" fill="#66C1FF" /><path d="M891.2 125.5v654.4l-49.5 125.3-49.5-125.3V125.5h99m0-18h-99c-9.9 0-18 8.1-18 18v654.4c0 2.3 0.4 4.5 1.3 6.6L825 911.9c2.7 6.9 9.4 11.4 16.7 11.4s14-4.5 16.7-11.4L908 786.6c0.8-2.1 1.3-4.3 1.3-6.6V125.5c-0.1-9.9-8.1-18-18.1-18z" fill="#330867" /><path d="M792.3 125.5h99v85h-99z" fill="#FFE08A" /><path d="M891.2 779.9l-49.5 125.4-49.4-125.4z" fill="#FC6B79" /><path d="M891.2 213.5h-99c-1.7 0-3-1.3-3-3s1.3-3 3-3h99c1.7 0 3 1.3 3 3s-1.3 3-3 3z" fill="#330867" /><path d="M891.2 782.9h-99c-1.7 0-3-1.3-3-3s1.3-3 3-3h99c1.7 0 3 1.3 3 3s-1.3 3-3 3z" fill="#330867" /></svg>