<?xml version="1.0" standalone="no"?><!DOCTYPE svg PUBLIC "-//W3C//DTD SVG 1.1//EN" "http://www.w3.org/Graphics/SVG/1.1/DTD/svg11.dtd"><svg class="icon" width="200px" height="200.00px" viewBox="0 0 1024 1024" version="1.1" xmlns="http://www.w3.org/2000/svg"><path d="M512 922.6c-53.1 0-104.9-10.1-153.9-29.9-50.7-20.6-96.3-50.8-135.3-89.8s-69.3-84.6-89.8-135.3c-19.9-49-29.9-100.8-29.9-153.9 0-53.1 10.1-104.9 29.9-153.9 20.6-50.7 50.8-96.3 89.8-135.3 39-39 84.6-69.3 135.3-89.8 49-19.9 100.8-29.9 153.9-29.9 53.1 0 104.9 10.1 153.9 29.9 50.7 20.6 96.3 50.8 135.3 89.8 39 39 69.3 84.6 89.8 135.3 19.9 49 29.9 100.8 29.9 153.9 0 53.1-10.1 104.9-29.9 153.9-20.6 50.7-50.8 96.3-89.8 135.3-39 39-84.6 69.3-135.3 89.8-49 19.8-100.8 29.9-153.9 29.9z" fill="#FC6B79" /><path d="M512 113.6c102.4 0 204.7 39.1 282.8 117.2C951 387 951 640.3 794.8 796.5c-78.1 78-180.4 117.1-282.8 117.1s-204.7-39.1-282.8-117.2C73 640.2 73 386.9 229.2 230.7c78.1-78.1 180.4-117.1 282.8-117.1m0-18c-54.3 0-107.2 10.3-157.3 30.6-51.9 21-98.4 51.9-138.3 91.8-39.9 39.9-70.8 86.4-91.8 138.3-20.3 50.1-30.6 103-30.6 157.3s10.3 107.2 30.6 157.3c21 51.9 51.9 98.4 91.8 138.3 39.9 39.9 86.4 70.8 138.3 91.8 50.1 20.3 103 30.6 157.3 30.6s107.2-10.3 157.3-30.6c51.9-21 98.4-51.9 138.3-91.8 39.9-39.9 70.8-86.4 91.8-138.3 20.3-50.1 30.6-103 30.6-157.3s-10.3-107.2-30.6-157.3c-21-51.9-51.9-98.4-91.8-138.3-39.9-39.9-86.4-70.8-138.3-91.8-50.1-20.3-103-30.6-157.3-30.6z" fill="#330867" /><path d="M794.8 796.4c-156.2 156.2-409.5 156.2-565.7 0-94.5-94.5-131.8-224.4-112-346.9 112.1 346.9 449.3 448 677.7 346.9z" fill="#DD365E" /><path d="M538.3 917.8h-0.5c-5-0.3-8.8-4.5-8.5-9.5 6.5-111.4-35-220.6-113.9-299.4C336.5 530 227.4 488.5 116 495c-5 0.3-9.2-3.5-9.5-8.5-0.3-5 3.5-9.2 8.5-9.5 57.1-3.3 113.1 5 166.5 24.8 55.3 20.5 104.6 52.2 146.6 94.2s73.7 91.4 94.2 146.6c19.8 53.4 28.2 109.4 24.8 166.5-0.1 5-4.1 8.7-8.8 8.7zM883.2 549.8c-48.7 0-96.4-8.6-142.2-25.6-55.3-20.5-104.6-52.2-146.6-94.2s-73.7-91.4-94.2-146.6C480.4 230 472 174 475.4 116.9c0.3-5 4.5-8.8 9.5-8.5 5 0.3 8.7 4.5 8.5 9.5-6.5 111.4 35 220.6 113.9 299.4 78.9 78.9 188 120.4 299.4 113.9 4.9-0.3 9.2 3.5 9.5 8.5 0.3 5-3.5 9.2-8.5 9.5-8.3 0.3-16.4 0.6-24.5 0.6z" fill="#330867" /><path d="M228.5 804.8c-2.3 0-4.6-0.9-6.4-2.6-3.5-3.5-3.5-9.2 0-12.7l565.7-565.7c3.5-3.5 9.2-3.5 12.7 0s3.5 9.2 0 12.7L234.9 802.1c-1.8 1.8-4.1 2.7-6.4 2.7z" fill="#330867" /><path d="M794.2 804.8c-2.3 0-4.6-0.9-6.4-2.6L222.2 236.5c-3.5-3.5-3.5-9.2 0-12.7s9.2-3.5 12.7 0l565.7 565.7c3.5 3.5 3.5 9.2 0 12.7-1.8 1.7-4.1 2.6-6.4 2.6z" fill="#330867" /></svg>